<?xml version="1.0" encoding="UTF-8"?>
<svg width="93px" height="58px" viewBox="0 0 93 58" version="1.1" xmlns="http://www.w3.org/2000/svg" xmlns:xlink="http://www.w3.org/1999/xlink">
    <!-- Generator: Sketch 47.1 (45422) - http://www.bohemiancoding.com/sketch -->
    <title>Artboard 36</title>
    <desc>Created with Sketch.</desc>
    <defs></defs>
    <g stroke="none" stroke-width="1" fill="none" fill-rule="evenodd">
        <g fill="#65718B">
            <g transform="translate(0.000000, -8.000000)">
                <path d="M0.52,43.92 L5.09,43.92 L5.09,45.06 L1.78,45.06 L1.78,46.92 L4.9,46.92 L4.9,48.06 L1.78,48.06 L1.78,51 L0.52,51 L0.52,43.92 Z M6.26,43.92 L8.72,43.92 C9.0600017,43.92 9.38833175,43.9516664 9.705,44.015 C10.0216683,44.0783336 10.3033321,44.1866659 10.55,44.34 C10.7966679,44.4933341 10.9933326,44.6999987 11.14,44.96 C11.2866674,45.2200013 11.36,45.549998 11.36,45.95 C11.36,46.4633359 11.2183348,46.8933316 10.935,47.24 C10.6516653,47.5866684 10.2466693,47.7966663 9.72,47.87 L11.6,51 L10.08,51 L8.44,48 L7.52,48 L7.52,51 L6.26,51 L6.26,43.92 Z M8.5,46.92 C8.6800009,46.92 8.8599991,46.9116668 9.04,46.895 C9.2200009,46.8783332 9.38499925,46.8383337 9.535,46.775 C9.68500075,46.7116664 9.8066662,46.6150006 9.9,46.485 C9.9933338,46.3549993 10.04,46.1733345 10.04,45.94 C10.04,45.7333323 9.9966671,45.5666673 9.91,45.44 C9.8233329,45.3133327 9.7100007,45.2183336 9.57,45.155 C9.4299993,45.0916663 9.27500085,45.0500001 9.105,45.03 C8.93499915,45.0099999 8.7700008,45 8.61,45 L7.52,45 L7.52,46.92 L8.5,46.92 Z M12.56,43.92 L17.25,43.92 L17.25,45.06 L13.82,45.06 L13.82,46.8 L17.07,46.8 L17.07,47.94 L13.82,47.94 L13.82,49.86 L17.43,49.86 L17.43,51 L12.56,51 L12.56,43.92 Z M18.67,43.92 L23.36,43.92 L23.36,45.06 L19.93,45.06 L19.93,46.8 L23.18,46.8 L23.18,47.94 L19.93,47.94 L19.93,49.86 L23.54,49.86 L23.54,51 L18.67,51 L18.67,43.92 Z M29.63,45.3 L28.3,46.53 L27.6,45.7 L29.74,43.92 L30.83,43.92 L30.83,51 L29.63,51 L29.63,45.3 Z M36.22,49.56 L33.21,49.56 L33.21,48.37 L36.06,43.92 L37.42,43.92 L37.42,48.48 L38.45,48.48 L38.45,49.56 L37.42,49.56 L37.42,51 L36.22,51 L36.22,49.56 Z M36.22,45.62 L36.2,45.62 L34.43,48.48 L36.22,48.48 L36.22,45.62 Z M42.54,43.92 L45.33,43.92 C45.796669,43.92 46.2466645,43.9916659 46.68,44.135 C47.1133355,44.278334 47.496665,44.4966652 47.83,44.79 C48.163335,45.0833348 48.429999,45.4516644 48.63,45.895 C48.830001,46.3383355 48.93,46.859997 48.93,47.46 C48.93,48.0666697 48.8150012,48.5916644 48.585,49.035 C48.3549989,49.4783355 48.0583352,49.8449985 47.695,50.135 C47.3316649,50.4250014 46.9283356,50.641666 46.485,50.785 C46.0416645,50.9283341 45.6066688,51 45.18,51 L42.54,51 L42.54,43.92 Z M44.74,49.86 C45.1333353,49.86 45.5049983,49.8150004 45.855,49.725 C46.2050018,49.6349996 46.5099987,49.4950009 46.77,49.305 C47.0300013,49.114999 47.2349993,48.8683348 47.385,48.565 C47.5350008,48.2616651 47.61,47.8933355 47.61,47.46 C47.61,47.0333312 47.543334,46.6666682 47.41,46.36 C47.276666,46.0533318 47.0916679,45.805001 46.855,45.615 C46.6183322,45.424999 46.338335,45.2850004 46.015,45.195 C45.6916651,45.1049996 45.3366686,45.06 44.95,45.06 L43.8,45.06 L43.8,49.86 L44.74,49.86 Z M52.42,43.92 L53.51,43.92 L56.56,51 L55.12,51 L54.46,49.38 L51.39,49.38 L50.75,51 L49.34,51 L52.42,43.92 Z M54.02,48.3 L52.93,45.42 L51.82,48.3 L54.02,48.3 Z M58.34,47.97 L55.68,43.92 L57.26,43.92 L59,46.74 L60.76,43.92 L62.26,43.92 L59.6,47.97 L59.6,51 L58.34,51 L58.34,47.97 Z M67.32,45.06 L65.15,45.06 L65.15,43.92 L70.75,43.92 L70.75,45.06 L68.58,45.06 L68.58,51 L67.32,51 L67.32,45.06 Z M71.61,43.92 L74.07,43.92 C74.4100017,43.92 74.7383318,43.9516664 75.055,44.015 C75.3716683,44.0783336 75.6533321,44.1866659 75.9,44.34 C76.1466679,44.4933341 76.3433326,44.6999987 76.49,44.96 C76.6366674,45.2200013 76.71,45.549998 76.71,45.95 C76.71,46.4633359 76.5683348,46.8933316 76.285,47.24 C76.0016653,47.5866684 75.5966693,47.7966663 75.07,47.87 L76.95,51 L75.43,51 L73.79,48 L72.87,48 L72.87,51 L71.61,51 L71.61,43.92 Z M73.85,46.92 C74.0300009,46.92 74.2099991,46.9116668 74.39,46.895 C74.5700009,46.8783332 74.7349993,46.8383337 74.885,46.775 C75.0350008,46.7116664 75.1566662,46.6150006 75.25,46.485 C75.3433338,46.3549993 75.39,46.1733345 75.39,45.94 C75.39,45.7333323 75.3466671,45.5666673 75.26,45.44 C75.1733329,45.3133327 75.0600007,45.2183336 74.92,45.155 C74.7799993,45.0916663 74.6250009,45.0500001 74.455,45.03 C74.2849992,45.0099999 74.1200008,45 73.96,45 L72.87,45 L72.87,46.92 L73.85,46.92 Z M77.88,43.92 L79.14,43.92 L79.14,51 L77.88,51 L77.88,43.92 Z M82.98,43.92 L84.07,43.92 L87.12,51 L85.68,51 L85.02,49.38 L81.95,49.38 L81.31,51 L79.9,51 L82.98,43.92 Z M84.58,48.3 L83.49,45.42 L82.38,48.3 L84.58,48.3 Z M87.91,43.92 L89.17,43.92 L89.17,49.86 L92.18,49.86 L92.18,51 L87.91,51 L87.91,43.92 Z M7.415,59.58 C7.1549987,59.2999986 6.90333455,59.1133338 6.66,59.02 C6.41666545,58.9266662 6.1716679,58.88 5.925,58.88 C5.5583315,58.88 5.22666815,58.9449994 4.93,59.075 C4.63333185,59.2050007 4.3783344,59.3849989 4.165,59.615 C3.9516656,59.8450012 3.78666725,60.1133318 3.67,60.42 C3.55333275,60.7266682 3.495,61.0566649 3.495,61.41 C3.495,61.7900019 3.55333275,62.1399984 3.67,62.46 C3.78666725,62.7800016 3.9516656,63.0566655 4.165,63.29 C4.3783344,63.5233345 4.63333185,63.706666 4.93,63.84 C5.22666815,63.973334 5.5583315,64.04 5.925,64.04 C6.2116681,64.04 6.48999865,63.9716674 6.76,63.835 C7.03000135,63.6983326 7.2816655,63.4800015 7.515,63.18 L8.555,63.92 C8.2349984,64.3600022 7.8450023,64.679999 7.385,64.88 C6.9249977,65.080001 6.4350026,65.18 5.915,65.18 C5.3683306,65.18 4.86666895,65.0916675 4.41,64.915 C3.95333105,64.7383325 3.56000165,64.4883349 3.23,64.165 C2.89999835,63.8416651 2.6416676,63.4533356 2.455,63 C2.2683324,62.5466644 2.175,62.0433361 2.175,61.49 C2.175,60.9233305 2.2683324,60.4083356 2.455,59.945 C2.6416676,59.4816644 2.89999835,59.0866683 3.23,58.76 C3.56000165,58.4333317 3.95333105,58.1816676 4.41,58.005 C4.86666895,57.8283324 5.3683306,57.74 5.915,57.74 C6.3950024,57.74 6.83999795,57.8249991 7.25,57.995 C7.66000205,58.1650008 8.0416649,58.4533313 8.395,58.86 L7.415,59.58 Z M11.695,57.92 L12.785,57.92 L15.835,65 L14.395,65 L13.735,63.38 L10.665,63.38 L10.025,65 L8.615,65 L11.695,57.92 Z M13.295,62.3 L12.205,59.42 L11.095,62.3 L13.295,62.3 Z M16.625,57.92 L18.295,57.92 L21.725,63.18 L21.745,63.18 L21.745,57.92 L23.005,57.92 L23.005,65 L21.405,65 L17.905,59.57 L17.885,59.57 L17.885,65 L16.625,65 L16.625,57.92 Z M29.445,59.58 C29.1849987,59.2999986 28.9333346,59.1133338 28.69,59.02 C28.4466655,58.9266662 28.2016679,58.88 27.955,58.88 C27.5883315,58.88 27.2566682,58.9449994 26.96,59.075 C26.6633319,59.2050007 26.4083344,59.3849989 26.195,59.615 C25.9816656,59.8450012 25.8166673,60.1133318 25.7,60.42 C25.5833328,60.7266682 25.525,61.0566649 25.525,61.41 C25.525,61.7900019 25.5833328,62.1399984 25.7,62.46 C25.8166673,62.7800016 25.9816656,63.0566655 26.195,63.29 C26.4083344,63.5233345 26.6633319,63.706666 26.96,63.84 C27.2566682,63.973334 27.5883315,64.04 27.955,64.04 C28.2416681,64.04 28.5199987,63.9716674 28.79,63.835 C29.0600014,63.6983326 29.3116655,63.4800015 29.545,63.18 L30.585,63.92 C30.2649984,64.3600022 29.8750023,64.679999 29.415,64.88 C28.9549977,65.080001 28.4650026,65.18 27.945,65.18 C27.3983306,65.18 26.896669,65.0916675 26.44,64.915 C25.9833311,64.7383325 25.5900017,64.4883349 25.26,64.165 C24.9299984,63.8416651 24.6716676,63.4533356 24.485,63 C24.2983324,62.5466644 24.205,62.0433361 24.205,61.49 C24.205,60.9233305 24.2983324,60.4083356 24.485,59.945 C24.6716676,59.4816644 24.9299984,59.0866683 25.26,58.76 C25.5900017,58.4333317 25.9833311,58.1816676 26.44,58.005 C26.896669,57.8283324 27.3983306,57.74 27.945,57.74 C28.4250024,57.74 28.869998,57.8249991 29.28,57.995 C29.6900021,58.1650008 30.0716649,58.4533313 30.425,58.86 L29.445,59.58 Z M31.435,57.92 L36.125,57.92 L36.125,59.06 L32.695,59.06 L32.695,60.8 L35.945,60.8 L35.945,61.94 L32.695,61.94 L32.695,63.86 L36.305,63.86 L36.305,65 L31.435,65 L31.435,57.92 Z M37.545,57.92 L38.805,57.92 L38.805,63.86 L41.815,63.86 L41.815,65 L37.545,65 L37.545,57.92 Z M47.985,57.92 L49.075,57.92 L52.125,65 L50.685,65 L50.025,63.38 L46.955,63.38 L46.315,65 L44.905,65 L47.985,57.92 Z M49.585,62.3 L48.495,59.42 L47.385,62.3 L49.585,62.3 Z M52.915,57.92 L54.585,57.92 L58.015,63.18 L58.035,63.18 L58.035,57.92 L59.295,57.92 L59.295,65 L57.695,65 L54.195,59.57 L54.175,59.57 L54.175,65 L52.915,65 L52.915,57.92 Z M62.605,61.97 L59.945,57.92 L61.525,57.92 L63.265,60.74 L65.025,57.92 L66.525,57.92 L63.865,61.97 L63.865,65 L62.605,65 L62.605,61.97 Z M68.625,59.06 L66.455,59.06 L66.455,57.92 L72.055,57.92 L72.055,59.06 L69.885,59.06 L69.885,65 L68.625,65 L68.625,59.06 Z M72.885,57.92 L74.145,57.92 L74.145,65 L72.885,65 L72.885,57.92 Z M75.725,57.92 L77.645,57.92 L79.535,62.88 L81.445,57.92 L83.345,57.92 L83.345,65 L82.145,65 L82.145,59.12 L82.125,59.12 L79.975,65 L79.095,65 L76.945,59.12 L76.925,59.12 L76.925,65 L75.725,65 L75.725,57.92 Z M84.955,57.92 L89.645,57.92 L89.645,59.06 L86.215,59.06 L86.215,60.8 L89.465,60.8 L89.465,61.94 L86.215,61.94 L86.215,63.86 L89.825,63.86 L89.825,65 L84.955,65 L84.955,57.92 Z"></path>
                <g transform="translate(18.000000, 0.000000)">
                    <path d="M7.928,12.04 L4.204,15.484 L2.244,13.16 L8.236,8.176 L11.288,8.176 L11.288,28 L7.928,28 L7.928,12.04 Z M26.38,23.968 L17.952,23.968 L17.952,20.636 L25.932,8.176 L29.74,8.176 L29.74,20.944 L32.624,20.944 L32.624,23.968 L29.74,23.968 L29.74,28 L26.38,28 L26.38,23.968 Z M26.38,12.936 L26.324,12.936 L21.368,20.944 L26.38,20.944 L26.38,12.936 Z"></path>
                    <path d="M44.605,18.355 C44.605,18.8816693 44.5141676,19.3674978 44.3325,19.8125 C44.1508324,20.2575022 43.8950016,20.6424984 43.565,20.9675 C43.2349983,21.2925016 42.8375023,21.5458324 42.3725,21.7275 C41.9074977,21.9091676 41.3916695,22 40.825,22 L37.995,22 L37.995,14.715 L40.825,14.715 C41.3916695,14.715 41.9074977,14.8066658 42.3725,14.99 C42.8375023,15.1733342 43.2349983,15.4266651 43.565,15.75 C43.8950016,16.0733349 44.1508324,16.4574978 44.3325,16.9025 C44.5141676,17.3475022 44.605,17.8316641 44.605,18.355 Z M42.875,18.355 C42.875,17.9949982 42.8283338,17.6700015 42.735,17.38 C42.6416662,17.0899986 42.5075009,16.8441677 42.3325,16.6425 C42.1574991,16.4408323 41.9433346,16.2858339 41.69,16.1775 C41.4366654,16.0691661 41.1483349,16.015 40.825,16.015 L39.695,16.015 L39.695,20.7 L40.825,20.7 C41.1483349,20.7 41.4366654,20.6458339 41.69,20.5375 C41.9433346,20.4291661 42.1574991,20.2741677 42.3325,20.0725 C42.5075009,19.8708323 42.6416662,19.6250014 42.735,19.335 C42.8283338,19.0449986 42.875,18.7183352 42.875,18.355 Z M49.455,19.215 L48.78,17.22 C48.7299998,17.0933327 48.6766669,16.9441675 48.62,16.7725 C48.563333,16.6008325 48.5066669,16.415001 48.45,16.215 C48.3999997,16.4183343 48.3466669,16.6066658 48.29,16.78 C48.233333,16.9533342 48.1800002,17.1033327 48.13,17.23 L47.46,19.215 L49.455,19.215 Z M52.14,22 L50.83,22 C50.6833326,22 50.5650004,21.9658337 50.475,21.8975 C50.3849996,21.8291663 50.3166669,21.7416672 50.27,21.635 L49.84,20.365 L47.07,20.365 L46.64,21.635 C46.6033331,21.7283338 46.5375005,21.8124996 46.4425,21.8875 C46.3474995,21.9625004 46.2300007,22 46.09,22 L44.77,22 L47.59,14.715 L49.32,14.715 L52.14,22 Z M56.205,19.23 L56.205,22 L54.515,22 L54.515,19.23 L51.875,14.715 L53.365,14.715 C53.5116674,14.715 53.6274996,14.7491663 53.7125,14.8175 C53.7975004,14.8858337 53.8683331,14.9733328 53.925,15.08 L54.955,17.2 C55.0416671,17.3666675 55.1199996,17.5224993 55.19,17.6675 C55.2600003,17.8125007 55.3216664,17.9549993 55.375,18.095 C55.4250002,17.9516659 55.4824997,17.8075007 55.5475,17.6625 C55.6125003,17.5174993 55.6883329,17.3633342 55.775,17.2 L56.795,15.08 C56.8183334,15.0366665 56.8466665,14.9933336 56.88,14.95 C56.9133335,14.9066664 56.9524998,14.8675002 56.9975,14.8325 C57.0425002,14.7974998 57.0941664,14.7691668 57.1525,14.7475 C57.2108336,14.7258332 57.2749996,14.715 57.345,14.715 L58.845,14.715 L56.205,19.23 Z"></path>
                </g>
            </g>
        </g>
    </g>
</svg>