<?xml version="1.0" encoding="UTF-8"?>
<svg width="55px" height="60px" viewBox="0 0 55 60" version="1.1" xmlns="http://www.w3.org/2000/svg" xmlns:xlink="http://www.w3.org/1999/xlink">
    <!-- Generator: Sketch 47.1 (45422) - http://www.bohemiancoding.com/sketch -->
    <title>Artboard 3</title>
    <desc>Created with Sketch.</desc>
    <defs></defs>
    <g stroke="none" stroke-width="1" fill="none" fill-rule="evenodd">
        <g>
            <g transform="translate(0.000000, 37.000000)" fill="#65718B">
                <g>
                    <g>
                        <path d="M1.715,0.92 L4.095,0.92 C4.4350017,0.92 4.76333175,0.953333 5.08,1.02 C5.39666825,1.086667 5.6749988,1.19833255 5.915,1.355 C6.1550012,1.51166745 6.34666595,1.72166535 6.49,1.985 C6.63333405,2.24833465 6.705,2.5766647 6.705,2.97 C6.705,3.4166689 6.6283341,3.7766653 6.475,4.05 C6.3216659,4.3233347 6.1150013,4.53499925 5.855,4.685 C5.5949987,4.83500075 5.29333505,4.9366664 4.95,4.99 C4.60666495,5.0433336 4.2483352,5.07 3.875,5.07 L2.975,5.07 L2.975,8 L1.715,8 L1.715,0.92 Z M3.735,3.99 C3.9150009,3.99 4.1016657,3.9833334 4.295,3.97 C4.4883343,3.9566666 4.66666585,3.916667 4.83,3.85 C4.99333415,3.783333 5.12666615,3.683334 5.23,3.55 C5.33333385,3.416666 5.385,3.2300012 5.385,2.99 C5.385,2.7699989 5.3383338,2.59500065 5.245,2.465 C5.1516662,2.33499935 5.0316674,2.23500035 4.885,2.165 C4.7383326,2.09499965 4.5750009,2.0500001 4.395,2.03 C4.2149991,2.0099999 4.0416675,2 3.875,2 L2.975,2 L2.975,3.99 L3.735,3.99 Z M7.825,0.92 L9.085,0.92 L9.085,3.74 L12.395,3.74 L12.395,0.92 L13.655,0.92 L13.655,8 L12.395,8 L12.395,4.88 L9.085,4.88 L9.085,8 L7.825,8 L7.825,0.92 Z M16.965,4.97 L14.305,0.92 L15.885,0.92 L17.625,3.74 L19.385,0.92 L20.885,0.92 L18.225,4.97 L18.225,8 L16.965,8 L16.965,4.97 Z M25.005,2.44 C24.871666,2.2466657 24.6933345,2.10500045 24.47,2.015 C24.2466656,1.92499955 24.0116679,1.88 23.765,1.88 C23.6183326,1.88 23.4766674,1.8966665 23.34,1.93 C23.2033327,1.9633335 23.0800006,2.0166663 22.97,2.09 C22.8599995,2.1633337 22.771667,2.25833275 22.705,2.375 C22.638333,2.49166725 22.605,2.6299992 22.605,2.79 C22.605,3.0300012 22.6883325,3.2133327 22.855,3.34 C23.0216675,3.4666673 23.2283321,3.5766662 23.475,3.67 C23.7216679,3.7633338 23.9916652,3.8533329 24.285,3.94 C24.5783348,4.0266671 24.8483321,4.1466659 25.095,4.3 C25.3416679,4.4533341 25.5483325,4.6566654 25.715,4.91 C25.8816675,5.1633346 25.965,5.4999979 25.965,5.92 C25.965,6.3000019 25.8950007,6.63166525 25.755,6.915 C25.6149993,7.19833475 25.4266679,7.4333324 25.19,7.62 C24.9533322,7.8066676 24.6783349,7.9466662 24.365,8.04 C24.0516651,8.1333338 23.7216684,8.18 23.375,8.18 C22.9349978,8.18 22.5116687,8.1066674 22.105,7.96 C21.6983313,7.8133326 21.3483348,7.5666684 21.055,7.22 L22.005,6.3 C22.1583341,6.5333345 22.3599988,6.71499935 22.61,6.845 C22.8600013,6.97500065 23.1249986,7.04 23.405,7.04 C23.5516674,7.04 23.6983326,7.0200002 23.845,6.98 C23.9916674,6.9399998 24.1249994,6.8800004 24.245,6.8 C24.3650006,6.7199996 24.4616663,6.61833395 24.535,6.495 C24.6083337,6.37166605 24.645,6.2300008 24.645,6.07 C24.645,5.8099987 24.5616675,5.6100007 24.395,5.47 C24.2283325,5.3299993 24.0216679,5.21166715 23.775,5.115 C23.5283321,5.01833285 23.2583348,4.9266671 22.965,4.84 C22.6716652,4.7533329 22.4016679,4.63500075 22.155,4.485 C21.9083321,4.33499925 21.7016675,4.13500125 21.535,3.885 C21.3683325,3.63499875 21.285,3.3000021 21.285,2.88 C21.285,2.5133315 21.3599993,2.196668 21.51,1.93 C21.6600008,1.663332 21.8566655,1.44166755 22.1,1.265 C22.3433346,1.08833245 22.6216651,0.9566671 22.935,0.87 C23.2483349,0.7833329 23.5683317,0.74 23.895,0.74 C24.2683352,0.74 24.6299983,0.7966661 24.98,0.91 C25.3300018,1.0233339 25.6449986,1.2099987 25.925,1.47 L25.005,2.44 Z M27.245,0.92 L28.505,0.92 L28.505,8 L27.245,8 L27.245,0.92 Z M34.915,2.58 C34.6549987,2.2999986 34.4033346,2.1133338 34.16,2.02 C33.9166655,1.9266662 33.6716679,1.88 33.425,1.88 C33.0583315,1.88 32.7266681,1.94499935 32.43,2.075 C32.1333318,2.20500065 31.8783344,2.38499885 31.665,2.615 C31.4516656,2.84500115 31.2866673,3.1133318 31.17,3.42 C31.0533328,3.7266682 30.995,4.0566649 30.995,4.41 C30.995,4.7900019 31.0533328,5.1399984 31.17,5.46 C31.2866673,5.7800016 31.4516656,6.0566655 31.665,6.29 C31.8783344,6.5233345 32.1333318,6.706666 32.43,6.84 C32.7266681,6.973334 33.0583315,7.04 33.425,7.04 C33.7116681,7.04 33.9899987,6.97166735 34.26,6.835 C34.5300014,6.69833265 34.7816655,6.4800015 35.015,6.18 L36.055,6.92 C35.7349984,7.3600022 35.3450023,7.679999 34.885,7.88 C34.4249977,8.080001 33.9350026,8.18 33.415,8.18 C32.8683306,8.18 32.366669,8.09166755 31.91,7.915 C31.4533311,7.73833245 31.0600017,7.48833495 30.73,7.165 C30.3999984,6.84166505 30.1416676,6.4533356 29.955,6 C29.7683324,5.5466644 29.675,5.0433361 29.675,4.49 C29.675,3.9233305 29.7683324,3.40833565 29.955,2.945 C30.1416676,2.48166435 30.3999984,2.0866683 30.73,1.76 C31.0600017,1.4333317 31.4533311,1.18166755 31.91,1.005 C32.366669,0.82833245 32.8683306,0.74 33.415,0.74 C33.8950024,0.74 34.3399979,0.82499915 34.75,0.995 C35.1600021,1.16500085 35.5416649,1.4533313 35.895,1.86 L34.915,2.58 Z M36.875,0.92 L38.135,0.92 L38.135,8 L36.875,8 L36.875,0.92 Z M41.975,0.92 L43.065,0.92 L46.115,8 L44.675,8 L44.015,6.38 L40.945,6.38 L40.305,8 L38.895,8 L41.975,0.92 Z M43.575,5.3 L42.485,2.42 L41.375,5.3 L43.575,5.3 Z M46.905,0.92 L48.575,0.92 L52.005,6.18 L52.025,6.18 L52.025,0.92 L53.285,0.92 L53.285,8 L51.685,8 L48.185,2.57 L48.165,2.57 L48.165,8 L46.905,8 L46.905,0.92 Z M3.36,14.92 L4.45,14.92 L7.5,22 L6.06,22 L5.4,20.38 L2.33,20.38 L1.69,22 L0.28,22 L3.36,14.92 Z M4.96,19.3 L3.87,16.42 L2.76,19.3 L4.96,19.3 Z M8.29,14.92 L10.67,14.92 C11.0100017,14.92 11.3383318,14.953333 11.655,15.02 C11.9716683,15.086667 12.2499988,15.1983326 12.49,15.355 C12.7300012,15.5116675 12.921666,15.7216654 13.065,15.985 C13.2083341,16.2483346 13.28,16.5766647 13.28,16.97 C13.28,17.4166689 13.2033341,17.7766653 13.05,18.05 C12.8966659,18.3233347 12.6900013,18.5349993 12.43,18.685 C12.1699987,18.8350007 11.8683351,18.9366664 11.525,18.99 C11.181665,19.0433336 10.8233352,19.07 10.45,19.07 L9.55,19.07 L9.55,22 L8.29,22 L8.29,14.92 Z M10.31,17.99 C10.4900009,17.99 10.6766657,17.9833334 10.87,17.97 C11.0633343,17.9566666 11.2416659,17.916667 11.405,17.85 C11.5683342,17.783333 11.7016662,17.683334 11.805,17.55 C11.9083338,17.416666 11.96,17.2300012 11.96,16.99 C11.96,16.7699989 11.9133338,16.5950007 11.82,16.465 C11.7266662,16.3349994 11.6066674,16.2350004 11.46,16.165 C11.3133326,16.0949997 11.1500009,16.0500001 10.97,16.03 C10.7899991,16.0099999 10.6166675,16 10.45,16 L9.55,16 L9.55,17.99 L10.31,17.99 Z M14.4,14.92 L16.78,14.92 C17.1200017,14.92 17.4483317,14.953333 17.765,15.02 C18.0816683,15.086667 18.3599988,15.1983326 18.6,15.355 C18.8400012,15.5116675 19.031666,15.7216654 19.175,15.985 C19.3183341,16.2483346 19.39,16.5766647 19.39,16.97 C19.39,17.4166689 19.3133341,17.7766653 19.16,18.05 C19.0066659,18.3233347 18.8000013,18.5349993 18.54,18.685 C18.2799987,18.8350007 17.9783351,18.9366664 17.635,18.99 C17.291665,19.0433336 16.9333352,19.07 16.56,19.07 L15.66,19.07 L15.66,22 L14.4,22 L14.4,14.92 Z M16.42,17.99 C16.6000009,17.99 16.7866657,17.9833334 16.98,17.97 C17.1733343,17.9566666 17.3516659,17.916667 17.515,17.85 C17.6783342,17.783333 17.8116662,17.683334 17.915,17.55 C18.0183338,17.416666 18.07,17.2300012 18.07,16.99 C18.07,16.7699989 18.0233338,16.5950007 17.93,16.465 C17.8366662,16.3349994 17.7166674,16.2350004 17.57,16.165 C17.4233326,16.0949997 17.2600009,16.0500001 17.08,16.03 C16.8999991,16.0099999 16.7266675,16 16.56,16 L15.66,16 L15.66,17.99 L16.42,17.99 Z M20.51,14.92 L22.97,14.92 C23.3100017,14.92 23.6383318,14.9516664 23.955,15.015 C24.2716683,15.0783336 24.5533321,15.1866659 24.8,15.34 C25.0466679,15.4933341 25.2433326,15.6999987 25.39,15.96 C25.5366674,16.2200013 25.61,16.549998 25.61,16.95 C25.61,17.4633359 25.4683348,17.8933316 25.185,18.24 C24.9016653,18.5866684 24.4966693,18.7966663 23.97,18.87 L25.85,22 L24.33,22 L22.69,19 L21.77,19 L21.77,22 L20.51,22 L20.51,14.92 Z M22.75,17.92 C22.9300009,17.92 23.1099991,17.9116668 23.29,17.895 C23.4700009,17.8783333 23.6349992,17.8383337 23.785,17.775 C23.9350007,17.7116664 24.0566662,17.6150007 24.15,17.485 C24.2433338,17.3549994 24.29,17.1733345 24.29,16.94 C24.29,16.7333323 24.2466671,16.5666673 24.16,16.44 C24.0733329,16.3133327 23.9600007,16.2183337 23.82,16.155 C23.6799993,16.0916664 23.5250009,16.0500001 23.355,16.03 C23.1849991,16.0099999 23.0200008,16 22.86,16 L21.77,16 L21.77,17.92 L22.75,17.92 Z M26.43,18.49 C26.43,17.9233305 26.5233324,17.4083357 26.71,16.945 C26.8966676,16.4816644 27.1549983,16.0866683 27.485,15.76 C27.8150017,15.4333317 28.2083311,15.1816676 28.665,15.005 C29.121669,14.8283325 29.6233306,14.74 30.17,14.74 C30.7233361,14.7333333 31.2299977,14.8149992 31.69,14.985 C32.1500023,15.1550009 32.546665,15.4033317 32.88,15.73 C33.213335,16.0566683 33.4733324,16.4499977 33.66,16.91 C33.8466676,17.3700023 33.94,17.8833305 33.94,18.45 C33.94,19.0033361 33.8466676,19.5066644 33.66,19.96 C33.4733324,20.4133356 33.213335,20.8033317 32.88,21.13 C32.546665,21.4566683 32.1500023,21.7116658 31.69,21.895 C31.2299977,22.0783343 30.7233361,22.1733333 30.17,22.18 C29.6233306,22.18 29.121669,22.0916676 28.665,21.915 C28.2083311,21.7383325 27.8150017,21.488335 27.485,21.165 C27.1549983,20.8416651 26.8966676,20.4533356 26.71,20 C26.5233324,19.5466644 26.43,19.0433361 26.43,18.49 Z M27.75,18.41 C27.75,18.7900019 27.8083328,19.1399984 27.925,19.46 C28.0416672,19.7800016 28.2066656,20.0566655 28.42,20.29 C28.6333344,20.5233345 28.8883318,20.706666 29.185,20.84 C29.4816682,20.973334 29.8133315,21.04 30.18,21.04 C30.5466685,21.04 30.8799985,20.973334 31.18,20.84 C31.4800015,20.706666 31.7366656,20.5233345 31.95,20.29 C32.1633344,20.0566655 32.3283328,19.7800016 32.445,19.46 C32.5616672,19.1399984 32.62,18.7900019 32.62,18.41 C32.62,18.0566649 32.5616672,17.7266682 32.445,17.42 C32.3283328,17.1133318 32.1633344,16.8450012 31.95,16.615 C31.7366656,16.3849989 31.4800015,16.2050007 31.18,16.075 C30.8799985,15.9449994 30.5466685,15.88 30.18,15.88 C29.8133315,15.88 29.4816682,15.9449994 29.185,16.075 C28.8883318,16.2050007 28.6333344,16.3849989 28.42,16.615 C28.2066656,16.8450012 28.0416672,17.1133318 27.925,17.42 C27.8083328,17.7266682 27.75,18.0566649 27.75,18.41 Z M34.32,14.92 L35.77,14.92 L37.7,20.27 L39.69,14.92 L41.05,14.92 L38.19,22 L37.1,22 L34.32,14.92 Z M41.81,14.92 L46.5,14.92 L46.5,16.06 L43.07,16.06 L43.07,17.8 L46.32,17.8 L46.32,18.94 L43.07,18.94 L43.07,20.86 L46.68,20.86 L46.68,22 L41.81,22 L41.81,14.92 Z M47.92,14.92 L50.71,14.92 C51.176669,14.92 51.6266645,14.991666 52.06,15.135 C52.4933355,15.2783341 52.876665,15.4966652 53.21,15.79 C53.543335,16.0833348 53.809999,16.4516645 54.01,16.895 C54.210001,17.3383356 54.31,17.859997 54.31,18.46 C54.31,19.0666697 54.1950011,19.5916645 53.965,20.035 C53.7349989,20.4783356 53.4383352,20.8449986 53.075,21.135 C52.7116649,21.4250015 52.3083356,21.641666 51.865,21.785 C51.4216645,21.9283341 50.9866688,22 50.56,22 L47.92,22 L47.92,14.92 Z M50.12,20.86 C50.5133353,20.86 50.8849983,20.8150005 51.235,20.725 C51.5850018,20.6349996 51.8899987,20.4950009 52.15,20.305 C52.4100013,20.1149991 52.6149993,19.8683349 52.765,19.565 C52.9150008,19.2616652 52.99,18.8933355 52.99,18.46 C52.99,18.0333312 52.923334,17.6666682 52.79,17.36 C52.656666,17.0533318 52.4716679,16.805001 52.235,16.615 C51.9983322,16.4249991 51.718335,16.2850005 51.395,16.195 C51.0716651,16.1049996 50.7166686,16.06 50.33,16.06 L49.18,16.06 L49.18,20.86 L50.12,20.86 Z"></path>
                    </g>
                </g>
            </g>
            <g transform="translate(18.000000, 2.000000)"></g>
            <path d="M25.6898219,15.0758216 L37.6056198,0.323460709 C37.7284631,0.144779577 37.8848091,0.044271441 38.096993,0.0107687289 C38.3091768,-0.0227339832 38.4990255,0.0219362996 38.6665391,0.144779577 C38.8452202,0.267622855 38.9457283,0.423968845 38.979231,0.624985117 C39.0127338,0.82600139 38.9680635,1.01585009 38.8452202,1.18336365 C32.2340183,12.9763183 28.3700389,19.4535093 27.2421142,20.5926015 C25.8238328,22.010883 24.3943837,21.93271 22.9761022,20.3357474 L16.2420571,11.7702207 C16.0522084,11.5245341 15.9740354,11.2453449 16.0075381,10.9326529 C16.0410408,10.6199609 16.1750517,10.3631068 16.4207382,10.1732581 L18.2633874,8.72147388 C18.5090739,8.53162517 18.7882632,8.45345218 19.1009552,8.48695489 C19.4136472,8.5204576 19.6593337,8.66563602 19.8268473,8.90015501 L24.6959081,15.0423189 C24.8187514,15.1763297 24.986265,15.2545027 25.1872812,15.2545027 C25.3994651,15.2545027 25.5669786,15.1986649 25.6898219,15.0758216 Z" fill="#65718B" fill-rule="nonzero"></path>
        </g>
    </g>
</svg>