<svg xmlns="http://www.w3.org/2000/svg" xmlns:xlink="http://www.w3.org/1999/xlink" width="519" height="219" viewBox="0 0 519 219">
    <defs>
        <path id="a" d="M0 0s95.548 7.49 220.66 3.745C345.773 0 519 0 519 0s-15.822 70.779-12.695 105.409C509.432 140.039 519 219 519 219s-125.307-4.059-242.82-4.059c-117.514 0-274.806 2.045-274.806 2.045s11.62-68.492 11.405-102.504C12.563 80.47 0 0 0 0z"/>
    </defs>
    <g fill="none" fill-rule="evenodd">
        <use fill="#FFF" xlink:href="#a"/>
        <path stroke="#FFF" stroke-width="22" d="M12.906 11.893A2001.715 2001.715 0 0 1 17.3 43.706c.88 6.792 1.694 13.386 2.428 19.714 2.521 21.74 3.976 39.177 4.05 50.993.07 10.957-.992 25.62-2.951 43.187a998.223 998.223 0 0 1-2.848 22.95c-1.17 8.66-2.418 17.189-3.672 25.275a32114.006 32114.006 0 0 1 80.298-.86c37.023-.351 73.163-.63 107.115-.807 26.961-.142 51.916-.217 74.46-.217 6.794 0 13.71.014 20.738.04 46.047.175 95.326.897 144.982 1.992a9450.792 9450.792 0 0 1 64.657 1.645l-.617-5.187a8442.295 8442.295 0 0 1-5.439-46.975c-2.341-20.81-4.119-37.625-5.151-49.058-1.053-11.659-.245-27.137 2.018-45.705 1.112-9.122 2.55-18.747 4.236-28.649a804.633 804.633 0 0 1 3.873-21.026l-4.687.01c-14.494.035-30.646.098-48.041.196-49.697.28-99.392.785-145.766 1.57-31.472.532-60.327 1.178-85.994 1.946-64.105 1.918-125.237 1.129-179.849-1.355a1806.252 1806.252 0 0 1-28.234-1.492z"/>
    </g>
</svg>
