<svg xmlns="http://www.w3.org/2000/svg" xmlns:xlink="http://www.w3.org/1999/xlink" width="289" height="258" viewBox="0 0 289 258">
    <defs>
        <path id="a" d="M0 0s53.205 8.823 122.872 4.411C192.54 0 289 0 289 0s-8.81 83.383-7.069 124.18C283.672 164.978 289 258 289 258s-69.776-4.782-135.212-4.782c-65.436 0-153.023 2.41-153.023 2.41s6.47-80.69 6.35-120.759C6.996 94.8 0 0 0 0z"/>
    </defs>
    <g fill="none" fill-rule="evenodd">
        <use fill="#FFF" xlink:href="#a"/>
        <path stroke="#FFF" stroke-width="22" d="M11.931 12.694a4983.104 4983.104 0 0 1 2.607 39.788c.488 7.97.94 15.704 1.346 23.123 1.39 25.35 2.191 45.668 2.232 59.231.037 12.541-.545 29.552-1.621 49.972a2428.4 2428.4 0 0 1-1.576 26.86 3213.194 3213.194 0 0 1-2.257 32.649l2.542-.063c11.558-.283 24.138-.565 37.314-.829a6758.63 6758.63 0 0 1 59.718-.951c15.04-.167 28.966-.256 41.552-.256 3.805 0 7.678.016 11.613.048 25.756.207 53.297 1.06 81.044 2.355 11.097.518 21.479 1.072 30.87 1.627a23054.46 23054.46 0 0 1-3.105-56.334c-.14-2.584-.275-5.131-.409-7.639-1.3-24.463-2.288-44.227-2.86-57.626-.558-13.072-.12-30.834 1.112-52.212.612-10.617 1.404-21.84 2.334-33.393.784-9.742 1.623-19.19 2.463-28-7.517.043-15.79.114-24.645.22-27.613.329-55.224.922-80.974 1.844-17.456.624-33.452 1.382-47.663 2.282-36.159 2.29-70.622 1.347-101.435-1.617-3.618-.348-7.022-.71-10.202-1.08z"/>
    </g>
</svg>
