<svg xmlns="http://www.w3.org/2000/svg" width="36" height="40" viewBox="0 0 36 40">
    <g fill="#003BDE" fill-rule="nonzero">
        <path d="M16.43 35.349H0V0h18.096l8.88 8.959v14.153h-2.7v-13.03l-7.303-7.36H2.69v29.915h13.74z"/>
        <path d="M26.047 10.233h-9.303V.93h2.66v6.652h6.643zM13.023 40l1.454-7.28L28.33 18.842c1.554-1.557 4.261-1.557 5.815 0a4.056 4.056 0 0 1 1.203 2.912 4.097 4.097 0 0 1-1.203 2.912L20.29 38.544 13.023 40zm3.98-5.935l-.481 2.42 2.416-.482 13.273-13.295a1.36 1.36 0 0 0 .401-.974c0-.362-.14-.713-.401-.964a1.39 1.39 0 0 0-1.935 0L17.003 34.065zM5.581 13.953h15.814v2.791H5.581zM5.581 19.535h15.814v2.791H5.581z"/>
        <path d="M5.581 24.186h15.814v2.791H5.581z"/>
    </g>
</svg>
