<svg xmlns="http://www.w3.org/2000/svg" width="70" height="58" viewBox="0 0 70 58">
    <g fill="#65718B" fill-rule="evenodd">
        <path d="M13.375 37.58c-.26-.28-.512-.467-.755-.56a2.038 2.038 0 0 0-.735-.14c-.367 0-.698.065-.995.195-.297.13-.552.31-.765.54-.213.23-.378.498-.495.805a2.761 2.761 0 0 0-.175.99c0 .38.058.73.175 1.05.117.32.282.597.495.83.213.233.468.417.765.55.297.133.628.2.995.2.287 0 .565-.068.835-.205.27-.137.522-.355.755-.655l1.04.74c-.32.44-.71.76-1.17.96-.46.2-.95.3-1.47.3a4.138 4.138 0 0 1-1.505-.265 3.434 3.434 0 0 1-1.18-.75A3.446 3.446 0 0 1 8.415 41a3.93 3.93 0 0 1-.28-1.51 4.1 4.1 0 0 1 .28-1.545c.187-.463.445-.858.775-1.185.33-.327.723-.578 1.18-.755a4.138 4.138 0 0 1 1.505-.265c.48 0 .925.085 1.335.255.41.17.792.458 1.145.865l-.98.72zm7.66 2.82c0 .427-.073.812-.22 1.155a2.59 2.59 0 0 1-.6.875 2.64 2.64 0 0 1-.9.555c-.347.13-.723.195-1.13.195-.407 0-.783-.065-1.13-.195a2.694 2.694 0 0 1-.905-.555 2.498 2.498 0 0 1-.6-.875 2.972 2.972 0 0 1-.215-1.155v-4.48h1.26v4.44c0 .173.027.355.08.545.053.19.142.365.265.525.123.16.287.292.49.395.203.103.455.155.755.155s.552-.052.755-.155c.203-.103.367-.235.49-.395a1.53 1.53 0 0 0 .265-.525c.053-.19.08-.372.08-.545v-4.44h1.26v4.48zm5.02-2.96a1.162 1.162 0 0 0-.535-.425 1.868 1.868 0 0 0-1.13-.085c-.137.033-.26.087-.37.16a.836.836 0 0 0-.265.285.823.823 0 0 0-.1.415c0 .24.083.423.25.55.167.127.373.237.62.33.247.093.517.183.81.27.293.087.563.207.81.36.247.153.453.357.62.61.167.253.25.59.25 1.01 0 .38-.07.712-.21.995-.14.283-.328.518-.565.705a2.443 2.443 0 0 1-.825.42 3.45 3.45 0 0 1-.99.14c-.44 0-.863-.073-1.27-.22a2.447 2.447 0 0 1-1.05-.74l.95-.92c.153.233.355.415.605.545a1.7 1.7 0 0 0 1.235.135c.147-.04.28-.1.4-.18a.94.94 0 0 0 .29-.305.816.816 0 0 0 .11-.425c0-.26-.083-.46-.25-.6a2.208 2.208 0 0 0-.62-.355 9.959 9.959 0 0 0-.81-.275 3.411 3.411 0 0 1-.81-.355 1.97 1.97 0 0 1-.62-.6c-.167-.25-.25-.585-.25-1.005 0-.367.075-.683.225-.95.15-.267.347-.488.59-.665.243-.177.522-.308.835-.395a3.585 3.585 0 0 1 2.045.04c.35.113.665.3.945.56l-.92.97zm3.72-.38h-2.17v-1.14h5.6v1.14h-2.17V43h-1.26v-5.94zm3.91 2.43a4.1 4.1 0 0 1 .28-1.545c.187-.463.445-.858.775-1.185.33-.327.723-.578 1.18-.755a4.138 4.138 0 0 1 1.505-.265 4.206 4.206 0 0 1 1.52.245c.46.17.857.418 1.19.745.333.327.593.72.78 1.18.187.46.28.973.28 1.54a3.93 3.93 0 0 1-.28 1.51 3.463 3.463 0 0 1-.78 1.17c-.333.327-.73.582-1.19.765a4.21 4.21 0 0 1-1.52.285 4.138 4.138 0 0 1-1.505-.265 3.434 3.434 0 0 1-1.18-.75A3.446 3.446 0 0 1 33.965 41a3.93 3.93 0 0 1-.28-1.51zm1.32-.08c0 .38.058.73.175 1.05.117.32.282.597.495.83.213.233.468.417.765.55.297.133.628.2.995.2s.7-.067 1-.2c.3-.133.557-.317.77-.55.213-.233.378-.51.495-.83.117-.32.175-.67.175-1.05 0-.353-.058-.683-.175-.99a2.453 2.453 0 0 0-.495-.805c-.213-.23-.47-.41-.77-.54a2.49 2.49 0 0 0-1-.195c-.367 0-.698.065-.995.195-.297.13-.552.31-.765.54-.213.23-.378.498-.495.805a2.761 2.761 0 0 0-.175.99zm7.42-3.49h1.92l1.89 4.96 1.91-4.96h1.9V43h-1.2v-5.88h-.02L46.675 43h-.88l-2.15-5.88h-.02V43h-1.2v-7.08zm9.23 0h4.69v1.14h-3.43v1.74h3.25v1.14h-3.25v1.92h3.61V43h-4.87v-7.08zm6.11 0h2.46c.34 0 .668.032.985.095.317.063.598.172.845.325a1.7 1.7 0 0 1 .59.62c.147.26.22.59.22.99 0 .513-.142.943-.425 1.29-.283.347-.688.557-1.215.63l1.88 3.13h-1.52l-1.64-3h-.92v3h-1.26v-7.08zm2.24 3c.18 0 .36-.008.54-.025.18-.017.345-.057.495-.12a.845.845 0 0 0 .365-.29c.093-.13.14-.312.14-.545 0-.207-.043-.373-.13-.5a.808.808 0 0 0-.34-.285 1.565 1.565 0 0 0-.465-.125c-.17-.02-.335-.03-.495-.03h-1.09v1.92h.98zM4.575 51.44a1.162 1.162 0 0 0-.535-.425 1.868 1.868 0 0 0-1.13-.085c-.137.033-.26.087-.37.16a.836.836 0 0 0-.265.285.823.823 0 0 0-.1.415c0 .24.083.423.25.55.167.127.373.237.62.33.247.093.517.183.81.27.293.087.563.207.81.36.247.153.453.357.62.61.167.253.25.59.25 1.01 0 .38-.07.712-.21.995-.14.283-.328.518-.565.705a2.443 2.443 0 0 1-.825.42 3.45 3.45 0 0 1-.99.14c-.44 0-.863-.073-1.27-.22a2.447 2.447 0 0 1-1.05-.74l.95-.92c.153.233.355.415.605.545a1.7 1.7 0 0 0 1.235.135c.147-.04.28-.1.4-.18a.94.94 0 0 0 .29-.305.816.816 0 0 0 .11-.425c0-.26-.083-.46-.25-.6a2.208 2.208 0 0 0-.62-.355 9.959 9.959 0 0 0-.81-.275 3.411 3.411 0 0 1-.81-.355 1.97 1.97 0 0 1-.62-.6c-.167-.25-.25-.585-.25-1.005 0-.367.075-.683.225-.95.15-.267.347-.488.59-.665.243-.177.522-.308.835-.395a3.585 3.585 0 0 1 2.045.04c.35.113.665.3.945.56l-.92.97zm4.56-1.52h1.09l3.05 7.08h-1.44l-.66-1.62h-3.07L7.465 57h-1.41l3.08-7.08zm1.6 4.38l-1.09-2.88-1.11 2.88h2.2zm3.86-3.24h-2.17v-1.14h5.6v1.14h-2.17V57h-1.26v-5.94zm4.26-1.14h1.26V57h-1.26v-7.08zm6.28 1.52a1.162 1.162 0 0 0-.535-.425 1.868 1.868 0 0 0-1.13-.085c-.137.033-.26.087-.37.16a.836.836 0 0 0-.265.285.823.823 0 0 0-.1.415c0 .24.083.423.25.55.167.127.373.237.62.33.247.093.517.183.81.27.293.087.563.207.81.36.247.153.453.357.62.61.167.253.25.59.25 1.01 0 .38-.07.712-.21.995-.14.283-.328.518-.565.705a2.443 2.443 0 0 1-.825.42 3.45 3.45 0 0 1-.99.14c-.44 0-.863-.073-1.27-.22a2.447 2.447 0 0 1-1.05-.74l.95-.92c.153.233.355.415.605.545a1.7 1.7 0 0 0 1.235.135c.147-.04.28-.1.4-.18a.94.94 0 0 0 .29-.305.816.816 0 0 0 .11-.425c0-.26-.083-.46-.25-.6a2.208 2.208 0 0 0-.62-.355 9.959 9.959 0 0 0-.81-.275 3.411 3.411 0 0 1-.81-.355 1.97 1.97 0 0 1-.62-.6c-.167-.25-.25-.585-.25-1.005 0-.367.075-.683.225-.95.15-.267.347-.488.59-.665.243-.177.522-.308.835-.395a3.585 3.585 0 0 1 2.045.04c.35.113.665.3.945.56l-.92.97zm2.27-1.52h4.57v1.14h-3.31v1.86h3.12v1.14h-3.12V57h-1.26v-7.08zm7.48 0h1.09l3.05 7.08h-1.44l-.66-1.62h-3.07l-.64 1.62h-1.41l3.08-7.08zm1.6 4.38l-1.09-2.88-1.11 2.88h2.2zm8.19-2.72c-.26-.28-.512-.467-.755-.56a2.038 2.038 0 0 0-.735-.14c-.367 0-.698.065-.995.195-.297.13-.552.31-.765.54-.213.23-.378.498-.495.805a2.761 2.761 0 0 0-.175.99c0 .38.058.73.175 1.05.117.32.282.597.495.83.213.233.468.417.765.55.297.133.628.2.995.2.287 0 .565-.068.835-.205.27-.137.522-.355.755-.655l1.04.74c-.32.44-.71.76-1.17.96-.46.2-.95.3-1.47.3a4.138 4.138 0 0 1-1.505-.265 3.434 3.434 0 0 1-1.18-.75A3.446 3.446 0 0 1 39.715 55a3.93 3.93 0 0 1-.28-1.51 4.1 4.1 0 0 1 .28-1.545c.187-.463.445-.858.775-1.185.33-.327.723-.578 1.18-.755a4.138 4.138 0 0 1 1.505-.265c.48 0 .925.085 1.335.255.41.17.792.458 1.145.865l-.98.72zm3.44-.52h-2.17v-1.14h5.6v1.14h-2.17V57h-1.26v-5.94zm4.26-1.14h1.26V57h-1.26v-7.08zm2.43 3.57a4.1 4.1 0 0 1 .28-1.545c.187-.463.445-.858.775-1.185.33-.327.723-.578 1.18-.755a4.138 4.138 0 0 1 1.505-.265 4.206 4.206 0 0 1 1.52.245c.46.17.857.418 1.19.745.333.327.593.72.78 1.18.187.46.28.973.28 1.54a3.93 3.93 0 0 1-.28 1.51 3.463 3.463 0 0 1-.78 1.17c-.333.327-.73.582-1.19.765a4.21 4.21 0 0 1-1.52.285 4.138 4.138 0 0 1-1.505-.265 3.434 3.434 0 0 1-1.18-.75A3.446 3.446 0 0 1 55.085 55a3.93 3.93 0 0 1-.28-1.51zm1.32-.08c0 .38.058.73.175 1.05.117.32.282.597.495.83.213.233.468.417.765.55.297.133.628.2.995.2s.7-.067 1-.2c.3-.133.557-.317.77-.55.213-.233.378-.51.495-.83.117-.32.175-.67.175-1.05 0-.353-.058-.683-.175-.99a2.453 2.453 0 0 0-.495-.805c-.213-.23-.47-.41-.77-.54a2.49 2.49 0 0 0-1-.195c-.367 0-.698.065-.995.195-.297.13-.552.31-.765.54-.213.23-.378.498-.495.805a2.761 2.761 0 0 0-.175.99zm7.39-3.49h1.67l3.43 5.26h.02v-5.26h1.26V57h-1.6l-3.5-5.43h-.02V57h-1.26v-7.08zM14.889 22l4.76-7.336-.056-.056c-.205.112-.48.196-.826.252a6.377 6.377 0 0 1-1.022.084c-.877 0-1.68-.168-2.408-.504a5.895 5.895 0 0 1-1.89-1.372 6.169 6.169 0 0 1-1.232-2.016 6.83 6.83 0 0 1-.434-2.436c0-1.027.177-1.96.532-2.8a6.218 6.218 0 0 1 1.47-2.142 6.467 6.467 0 0 1 2.24-1.358 8.134 8.134 0 0 1 2.814-.476c1.027 0 1.974.154 2.842.462a6.408 6.408 0 0 1 2.24 1.33 5.922 5.922 0 0 1 1.456 2.128c.345.84.518 1.783.518 2.828s-.173 1.993-.518 2.842c-.345.85-.789 1.713-1.33 2.59L18.977 22h-4.088zm7.476-13.356a3.598 3.598 0 0 0-1.05-2.562 3.598 3.598 0 0 0-2.562-1.05 3.598 3.598 0 0 0-2.562 1.05 3.598 3.598 0 0 0-1.05 2.562 3.598 3.598 0 0 0 1.05 2.562 3.598 3.598 0 0 0 2.562 1.05 3.598 3.598 0 0 0 2.562-1.05 3.598 3.598 0 0 0 1.05-2.562zM35.413 1.84c.84 0 1.629.117 2.366.35.737.233 1.381.57 1.932 1.008.55.439.985.98 1.302 1.624.317.644.476 1.386.476 2.226 0 1.064-.247 1.997-.742 2.8-.495.803-1.246 1.353-2.254 1.652v.056c.467.093.92.285 1.358.574.439.29.826.644 1.162 1.064a5.06 5.06 0 0 1 1.092 3.178c0 .99-.177 1.853-.532 2.59a5.548 5.548 0 0 1-1.428 1.862 5.972 5.972 0 0 1-2.128 1.134 8.83 8.83 0 0 1-2.604.378 8.788 8.788 0 0 1-2.618-.378 5.987 5.987 0 0 1-2.114-1.134 5.548 5.548 0 0 1-1.428-1.862c-.355-.737-.532-1.6-.532-2.59a5.06 5.06 0 0 1 1.092-3.178c.336-.42.723-.775 1.162-1.064.439-.29.891-.48 1.358-.574V11.5c-1.008-.299-1.76-.85-2.254-1.652-.495-.803-.742-1.736-.742-2.8 0-.84.159-1.582.476-2.226a4.71 4.71 0 0 1 1.302-1.624 5.945 5.945 0 0 1 1.932-1.008 7.799 7.799 0 0 1 2.366-.35zm0 2.856c-.859 0-1.526.261-2.002.784-.476.523-.714 1.157-.714 1.904 0 .784.243 1.442.728 1.974s1.148.798 1.988.798c.373 0 .723-.07 1.05-.21a2.747 2.747 0 0 0 1.456-1.47c.14-.336.21-.7.21-1.092 0-.747-.257-1.381-.77-1.904-.513-.523-1.162-.784-1.946-.784zm0 8.148a3.74 3.74 0 0 0-1.288.224 3.068 3.068 0 0 0-1.778 1.638 2.927 2.927 0 0 0-.266 1.246c0 .952.313 1.722.938 2.31.625.588 1.423.882 2.394.882.97 0 1.769-.294 2.394-.882.625-.588.938-1.358.938-2.31 0-.448-.089-.863-.266-1.246a3.068 3.068 0 0 0-1.778-1.638 3.74 3.74 0 0 0-1.288-.224zM53.37 4.064a3.231 3.231 0 0 1-.954 2.335 3.117 3.117 0 0 1-2.196.896c-.456 0-.874-.078-1.255-.234a2.913 2.913 0 0 1-1.643-1.683 3.556 3.556 0 0 1-.234-1.314c0-.498.078-.95.234-1.355.156-.405.373-.751.652-1.039.28-.288.61-.511.99-.67.382-.16.8-.239 1.256-.239.456 0 .877.08 1.264.239.388.159.72.382 1 .67.279.288.496.634.652 1.04.156.405.234.856.234 1.354zm-2.142 0c0-.306-.025-.56-.077-.76a1.354 1.354 0 0 0-.211-.482.73.73 0 0 0-.32-.252 1.092 1.092 0 0 0-.4-.072c-.144 0-.276.024-.396.072a.682.682 0 0 0-.306.252c-.084.12-.15.28-.198.482a3.35 3.35 0 0 0-.072.76c0 .288.024.528.072.72.048.192.114.345.198.459a.7.7 0 0 0 .306.243c.12.048.252.072.396.072.144 0 .277-.024.4-.072a.754.754 0 0 0 .32-.243c.09-.114.16-.267.212-.459.05-.192.076-.432.076-.72zm6.264-2.763c.09-.102.201-.196.333-.283.132-.088.315-.131.549-.131h2.034l-9.882 12.717a.996.996 0 0 1-.828.396H47.61l9.882-12.699zm3.42 9.621a3.263 3.263 0 0 1-.954 2.345 3.117 3.117 0 0 1-2.196.896c-.456-.001-.874-.079-1.255-.235a2.913 2.913 0 0 1-1.643-1.688 3.592 3.592 0 0 1-.234-1.318c0-.498.078-.95.234-1.354a2.936 2.936 0 0 1 1.643-1.71c.38-.16.799-.239 1.255-.239.456 0 .877.08 1.264.239.388.159.72.382 1 .67.279.288.496.634.652 1.04.156.405.234.856.234 1.354zm-2.142 0c0-.3-.025-.55-.077-.752a1.354 1.354 0 0 0-.211-.481.73.73 0 0 0-.32-.252 1.092 1.092 0 0 0-.4-.072c-.144 0-.276.024-.396.072a.682.682 0 0 0-.306.252c-.084.12-.15.28-.198.482a3.302 3.302 0 0 0-.072.751c0 .288.024.528.072.72.048.192.114.345.198.459a.7.7 0 0 0 .306.243c.12.048.252.072.396.072.144 0 .277-.024.4-.072a.754.754 0 0 0 .32-.243c.09-.114.16-.267.212-.459.05-.192.076-.432.076-.72z"/>
    </g>
</svg>
