<svg xmlns="http://www.w3.org/2000/svg" width="92" height="60" viewBox="0 0 92 60">
    <g fill="#65718B" fill-rule="evenodd">
        <path d="M24.55 39.58c-.26-.28-.512-.467-.755-.56a2.038 2.038 0 0 0-.735-.14c-.367 0-.698.065-.995.195-.297.13-.552.31-.765.54-.213.23-.378.498-.495.805a2.761 2.761 0 0 0-.175.99c0 .38.058.73.175 1.05.117.32.282.597.495.83.213.233.468.417.765.55.297.133.628.2.995.2.287 0 .565-.068.835-.205.27-.137.522-.355.755-.655l1.04.74c-.32.44-.71.76-1.17.96-.46.2-.95.3-1.47.3a4.138 4.138 0 0 1-1.505-.265 3.434 3.434 0 0 1-1.18-.75A3.446 3.446 0 0 1 19.59 43a3.93 3.93 0 0 1-.28-1.51 4.1 4.1 0 0 1 .28-1.545c.187-.463.445-.858.775-1.185.33-.327.723-.578 1.18-.755a4.138 4.138 0 0 1 1.505-.265c.48 0 .925.085 1.335.255.41.17.792.458 1.145.865l-.98.72zm1.99-1.66h1.26v5.94h3.01V45h-4.27v-7.08zm5.16 0h1.26V45H31.7v-7.08zm2.81 0h1.67l3.43 5.26h.02v-5.26h1.26V45h-1.6l-3.5-5.43h-.02V45h-1.26v-7.08zm7.93 0h1.26V45h-1.26v-7.08zm7.67 1.66c-.26-.28-.512-.467-.755-.56a2.038 2.038 0 0 0-.735-.14c-.367 0-.698.065-.995.195-.297.13-.552.31-.765.54-.213.23-.378.498-.495.805a2.761 2.761 0 0 0-.175.99c0 .38.058.73.175 1.05.117.32.282.597.495.83.213.233.468.417.765.55.297.133.628.2.995.2.287 0 .565-.068.835-.205.27-.137.522-.355.755-.655l1.04.74c-.32.44-.71.76-1.17.96-.46.2-.95.3-1.47.3a4.138 4.138 0 0 1-1.505-.265 3.434 3.434 0 0 1-1.18-.75A3.446 3.446 0 0 1 45.15 43a3.93 3.93 0 0 1-.28-1.51 4.1 4.1 0 0 1 .28-1.545c.187-.463.445-.858.775-1.185.33-.327.723-.578 1.18-.755a4.138 4.138 0 0 1 1.505-.265c.48 0 .925.085 1.335.255.41.17.792.458 1.145.865l-.98.72zm4.28-1.66h1.09L58.53 45h-1.44l-.66-1.62h-3.07L52.72 45h-1.41l3.08-7.08zm1.6 4.38l-1.09-2.88-1.11 2.88h2.2zm3.33-4.38h1.26v5.94h3.01V45h-4.27v-7.08zm5.19 0h1.26v5.94h3.01V45h-4.27v-7.08zm5.81 4.05l-2.66-4.05h1.58l1.74 2.82 1.76-2.82h1.5l-2.66 4.05V45h-1.26v-3.03zM3.1 53.06H.93v-1.14h5.6v1.14H4.36V59H3.1v-5.94zm4.29-1.14h4.69v1.14H8.65v1.74h3.25v1.14H8.65v1.92h3.61V59H7.39v-7.08zm9.58 1.52a1.162 1.162 0 0 0-.535-.425 1.868 1.868 0 0 0-1.13-.085c-.137.033-.26.087-.37.16a.836.836 0 0 0-.265.285.823.823 0 0 0-.1.415c0 .24.083.423.25.55.167.127.373.237.62.33.247.093.517.183.81.27.293.087.563.207.81.36.247.153.453.357.62.61.167.253.25.59.25 1.01 0 .38-.07.712-.21.995-.14.283-.328.518-.565.705a2.443 2.443 0 0 1-.825.42 3.45 3.45 0 0 1-.99.14c-.44 0-.863-.073-1.27-.22a2.447 2.447 0 0 1-1.05-.74l.95-.92c.153.233.355.415.605.545a1.7 1.7 0 0 0 1.235.135c.147-.04.28-.1.4-.18a.94.94 0 0 0 .29-.305.816.816 0 0 0 .11-.425c0-.26-.083-.46-.25-.6a2.208 2.208 0 0 0-.62-.355 9.959 9.959 0 0 0-.81-.275 3.411 3.411 0 0 1-.81-.355 1.97 1.97 0 0 1-.62-.6c-.167-.25-.25-.585-.25-1.005 0-.367.075-.683.225-.95.15-.267.347-.488.59-.665.243-.177.522-.308.835-.395a3.585 3.585 0 0 1 2.045.04c.35.113.665.3.945.56l-.92.97zm3.72-.38h-2.17v-1.14h5.6v1.14h-2.17V59h-1.26v-5.94zm4.29-1.14h4.69v1.14h-3.43v1.74h3.25v1.14h-3.25v1.92h3.61V59h-4.87v-7.08zm6.11 0h2.79c.467 0 .917.072 1.35.215a3.28 3.28 0 0 1 1.15.655c.333.293.6.662.8 1.105.2.443.3.965.3 1.565 0 .607-.115 1.132-.345 1.575-.23.443-.527.81-.89 1.1-.363.29-.767.507-1.21.65A4.227 4.227 0 0 1 33.73 59h-2.64v-7.08zm2.2 5.94c.393 0 .765-.045 1.115-.135.35-.09.655-.23.915-.42.26-.19.465-.437.615-.74.15-.303.225-.672.225-1.105 0-.427-.067-.793-.2-1.1a1.913 1.913 0 0 0-.555-.745 2.316 2.316 0 0 0-.84-.42 3.963 3.963 0 0 0-1.065-.135h-1.15v4.8h.94zm11.82-4.42a1.162 1.162 0 0 0-.535-.425 1.868 1.868 0 0 0-1.13-.085c-.137.033-.26.087-.37.16a.836.836 0 0 0-.265.285.823.823 0 0 0-.1.415c0 .24.083.423.25.55.167.127.373.237.62.33.247.093.517.183.81.27.293.087.563.207.81.36.247.153.453.357.62.61.167.253.25.59.25 1.01 0 .38-.07.712-.21.995-.14.283-.328.518-.565.705a2.443 2.443 0 0 1-.825.42 3.45 3.45 0 0 1-.99.14c-.44 0-.863-.073-1.27-.22a2.447 2.447 0 0 1-1.05-.74l.95-.92c.153.233.355.415.605.545a1.7 1.7 0 0 0 1.235.135c.147-.04.28-.1.4-.18a.94.94 0 0 0 .29-.305.816.816 0 0 0 .11-.425c0-.26-.083-.46-.25-.6a2.208 2.208 0 0 0-.62-.355 9.959 9.959 0 0 0-.81-.275 3.411 3.411 0 0 1-.81-.355 1.97 1.97 0 0 1-.62-.6c-.167-.25-.25-.585-.25-1.005 0-.367.075-.683.225-.95.15-.267.347-.488.59-.665.243-.177.522-.308.835-.395a3.585 3.585 0 0 1 2.045.04c.35.113.665.3.945.56l-.92.97zM47 55.49a4.1 4.1 0 0 1 .28-1.545c.187-.463.445-.858.775-1.185.33-.327.723-.578 1.18-.755a4.138 4.138 0 0 1 1.505-.265 4.206 4.206 0 0 1 1.52.245c.46.17.857.418 1.19.745.333.327.593.72.78 1.18.187.46.28.973.28 1.54a3.93 3.93 0 0 1-.28 1.51 3.463 3.463 0 0 1-.78 1.17c-.333.327-.73.582-1.19.765a4.21 4.21 0 0 1-1.52.285 4.138 4.138 0 0 1-1.505-.265 3.434 3.434 0 0 1-1.18-.75A3.446 3.446 0 0 1 47.28 57a3.93 3.93 0 0 1-.28-1.51zm1.32-.08c0 .38.058.73.175 1.05.117.32.282.597.495.83.213.233.468.417.765.55.297.133.628.2.995.2s.7-.067 1-.2c.3-.133.557-.317.77-.55.213-.233.378-.51.495-.83.117-.32.175-.67.175-1.05 0-.353-.058-.683-.175-.99a2.453 2.453 0 0 0-.495-.805c-.213-.23-.47-.41-.77-.54a2.49 2.49 0 0 0-1-.195c-.367 0-.698.065-.995.195-.297.13-.552.31-.765.54-.213.23-.378.498-.495.805a2.761 2.761 0 0 0-.175.99zm7.39-3.49h1.26v5.94h3.01V59h-4.27v-7.08zm10.86 4.48c0 .427-.073.812-.22 1.155a2.59 2.59 0 0 1-.6.875 2.64 2.64 0 0 1-.9.555c-.347.13-.723.195-1.13.195-.407 0-.783-.065-1.13-.195a2.694 2.694 0 0 1-.905-.555 2.498 2.498 0 0 1-.6-.875 2.972 2.972 0 0 1-.215-1.155v-4.48h1.26v4.44c0 .173.027.355.08.545.053.19.142.365.265.525.123.16.287.292.49.395.203.103.455.155.755.155s.552-.052.755-.155c.203-.103.367-.235.49-.395a1.53 1.53 0 0 0 .265-.525c.053-.19.08-.372.08-.545v-4.44h1.26v4.48zm3-3.34H67.4v-1.14H73v1.14h-2.17V59h-1.26v-5.94zm4.26-1.14h1.26V59h-1.26v-7.08zm2.43 3.57a4.1 4.1 0 0 1 .28-1.545c.187-.463.445-.858.775-1.185.33-.327.723-.578 1.18-.755A4.138 4.138 0 0 1 80 51.74a4.206 4.206 0 0 1 1.52.245c.46.17.857.418 1.19.745.333.327.593.72.78 1.18.187.46.28.973.28 1.54a3.93 3.93 0 0 1-.28 1.51 3.463 3.463 0 0 1-.78 1.17c-.333.327-.73.582-1.19.765a4.21 4.21 0 0 1-1.52.285 4.138 4.138 0 0 1-1.505-.265 3.434 3.434 0 0 1-1.18-.75A3.446 3.446 0 0 1 76.54 57a3.93 3.93 0 0 1-.28-1.51zm1.32-.08c0 .38.058.73.175 1.05.117.32.282.597.495.83.213.233.468.417.765.55.297.133.628.2.995.2s.7-.067 1-.2c.3-.133.557-.317.77-.55.213-.233.378-.51.495-.83.117-.32.175-.67.175-1.05 0-.353-.058-.683-.175-.99a2.453 2.453 0 0 0-.495-.805c-.213-.23-.47-.41-.77-.54a2.49 2.49 0 0 0-1-.195c-.367 0-.698.065-.995.195-.297.13-.552.31-.765.54-.213.23-.378.498-.495.805a2.761 2.761 0 0 0-.175.99zm7.39-3.49h1.67l3.43 5.26h.02v-5.26h1.26V59h-1.6l-3.5-5.43h-.02V59h-1.26v-7.08zM43.12 8.88V.96h6.32v7.92h8.24v6h-8.16v7.92H43.2v-7.92h-8.24v-6z"/>
    </g>
</svg>
