<svg xmlns="http://www.w3.org/2000/svg" width="40" height="40" viewBox="0 0 40 40">
    <g fill="#003BDE" fill-rule="nonzero">
        <path d="M38.167 1.667H30C30 .667 29.333 0 28.333 0s-1.666.667-1.666 1.667H13.333c0-1-.666-1.667-1.666-1.667-1 0-1.667.667-1.667 1.667H1.833C.833 1.667 0 2.5 0 3.5v34.667C0 39.167.833 40 1.833 40h36.334c1 0 1.833-.833 1.833-1.833V3.5c0-1-.833-1.833-1.833-1.833zm-1.5 35H3.333V13.333h33.334v23.334zm0-25H3.333V5H10v1.667c0 1 .667 1.666 1.667 1.666s1.666-.666 1.666-1.666V5h13.334v1.667c0 1 .666 1.666 1.666 1.666 1 0 1.667-.666 1.667-1.666V5h6.667v6.667z"/>
        <path d="M17.167 29.5c.666.667 1.666.667 2.333 0l6.833-6.833C27 22 27 21 26.333 20.333c-.666-.666-1.666-.666-2.333 0l-5.667 5.834L16 23.833c-.667-.666-1.667-.666-2.333 0-.667.667-.667 1.667 0 2.334l3.5 3.333z"/>
    </g>
</svg>
