<svg xmlns="http://www.w3.org/2000/svg" width="70" height="59" viewBox="0 0 70 59">
    <g fill="#65718B" fill-rule="evenodd">
        <path d="M1.66 36.92h1.92l1.89 4.96 1.91-4.96h1.9V44h-1.2v-5.88h-.02L5.91 44h-.88l-2.15-5.88h-.02V44h-1.2v-7.08zm8.85 3.57a4.1 4.1 0 0 1 .28-1.545c.187-.463.445-.858.775-1.185.33-.327.723-.578 1.18-.755a4.138 4.138 0 0 1 1.505-.265 4.206 4.206 0 0 1 1.52.245c.46.17.857.418 1.19.745.333.327.593.72.78 1.18.187.46.28.973.28 1.54a3.93 3.93 0 0 1-.28 1.51 3.463 3.463 0 0 1-.78 1.17c-.333.327-.73.582-1.19.765a4.21 4.21 0 0 1-1.52.285 4.138 4.138 0 0 1-1.505-.265 3.434 3.434 0 0 1-1.18-.75A3.446 3.446 0 0 1 10.79 42a3.93 3.93 0 0 1-.28-1.51zm1.32-.08c0 .38.058.73.175 1.05.117.32.282.597.495.83.213.233.468.417.765.55.297.133.628.2.995.2s.7-.067 1-.2c.3-.133.557-.317.77-.55.213-.233.378-.51.495-.83.117-.32.175-.67.175-1.05 0-.353-.058-.683-.175-.99a2.453 2.453 0 0 0-.495-.805c-.213-.23-.47-.41-.77-.54a2.49 2.49 0 0 0-1-.195c-.367 0-.698.065-.995.195-.297.13-.552.31-.765.54-.213.23-.378.498-.495.805a2.761 2.761 0 0 0-.175.99zm7.39-3.49h1.67l3.43 5.26h.02v-5.26h1.26V44H24l-3.5-5.43h-.02V44h-1.26v-7.08zm7.96 0h4.69v1.14h-3.43v1.74h3.25v1.14h-3.25v1.92h3.61V44h-4.87v-7.08zm7.84 4.05l-2.66-4.05h1.58l1.74 2.82 1.76-2.82h1.5l-2.66 4.05V44h-1.26v-3.03zm7.53-4.05h2.76c.267 0 .53.032.79.095s.492.167.695.31c.203.143.368.328.495.555.127.227.19.5.19.82 0 .4-.113.73-.34.99a1.89 1.89 0 0 1-.89.56v.02c.22.027.425.088.615.185a1.63 1.63 0 0 1 .8.89c.077.197.115.408.115.635 0 .387-.077.708-.23.965a1.825 1.825 0 0 1-.605.62c-.25.157-.537.268-.86.335-.323.067-.652.1-.985.1h-2.55v-7.08zm1.26 2.88h1.15c.42 0 .735-.082.945-.245a.778.778 0 0 0 .315-.645c0-.307-.108-.535-.325-.685-.217-.15-.565-.225-1.045-.225h-1.04v1.8zm0 3.12h1.16c.16 0 .332-.01.515-.03.183-.02.352-.067.505-.14a.996.996 0 0 0 .38-.315c.1-.137.15-.322.15-.555 0-.373-.122-.633-.365-.78-.243-.147-.622-.22-1.135-.22h-1.21v2.04zm7.51-6h1.09L55.46 44h-1.44l-.66-1.62h-3.07L49.65 44h-1.41l3.08-7.08zm1.6 4.38l-1.09-2.88-1.11 2.88h2.2zm8.19-2.72c-.26-.28-.512-.467-.755-.56a2.038 2.038 0 0 0-.735-.14c-.367 0-.698.065-.995.195-.297.13-.552.31-.765.54-.213.23-.378.498-.495.805a2.761 2.761 0 0 0-.175.99c0 .38.058.73.175 1.05.117.32.282.597.495.83.213.233.468.417.765.55.297.133.628.2.995.2.287 0 .565-.068.835-.205.27-.137.522-.355.755-.655l1.04.74c-.32.44-.71.76-1.17.96-.46.2-.95.3-1.47.3a4.138 4.138 0 0 1-1.505-.265 3.434 3.434 0 0 1-1.18-.75A3.446 3.446 0 0 1 56.15 42a3.93 3.93 0 0 1-.28-1.51 4.1 4.1 0 0 1 .28-1.545c.187-.463.445-.858.775-1.185.33-.327.723-.578 1.18-.755a4.138 4.138 0 0 1 1.505-.265c.48 0 .925.085 1.335.255.41.17.792.458 1.145.865l-.98.72zm1.99-1.66h1.26v3h.06l2.93-3h1.7l-3.31 3.27L69.27 44H67.5l-3.07-3.48h-.07V44H63.1v-7.08zM7.455 57.48c-.873.467-1.85.7-2.93.7a4.138 4.138 0 0 1-1.505-.265 3.434 3.434 0 0 1-1.18-.75A3.446 3.446 0 0 1 1.065 56a3.93 3.93 0 0 1-.28-1.51 4.1 4.1 0 0 1 .28-1.545c.187-.463.445-.858.775-1.185.33-.327.723-.578 1.18-.755a4.138 4.138 0 0 1 1.505-.265c.54 0 1.047.065 1.52.195.473.13.897.362 1.27.695l-.93.94a2.332 2.332 0 0 0-.825-.51 2.922 2.922 0 0 0-1.025-.18c-.367 0-.698.065-.995.195-.297.13-.552.31-.765.54-.213.23-.378.498-.495.805a2.761 2.761 0 0 0-.175.99c0 .38.058.73.175 1.05.117.32.282.597.495.83.213.233.468.417.765.55.297.133.628.2.995.2.32 0 .622-.03.905-.09a2.57 2.57 0 0 0 .755-.28V55h-1.45v-1.14h2.71v3.62zm7.16-2.08c0 .427-.073.812-.22 1.155a2.59 2.59 0 0 1-.6.875 2.64 2.64 0 0 1-.9.555c-.347.13-.723.195-1.13.195-.407 0-.783-.065-1.13-.195a2.694 2.694 0 0 1-.905-.555 2.498 2.498 0 0 1-.6-.875 2.972 2.972 0 0 1-.215-1.155v-4.48h1.26v4.44c0 .173.027.355.08.545.053.19.142.365.265.525.123.16.287.292.49.395.203.103.455.155.755.155s.552-.052.755-.155c.203-.103.367-.235.49-.395a1.53 1.53 0 0 0 .265-.525c.053-.19.08-.372.08-.545v-4.44h1.26v4.48zm3.84-4.48h1.09l3.05 7.08h-1.44l-.66-1.62h-3.07l-.64 1.62h-1.41l3.08-7.08zm1.6 4.38l-1.09-2.88-1.11 2.88h2.2zm3.33-4.38h2.46c.34 0 .668.032.985.095.317.063.598.172.845.325a1.7 1.7 0 0 1 .59.62c.147.26.22.59.22.99 0 .513-.142.943-.425 1.29-.283.347-.688.557-1.215.63l1.88 3.13h-1.52l-1.64-3h-.92v3h-1.26v-7.08zm2.24 3c.18 0 .36-.008.54-.025.18-.017.345-.057.495-.12a.845.845 0 0 0 .365-.29c.093-.13.14-.312.14-.545 0-.207-.043-.373-.13-.5a.808.808 0 0 0-.34-.285 1.565 1.565 0 0 0-.465-.125c-.17-.02-.335-.03-.495-.03h-1.09v1.92h.98zm6.35-3h1.09l3.05 7.08h-1.44l-.66-1.62h-3.07l-.64 1.62h-1.41l3.08-7.08zm1.6 4.38l-1.09-2.88-1.11 2.88h2.2zm3.33-4.38h1.67l3.43 5.26h.02v-5.26h1.26V58h-1.6l-3.5-5.43h-.02V58h-1.26v-7.08zm9.41 1.14h-2.17v-1.14h5.6v1.14h-2.17V58h-1.26v-5.94zm4.29-1.14h4.69v1.14h-3.43v1.74h3.25v1.14h-3.25v1.92h3.61V58h-4.87v-7.08zm6.11 0h4.69v1.14h-3.43v1.74h3.25v1.14h-3.25v1.92h3.61V58h-4.87v-7.08zm6.11 0h2.79c.467 0 .917.072 1.35.215a3.28 3.28 0 0 1 1.15.655c.333.293.6.662.8 1.105.2.443.3.965.3 1.565 0 .607-.115 1.132-.345 1.575-.23.443-.527.81-.89 1.1-.363.29-.767.507-1.21.65a4.227 4.227 0 0 1-1.305.215h-2.64v-7.08zm2.2 5.94c.393 0 .765-.045 1.115-.135.35-.09.655-.23.915-.42.26-.19.465-.437.615-.74.15-.303.225-.672.225-1.105 0-.427-.067-.793-.2-1.1a1.913 1.913 0 0 0-.555-.745 2.316 2.316 0 0 0-.84-.42 3.963 3.963 0 0 0-1.065-.135h-1.15v4.8h.94zM17.16 1.176L12.4 8.512l.056.056c.205-.112.48-.196.826-.252a6.377 6.377 0 0 1 1.022-.084c.877 0 1.68.168 2.408.504a5.895 5.895 0 0 1 1.89 1.372c.532.579.943 1.25 1.232 2.016a6.83 6.83 0 0 1 .434 2.436c0 1.027-.177 1.96-.532 2.8a6.218 6.218 0 0 1-1.47 2.142 6.467 6.467 0 0 1-2.24 1.358 8.134 8.134 0 0 1-2.814.476c-1.045 0-1.997-.154-2.856-.462a6.43 6.43 0 0 1-2.226-1.33 5.922 5.922 0 0 1-1.456-2.128c-.345-.84-.518-1.783-.518-2.828s.173-1.993.518-2.842c.345-.85.789-1.713 1.33-2.59l5.068-7.98h4.088zM9.684 14.532a3.598 3.598 0 0 0 1.05 2.562 3.598 3.598 0 0 0 2.562 1.05 3.598 3.598 0 0 0 2.562-1.05 3.598 3.598 0 0 0 1.05-2.562 3.598 3.598 0 0 0-1.05-2.562 3.598 3.598 0 0 0-2.562-1.05 3.598 3.598 0 0 0-2.562 1.05 3.598 3.598 0 0 0-1.05 2.562zm12.936-3.444c0-1.568.126-2.907.378-4.018.252-1.11.583-2.044.994-2.8.41-.756.873-1.363 1.386-1.82a5.997 5.997 0 0 1 1.568-1.036 6.118 6.118 0 0 1 1.54-.462A8.86 8.86 0 0 1 29.788.84c.373 0 .807.037 1.302.112a6.118 6.118 0 0 1 1.54.462 5.997 5.997 0 0 1 1.568 1.036c.513.457.975 1.064 1.386 1.82.41.756.742 1.69.994 2.8.252 1.11.378 2.45.378 4.018 0 1.568-.126 2.907-.378 4.018-.252 1.11-.583 2.044-.994 2.8-.41.756-.873 1.363-1.386 1.82a5.997 5.997 0 0 1-1.568 1.036 6.118 6.118 0 0 1-1.54.462 8.86 8.86 0 0 1-1.302.112 8.86 8.86 0 0 1-1.302-.112 6.118 6.118 0 0 1-1.54-.462 5.997 5.997 0 0 1-1.568-1.036c-.513-.457-.975-1.064-1.386-1.82-.41-.756-.742-1.69-.994-2.8-.252-1.11-.378-2.45-.378-4.018zm3.36 0c0 .616.042 1.33.126 2.142.084.812.257 1.582.518 2.31a4.923 4.923 0 0 0 1.148 1.848c.504.504 1.176.756 2.016.756.84 0 1.512-.252 2.016-.756a4.923 4.923 0 0 0 1.148-1.848 9.794 9.794 0 0 0 .518-2.31c.084-.812.126-1.526.126-2.142 0-.616-.042-1.33-.126-2.142a9.794 9.794 0 0 0-.518-2.31 4.923 4.923 0 0 0-1.148-1.848c-.504-.504-1.176-.756-2.016-.756-.84 0-1.512.252-2.016.756a4.923 4.923 0 0 0-1.148 1.848 9.794 9.794 0 0 0-.518 2.31 21.123 21.123 0 0 0-.126 2.142zM48.605 11.355a3.82 3.82 0 0 1-.272 1.457 3.41 3.41 0 0 1-.768 1.155c-.33.326-.727.579-1.192.76a4.22 4.22 0 0 1-1.548.273h-2.83V7.715h2.83c.567 0 1.082.092 1.547.275.466.183.863.437 1.193.76.33.323.586.707.768 1.152.181.446.272.93.272 1.453zm-1.73 0c0-.36-.047-.685-.14-.975a2.083 2.083 0 0 0-.402-.738 1.748 1.748 0 0 0-.643-.464 2.181 2.181 0 0 0-.865-.163h-1.13V13.7h1.13c.323 0 .612-.054.865-.162.253-.109.467-.264.643-.466.175-.201.309-.447.402-.737.093-.29.14-.617.14-.98zm6.58.86l-.675-1.995a8.445 8.445 0 0 1-.16-.447 13.687 13.687 0 0 1-.17-.558 7.872 7.872 0 0 1-.32 1.015l-.67 1.985h1.995zM56.14 15h-1.31a.572.572 0 0 1-.355-.102.651.651 0 0 1-.205-.263l-.43-1.27h-2.77l-.43 1.27a.608.608 0 0 1-.197.252.551.551 0 0 1-.353.113h-1.32l2.82-7.285h1.73L56.14 15zm4.065-2.77V15h-1.69v-2.77l-2.64-4.515h1.49a.54.54 0 0 1 .347.103.832.832 0 0 1 .213.262l1.03 2.12c.087.167.165.322.235.468.07.145.132.287.185.427a5.43 5.43 0 0 1 .172-.433c.066-.145.141-.299.228-.462l1.02-2.12a.962.962 0 0 1 .085-.13.579.579 0 0 1 .465-.235h1.5l-2.64 4.515z"/>
    </g>
</svg>
