<svg xmlns="http://www.w3.org/2000/svg" width="40" height="40" viewBox="0 0 40 40">
    <g fill="#003BDE" fill-rule="nonzero">
        <path d="M25.77.088l-.93 2.287c-6.26-1.14-12.566.917-17.024 5.28a20.093 20.093 0 0 0-3.988 5.529l2.441 1.259C9.562 7.721 16.633 4.004 23.761 5.037l-.829 2.046 9.04-.243L25.77.088zM35.816 9.957l-2.27 1.486a16.707 16.707 0 0 1-.798 19.537l-1.305-1.7-4.288 7.867L35.9 35.09l-1.457-1.901a19.44 19.44 0 0 0 1.372-23.23zM2.923 17.998L.31 26.629l2.41-.31c2.18 5.958 7.098 10.405 13.047 12.133 2.128.618 4.39.888 6.702.755l-.16-2.72C14.944 36.91 8.23 32.613 5.522 25.96l2.155-.278-4.754-7.683z"/>
    </g>
</svg>
