<svg xmlns="http://www.w3.org/2000/svg" width="512" height="195" viewBox="0 0 512 195">
    <defs>
        <radialGradient id="a" cy="0%" r="44.167%" fx="50%" fy="0%" gradientTransform="matrix(.24882 0 0 .66264 .376 0)">
            <stop offset="0%" stop-color="#FFF"/>
            <stop offset="100%" stop-color="#FFF" stop-opacity="0"/>
        </radialGradient>
        <radialGradient id="b" cx="48.653%" cy="100%" r="44.167%" fx="48.653%" fy="100%" gradientTransform="matrix(.24882 0 0 .49017 .365 .51)">
            <stop offset="0%" stop-color="#FFF"/>
            <stop offset="100%" stop-color="#FFF" stop-opacity="0"/>
        </radialGradient>
        <linearGradient id="c" x1="0%" y1="0%" y2="0%">
            <stop offset="0%" stop-color="#FFF" stop-opacity="0"/>
            <stop offset="28.618%" stop-color="#003BDE"/>
            <stop offset="64.333%" stop-color="#003BDE"/>
            <stop offset="100%" stop-color="#FFF" stop-opacity="0"/>
        </linearGradient>
    </defs>
    <g fill="none" fill-rule="evenodd">
        <path fill="url(#a)" d="M45 107.602C138.944 105.201 209.277 104 256 104c46.723 0 117.056 1.2 211 3.602v99.153C373.295 208.252 302.962 209 256 209c-46.962 0-117.295-.376-211-1.127v-100.27z" transform="translate(0 -14)"/>
        <path fill="url(#b)" d="M45 3.602C138.944 1.201 209.277 0 256 0c46.723 0 117.056 1.2 211 3.602v99.153C373.295 104.252 302.962 105 256 105c-46.962 0-117.295-.376-211-1.127V3.603z" transform="translate(0 -14)"/>
        <path fill="url(#c)" d="M0 107.97c113.805-2.384 199.16-3.576 256.062-3.576 56.902 0 142.215 1.192 255.938 3.576V109c-113.392-4.667-198.725-7-256-7-57.275 0-142.608 2.333-256 7v-1.03z" transform="translate(0 -14)"/>
        <path fill="#003BDE" d="M126.823 54.373c0 6.963 4.627 10.424 9.293 10.424 4.705 0 9.332-3.46 9.332-10.424 0-6.962-4.627-10.423-9.332-10.423-4.666 0-9.293 3.46-9.293 10.423zm-4.823 0c0-9.446 6.823-15.025 14.116-15.025 7.293 0 14.154 5.579 14.154 15.025 0 9.488-6.861 15.066-14.154 15.066S122 63.861 122 54.373zm37.367 22.192h-4.51V48.999h4.392v2.687c.941-1.71 3.137-3.135 6.078-3.135 5.646 0 8.822 4.479 8.822 10.342 0 5.945-3.49 10.424-8.979 10.424-2.745 0-4.823-1.222-5.803-2.728v9.976zm10.234-17.672c0-3.705-2.078-6.148-5.137-6.148-2.98 0-5.136 2.443-5.136 6.148 0 3.787 2.156 6.23 5.136 6.23 3.02 0 5.137-2.443 5.137-6.23zm14.586-15.961h-4.117v2.972c0 1.75-.902 3.095-2.94 3.095h-.981v4.194h3.529v9.975c0 3.706 2.196 5.905 5.724 5.905 1.647 0 2.51-.326 2.784-.448v-3.91c-.196.041-.94.164-1.568.164-1.686 0-2.431-.733-2.431-2.484v-9.202h3.96v-4.194h-3.96v-6.067zm13.135 25.896v-19.83h-4.509v19.83h4.51zm-5.215-26.792c0 1.71 1.334 3.054 2.941 3.054 1.647 0 2.98-1.344 2.98-3.054 0-1.71-1.333-3.095-2.98-3.095-1.607 0-2.94 1.385-2.94 3.095zm15.606 26.792V57.061c0-2.525 1.53-4.398 3.96-4.398 2.588 0 3.686 1.792 3.686 4.072v12.093h4.47V57.061c0-2.443 1.568-4.398 3.96-4.398 2.549 0 3.686 1.751 3.686 4.072v12.093h4.391V55.961c0-5.252-3.293-7.533-6.744-7.533-2.47 0-4.705.896-6.195 3.502-1.02-2.32-3.215-3.502-5.725-3.502-2.156 0-4.548 1.06-5.646 3.095V49h-4.352v19.83h4.509zm41.876-2.199c0 .815.079 1.751.157 2.2h4.352a33.506 33.506 0 0 1-.196-3.625V49h-4.548v11.726c0 2.606-1.372 4.439-4 4.439-2.744 0-3.842-2.077-3.842-4.52V48.999h-4.548v12.5c0 4.398 2.666 7.9 7.214 7.9 2.235 0 4.47-.978 5.411-2.77zm14.704 2.2V57.06c0-2.525 1.53-4.398 3.96-4.398 2.588 0 3.686 1.792 3.686 4.072v12.093h4.47V57.061c0-2.443 1.568-4.398 3.96-4.398 2.549 0 3.686 1.751 3.686 4.072v12.093h4.391V55.961c0-5.252-3.293-7.533-6.744-7.533-2.47 0-4.705.896-6.195 3.502-1.02-2.32-3.215-3.502-5.725-3.502-2.156 0-4.548 1.06-5.646 3.095V49h-4.352v19.83h4.509zm48.385-22.11c-.627-3.217-3.176-7.37-9.724-7.37-5.176 0-9.45 3.99-9.45 8.835 0 4.316 2.823 7.207 7.058 8.103l3.921.855c2.392.53 3.725 2.036 3.725 3.91 0 2.239-1.725 3.99-5.058 3.99-4 0-6.078-2.77-6.352-5.782l-4.392 1.302c.432 4.154 3.686 8.877 10.744 8.877 6.352 0 9.842-4.275 9.842-8.754 0-4.072-2.627-7.289-7.529-8.307l-4-.855c-2.156-.489-3.253-1.873-3.253-3.705 0-2.2 1.96-4.154 4.783-4.154 3.725 0 5.176 2.647 5.45 4.439l4.235-1.385zm9.175 22.11v-29.48h-4.548v29.48h4.548zm9.058-12.094h9.37c-.078-2.32-1.568-4.398-4.704-4.398-2.863 0-4.51 2.28-4.666 4.398zm9.88 5.171l3.843 1.262c-1.02 3.461-4.039 6.271-8.626 6.271-5.176 0-9.763-3.909-9.763-10.627 0-6.271 4.47-10.424 9.292-10.424 5.882 0 9.332 4.03 9.332 10.301 0 .774-.078 1.426-.117 1.507h-13.959c.118 3.013 2.392 5.171 5.215 5.171 2.745 0 4.156-1.506 4.784-3.46zm11.607-5.171h9.37c-.078-2.32-1.568-4.398-4.704-4.398-2.863 0-4.51 2.28-4.666 4.398zm9.88 5.171l3.843 1.262c-1.02 3.461-4.038 6.271-8.626 6.271-5.176 0-9.763-3.909-9.763-10.627 0-6.271 4.47-10.424 9.292-10.424 5.882 0 9.332 4.03 9.332 10.301 0 .774-.078 1.426-.117 1.507H352.28c.118 3.013 2.392 5.171 5.215 5.171 2.745 0 4.156-1.506 4.784-3.46zm12.94 14.659h-4.51V48.999h4.392v2.687c.941-1.71 3.137-3.135 6.078-3.135 5.646 0 8.822 4.479 8.822 10.342 0 5.945-3.49 10.424-8.98 10.424-2.744 0-4.822-1.222-5.802-2.728v9.976zm10.234-17.672c0-3.705-2.078-6.148-5.137-6.148-2.98 0-5.136 2.443-5.136 6.148 0 3.787 2.156 6.23 5.136 6.23 3.02 0 5.137-2.443 5.137-6.23zM172.498 116.279h2.602c1.582 0 2.54-.904 2.54-2.346 0-1.463-.958-2.388-2.54-2.388h-2.602v4.734zm2.976 2.28h-2.976v5.961H170v-15.256h5.474c2.831 0 4.705 1.98 4.705 4.648 0 2.69-1.874 4.648-4.705 4.648zm23.14 5.961l-3.102-6.025h-1.831v6.025h-2.52v-15.256h5.663c2.851 0 4.62 2.044 4.62 4.626 0 2.174-1.27 3.83-3.33 4.347l3.33 6.283h-2.83zm-4.933-8.306h2.685c1.54 0 2.54-.925 2.54-2.324 0-1.42-1-2.345-2.54-2.345h-2.685v4.67zm20.662.667c0 3.68 2.456 5.509 4.933 5.509 2.498 0 4.954-1.83 4.954-5.509 0-3.68-2.456-5.508-4.954-5.508-2.477 0-4.933 1.829-4.933 5.508zm-2.56 0c0-4.992 3.621-7.94 7.493-7.94 3.872 0 7.514 2.948 7.514 7.94 0 5.014-3.642 7.962-7.514 7.962-3.872 0-7.493-2.948-7.493-7.962zm36.46-5.186v-2.431H236.15v2.431h4.788v12.825h2.497v-12.825h4.809zm11.92 5.186c0 3.68 2.457 5.509 4.934 5.509 2.498 0 4.954-1.83 4.954-5.509 0-3.68-2.456-5.508-4.954-5.508-2.477 0-4.933 1.829-4.933 5.508zm-2.56 0c0-4.992 3.622-7.94 7.494-7.94 3.871 0 7.514 2.948 7.514 7.94 0 5.014-3.643 7.962-7.514 7.962-3.872 0-7.494-2.948-7.494-7.962zm32.881 7.962c3.768 0 6.016-2.475 6.682-5.057l-2.29-.774c-.5 1.721-1.915 3.356-4.392 3.356-2.518 0-4.891-1.893-4.891-5.465 0-3.701 2.435-5.53 4.87-5.53 2.477 0 3.851 1.484 4.288 3.335l2.352-.818c-.666-2.668-2.893-4.949-6.64-4.949-3.83 0-7.43 2.991-7.43 7.962 0 4.97 3.475 7.94 7.451 7.94zm19.393-7.962c0 3.68 2.456 5.509 4.933 5.509 2.498 0 4.954-1.83 4.954-5.509 0-3.68-2.456-5.508-4.954-5.508-2.477 0-4.933 1.829-4.933 5.508zm-2.56 0c0-4.992 3.621-7.94 7.493-7.94 3.872 0 7.514 2.948 7.514 7.94 0 5.014-3.642 7.962-7.514 7.962-3.872 0-7.493-2.948-7.493-7.962zm35.586 7.64v-2.454h-6.765v-12.803h-2.497v15.256h9.262z"/>
    </g>
</svg>
