<svg xmlns="http://www.w3.org/2000/svg" width="30" height="30" viewBox="0 0 30 30">
    <g fill="none" fill-rule="evenodd">
        <circle cx="15" cy="15" r="15" fill="#003BDE"/>
        <path fill="#FFF" d="M7.356 15.02c0 1.633 1.127 2.444 2.262 2.444 1.146 0 2.272-.811 2.272-2.444 0-1.632-1.126-2.443-2.272-2.443-1.136 0-2.262.811-2.262 2.443zm-1.174 0c0-2.214 1.661-3.522 3.436-3.522 1.776 0 3.446 1.308 3.446 3.522 0 2.225-1.67 3.532-3.446 3.532-1.775 0-3.436-1.307-3.436-3.532zm12.514-1.794c-.153-.754-.773-1.728-2.367-1.728-1.26 0-2.3.936-2.3 2.072 0 1.011.687 1.69 1.718 1.9l.954.2c.582.124.907.477.907.916 0 .525-.42.935-1.231.935-.974 0-1.48-.649-1.547-1.355l-1.069.305c.105.974.897 2.081 2.616 2.081 1.546 0 2.396-1.002 2.396-2.052 0-.955-.64-1.709-1.833-1.947l-.974-.2c-.525-.115-.792-.44-.792-.87 0-.515.477-.973 1.164-.973.907 0 1.26.62 1.327 1.04l1.031-.324zm2.415 1.527h1.193c.726 0 1.165-.4 1.165-1.04 0-.65-.44-1.06-1.165-1.06h-1.193v2.1zm1.365 1.012h-1.365v2.644h-1.145v-6.768h2.51c1.298 0 2.157.879 2.157 2.062 0 1.193-.859 2.062-2.157 2.062z"/>
    </g>
</svg>
