<svg xmlns="http://www.w3.org/2000/svg" width="269" height="74" viewBox="0 0 269 74">
    <g fill="none" fill-rule="evenodd">
        <path fill="#FFF" d="M8.965 17.96c-1.432-.518-2.64-.64-3.62-.365-.98.289-1.72.885-2.224 1.787-.502.903-.542 1.751-.12 2.545.205.397.495.711.872.942.376.231.91.47 1.604.715.03.013.14.05.328.11s.308.103.362.129c.053.025.17.072.351.14.181.069.31.118.386.15.075.031.193.09.354.174.16.084.283.156.368.217.085.06.196.133.335.219.138.086.254.173.349.262.094.089.19.189.286.3l.31.353c.606.87.686 1.709.243 2.52-.311.594-.9 1.113-1.765 1.556-.668.34-1.391.612-2.171.814-.794.202-1.448.314-1.961.335-.396.013-1.057-.073-1.981-.258a.776.776 0 0 1-.498-.34.76.76 0 0 1-.12-.599.777.777 0 0 1 .34-.508.783.783 0 0 1 .61-.12c.79.165 1.318.246 1.582.242.41-.014.956-.107 1.635-.28a8.095 8.095 0 0 0 1.826-.69c.582-.29.951-.588 1.106-.893.13-.245.08-.528-.147-.85a2.387 2.387 0 0 0-.696-.646c-.3-.192-.571-.331-.812-.417l-1.155-.427a23.598 23.598 0 0 1-.929-.354 12.118 12.118 0 0 1-.857-.436 3.626 3.626 0 0 1-.897-.687 4.372 4.372 0 0 1-.66-.914c-.48-.98-.605-1.924-.374-2.83a5.16 5.16 0 0 1 1.366-2.388c.68-.687 1.445-1.149 2.296-1.385 1.325-.387 2.87-.26 4.636.382a.776.776 0 0 1 .436.41c.095.2.105.4.031.604a.771.771 0 0 1-.41.448.782.782 0 0 1-.615.032zm9.222 9.19c.058-.43.104-.823.138-1.178a3.751 3.751 0 0 0-1.406-.553c-.476-.077-.887-.073-1.234.01-.347.083-.66.222-.941.418-.379.262-.594.549-.646.861-.04.268.081.524.363.769.544.418 1.094.662 1.65.734.556.071.989 0 1.297-.212.34-.2.599-.483.779-.849zm-3.204-9.237l.32.01c.2.01.321.019.366.03l.333.021c.192.016.33.036.412.06.082.023.206.055.37.095.165.04.304.085.418.136.114.051.24.112.377.184.137.07.268.154.392.248 1.288.968 1.96 2.693 2.016 5.174.004.485-.01 1.008-.045 1.569.098.772.03 1.483-.204 2.131-.043.224-.124.744-.244 1.56a.74.74 0 0 1-.306.507.793.793 0 0 1-.596.152.673.673 0 0 1-.53-.337c-.668.34-1.414.448-2.239.322-.824-.127-1.603-.487-2.336-1.083-.777-.607-1.095-1.357-.951-2.25.123-.758.564-1.399 1.321-1.922a4.27 4.27 0 0 1 2.056-.717c.767-.069 1.597.072 2.488.421a2.336 2.336 0 0 0 0-.33c-.049-1.953-.516-3.265-1.4-3.938a1.93 1.93 0 0 0-.605-.278 4.033 4.033 0 0 0-.582-.125 12.372 12.372 0 0 0-.896-.047.814.814 0 0 1-.559-.259.727.727 0 0 1-.205-.57.814.814 0 0 1 .259-.558.727.727 0 0 1 .57-.206zm7.95-3.643c.061.26.111.764.149 1.511.037.747.06 1.275.066 1.583l.025 1.609.047 1.628c.005.28.009.536.01.771a49.99 49.99 0 0 0 2.418-.433.726.726 0 0 1 .582.124c.185.127.3.296.344.506a.743.743 0 0 1-.124.593.799.799 0 0 1-.516.345c-.799.144-1.67.293-2.615.447.114 1.418.32 2.587.62 3.507.394 1.223.899 1.812 1.513 1.77.306-.037.651-.204 1.035-.503.383-.3.753-.733 1.11-1.302a.76.76 0 0 1 .506-.344.782.782 0 0 1 .603.112c.185.12.3.288.344.505a.782.782 0 0 1-.112.604c-1.023 1.556-2.134 2.391-3.332 2.504-.73.066-1.367-.154-1.91-.66-.542-.506-.964-1.234-1.266-2.183-.322-1.036-.549-2.285-.68-3.746l-1.18.17a.8.8 0 0 1-.594-.145.735.735 0 0 1-.312-.519.8.8 0 0 1 .146-.594.735.735 0 0 1 .518-.312l1.331-.203c.002-.192-.006-.515-.023-.97l-.05-1.65-.022-1.586a59.427 59.427 0 0 0-.061-1.506c-.035-.711-.084-1.19-.145-1.435a.744.744 0 0 1 .158-.584.787.787 0 0 1 .53-.302.744.744 0 0 1 .584.158.787.787 0 0 1 .302.53zm8.988 6.495c.057.819.176 2.05.357 3.69.181 1.642.3 2.872.358 3.692a.764.764 0 0 1-.192.576.764.764 0 0 1-.543.27.764.764 0 0 1-.576-.192.764.764 0 0 1-.27-.544c-.057-.819-.176-2.05-.357-3.69-.18-1.642-.3-2.872-.357-3.692a.764.764 0 0 1 .191-.576.764.764 0 0 1 .544-.27.764.764 0 0 1 .575.192.764.764 0 0 1 .27.544zm-.525-4.044a.764.764 0 0 1-.192.576.764.764 0 0 1-.543.27.764.764 0 0 1-.576-.192.764.764 0 0 1-.27-.543.764.764 0 0 1 .192-.576.764.764 0 0 1 .543-.27.764.764 0 0 1 .576.192.764.764 0 0 1 .27.543zm7.69 3.057a5.744 5.744 0 0 1-.49-.075l-.402-.06a2.175 2.175 0 0 0-.309-.001c-.175.012-.4.101-.676.268a2.57 2.57 0 0 0-.715.645c-.42.515-.53.934-.331 1.258.146.196.585.386 1.318.57.254.056.438.101.55.138.113.036.298.104.555.204a2.034 2.034 0 0 1 1.102.937c.34.667.468 1.28.382 1.837a3.046 3.046 0 0 1-.699 1.515 3.312 3.312 0 0 1-1.302.93c-.501.196-1.036.226-1.604.09a3.259 3.259 0 0 1-.87-.447 3.632 3.632 0 0 1-.275-.157l-.325-.242a.784.784 0 0 1-.286-1.094.744.744 0 0 1 .481-.364.776.776 0 0 1 .59.08c.016.013.247.166.694.458.185.12.337.197.457.233.165.047.363.03.592-.052.23-.082.44-.24.629-.474.422-.486.482-.99.18-1.513-.116-.197-.526-.382-1.229-.553a.362.362 0 0 1-.111-.014 18.07 18.07 0 0 1-.732-.214 3.58 3.58 0 0 1-.72-.358 2.039 2.039 0 0 1-.686-.668 1.663 1.663 0 0 1-.364-1.11c.015-.406.09-.764.222-1.075a3.67 3.67 0 0 1 .545-.887c.323-.42.714-.77 1.172-1.052.458-.282.907-.439 1.346-.47.16-.01.341-.005.541.018s.397.05.59.08c.194.03.305.052.336.065.221.014.4.108.538.282a.784.784 0 0 1 .173.583.744.744 0 0 1-.294.528.728.728 0 0 1-.573.161zm7.791-5.264c-.074-.436-.228-.793-.46-1.07-.233-.278-.476-.445-.73-.5-.493-.113-.826.175-.998.863a6.679 6.679 0 0 0-.14 1.322 21.67 21.67 0 0 0 .085 1.836c.06.76.1 1.272.118 1.535.048.894.09 1.707.127 2.44.89-.298 1.61-.518 2.16-.659a.768.768 0 0 1 .611.078.744.744 0 0 1 .365.482c.051.21.02.41-.09.602a.7.7 0 0 1-.472.353c-.332.096-1.16.353-2.483.769.084 1.611.173 3.097.268 4.458a.764.764 0 0 1-.191.576.764.764 0 0 1-.544.27.764.764 0 0 1-.576-.192.764.764 0 0 1-.27-.544c-.087-1.258-.175-2.619-.263-4.083-.765.2-1.454.33-2.068.387a.822.822 0 0 1-.586-.18.712.712 0 0 1-.28-.531.822.822 0 0 1 .18-.586.712.712 0 0 1 .532-.28c.657-.06 1.368-.206 2.13-.436-.043-.835-.087-1.787-.133-2.857-.007-.103-.047-.574-.12-1.414a20.135 20.135 0 0 1-.093-2.111 7.32 7.32 0 0 1 .207-1.613c.18-.778.541-1.35 1.081-1.719.54-.369 1.14-.473 1.798-.313.599.15 1.118.48 1.558.994.44.513.723 1.14.848 1.881a.764.764 0 0 1-.146.584.79.79 0 0 1-.519.312.728.728 0 0 1-.583-.136.833.833 0 0 1-.323-.518zm9.738 9.95c.058-.431.104-.824.138-1.18a3.751 3.751 0 0 0-1.406-.552c-.476-.077-.887-.074-1.234.01-.347.083-.66.222-.941.418-.379.262-.594.549-.646.861-.04.268.081.524.363.769.544.418 1.094.662 1.65.734.556.07.989 0 1.297-.213.34-.2.599-.482.78-.848zm-3.204-9.238l.32.01c.2.009.322.019.367.03l.332.021c.192.016.33.036.412.06.082.023.206.055.37.095.165.04.304.085.418.136.114.051.24.112.377.183.137.072.268.154.392.249 1.288.968 1.96 2.693 2.016 5.174.004.484-.01 1.007-.045 1.569.098.772.03 1.482-.204 2.13-.043.224-.124.745-.243 1.562a.74.74 0 0 1-.307.506.793.793 0 0 1-.596.152.673.673 0 0 1-.53-.338c-.668.341-1.414.448-2.239.322-.824-.126-1.603-.487-2.336-1.082-.777-.608-1.094-1.357-.95-2.25.122-.758.563-1.399 1.32-1.922a4.27 4.27 0 0 1 2.056-.717c.767-.069 1.597.072 2.489.421a2.336 2.336 0 0 0-.001-.33c-.049-1.953-.515-3.265-1.4-3.939a1.93 1.93 0 0 0-.604-.277 4.033 4.033 0 0 0-.583-.125 12.372 12.372 0 0 0-.896-.047.814.814 0 0 1-.558-.26.727.727 0 0 1-.206-.57.814.814 0 0 1 .259-.558.727.727 0 0 1 .57-.205zm13.303 2.907l-.041-.592a1.008 1.008 0 0 0-.04-.262c-.141-.328-.496-.465-1.066-.41-.656.074-1.184.303-1.584.683-.18.16-.435.509-.765 1.046-1.149 1.86-1.55 3.49-1.202 4.892.201.765.773 1.27 1.716 1.512.45.116.907.146 1.374.091a3.218 3.218 0 0 0 1.23-.383c.085-.05.162-.104.231-.16a1.33 1.33 0 0 0 .166-.155c.04-.047.095-.117.162-.21.067-.093.113-.162.14-.208l.198-.323c.078-.137.144-.245.198-.322a.723.723 0 0 1 .482-.354.77.77 0 0 1 .602.09.761.761 0 0 1 .354.494.747.747 0 0 1-.101.603c.001.014-.06.129-.186.343-.124.215-.213.36-.267.438a6.03 6.03 0 0 1-.283.362 3.573 3.573 0 0 1-.411.426c-.139.12-.3.23-.484.331a4.714 4.714 0 0 1-1.844.603 4.866 4.866 0 0 1-1.961-.138 4.307 4.307 0 0 1-1.808-.933c-.516-.449-.858-1.028-1.025-1.736-.466-1.82-.005-3.852 1.382-6.096.396-.645.731-1.102 1.007-1.371.29-.27.663-.506 1.119-.707a4.566 4.566 0 0 1 1.385-.372 3.144 3.144 0 0 1 1.58.198c.5.2.871.578 1.116 1.135.088.214.143.475.165.782l.035.505a.744.744 0 0 1-.157.584.787.787 0 0 1-.53.302.744.744 0 0 1-.585-.158.787.787 0 0 1-.302-.53zm4.895-7.267c.063.26.112.764.15 1.511.038.747.06 1.275.067 1.583l.024 1.609.048 1.628c.004.28.008.536.01.772a49.99 49.99 0 0 0 2.417-.434.726.726 0 0 1 .582.125c.185.126.3.295.344.505a.743.743 0 0 1-.124.593.799.799 0 0 1-.516.345c-.798.144-1.67.293-2.615.447.114 1.418.32 2.587.62 3.508.394 1.222.899 1.811 1.513 1.768.306-.036.651-.203 1.035-.502.383-.299.753-.733 1.11-1.302a.76.76 0 0 1 .506-.344.782.782 0 0 1 .603.112c.185.12.3.288.344.506a.782.782 0 0 1-.112.603c-1.023 1.556-2.134 2.391-3.331 2.504-.731.066-1.368-.154-1.91-.66-.543-.506-.965-1.234-1.267-2.183-.322-1.036-.549-2.285-.68-3.746l-1.18.171a.8.8 0 0 1-.594-.146.735.735 0 0 1-.312-.518.8.8 0 0 1 .146-.595.735.735 0 0 1 .518-.312l1.331-.203c.002-.191-.006-.514-.023-.969-.01-.338-.025-.888-.05-1.65l-.022-1.587a59.427 59.427 0 0 0-.061-1.506c-.035-.71-.083-1.189-.145-1.435a.744.744 0 0 1 .158-.584.787.787 0 0 1 .53-.302.744.744 0 0 1 .585.158.787.787 0 0 1 .301.53zm8.99 6.495c.056.82.176 2.05.357 3.69.18 1.642.3 2.873.357 3.692a.764.764 0 0 1-.191.576.764.764 0 0 1-.544.27.764.764 0 0 1-.576-.192.764.764 0 0 1-.27-.544c-.057-.819-.176-2.05-.357-3.69-.18-1.642-.3-2.872-.357-3.692a.764.764 0 0 1 .191-.575.764.764 0 0 1 .544-.27.764.764 0 0 1 .576.191.764.764 0 0 1 .27.544zm-.526-4.043a.764.764 0 0 1-.191.575.764.764 0 0 1-.544.27.764.764 0 0 1-.576-.191.764.764 0 0 1-.27-.544.764.764 0 0 1 .192-.576.764.764 0 0 1 .544-.27.764.764 0 0 1 .575.192.764.764 0 0 1 .27.544zm4.142 2.775c.02-.34.187-.571.502-.696.415-.162.745-.28.99-.356.244-.076.59-.133 1.035-.172a3.593 3.593 0 0 1 1.253.1 3.89 3.89 0 0 1 2.154 1.625c.519.794.797 1.675.835 2.643a5.284 5.284 0 0 1-.645 2.758c-.468.87-1.172 1.522-2.113 1.956-1.34.608-2.529.625-3.569.05-.903-.51-1.52-1.356-1.853-2.538-.241-.924-.246-1.883-.014-2.877.232-.994.707-1.825 1.425-2.493zm1.662.744c-.694.387-1.181.987-1.462 1.8a4.099 4.099 0 0 0-.075 2.41c.2.75.567 1.269 1.102 1.555.566.328 1.27.293 2.11-.104a2.877 2.877 0 0 0 1.409-1.29c.312-.58.458-1.222.439-1.926-.018-.676-.196-1.27-.533-1.783-.337-.513-.783-.845-1.338-.998-.376-.12-.83-.103-1.364.052a.679.679 0 0 1-.288.284zm8.35 1.159c.563-.995 1.27-1.61 2.121-1.847.707-.196 1.362-.08 1.965.348.572.401 1.03 1.053 1.372 1.955.47 1.261.642 2.88.516 4.86a.76.76 0 0 1-.27.548.782.782 0 0 1-.582.195.76.76 0 0 1-.548-.27.782.782 0 0 1-.195-.582c.112-1.758-.03-3.159-.427-4.205-.217-.587-.48-.988-.79-1.201a.678.678 0 0 0-.603-.113c-.288.08-.575.29-.86.634-.284.343-.51.793-.677 1.348-.121.376-.184.789-.19 1.238-.005.448.018.88.07 1.296.05.416.074.917.071 1.506a.306.306 0 0 1-.012.133 1.12 1.12 0 0 1-.007.22.86.86 0 0 1-.096.206c-.198.323-.483.446-.856.369a.778.778 0 0 1-.296-.134.679.679 0 0 1-.19-.185l-.05-.085-.053-.129-.033-.152-.052-.746c-.042-.82-.08-1.354-.112-1.602-.186-1.398-.575-2.863-1.167-4.395a.73.73 0 0 1 .002-.607.77.77 0 0 1 .433-.427c.2-.08.402-.076.607.013a.73.73 0 0 1 .416.434c.195.471.36.93.494 1.377zm20.324-4.884c.107.492.34 1.402.698 2.73.34 1.3.605 2.354.794 3.164.595 2.62.805 4.67.63 6.153-.098.919-.374 1.655-.828 2.209a2.549 2.549 0 0 1-1.753.95c-.613.057-1.24-.069-1.879-.377a5.984 5.984 0 0 1-1.744-1.29.821.821 0 0 1-.206-.58.735.735 0 0 1 .248-.547.785.785 0 0 1 .57-.205.75.75 0 0 1 .546.237c.382.415.782.721 1.2.92.419.198.789.287 1.11.264.657-.075 1.05-.669 1.177-1.78.134-1.245-.039-2.975-.517-5.19-.445.574-1.041.983-1.789 1.227-1.437.468-2.635.265-3.593-.609-.832-.75-1.254-1.743-1.267-2.977 0-1.279.444-2.273 1.336-2.982.974-.789 2.249-.952 3.825-.488l-.12-.455a.782.782 0 0 1 .112-.603.795.795 0 0 1 .493-.355.728.728 0 0 1 .592.102c.185.12.306.28.365.482zm-1.797 2.375c-1.083-.35-1.91-.293-2.48.174-.488.387-.734.962-.74 1.727.01.779.26 1.386.746 1.823.503.465 1.178.557 2.026.277.46-.15.81-.387 1.053-.713.242-.326.452-.789.63-1.39 0-.014.006-.03.02-.045l-.537-1.991a.803.803 0 0 1-.718.138zm11.17 4.27c.059-.431.105-.824.139-1.18a3.751 3.751 0 0 0-1.406-.551c-.476-.077-.887-.074-1.234.009-.347.083-.661.222-.941.418-.38.262-.594.55-.646.862-.04.267.08.523.363.768.543.418 1.093.662 1.65.734.556.071.989 0 1.297-.212.339-.2.599-.483.779-.849zm-3.203-9.238c.014 0 .121.003.32.011.2.008.321.018.366.03l.332.02c.193.016.33.036.413.06.082.023.206.055.37.095.165.04.304.086.418.136.113.051.239.112.376.184.138.07.268.154.393.248 1.288.968 1.96 2.693 2.015 5.174.005.485-.01 1.008-.044 1.569.098.772.03 1.483-.204 2.131-.043.224-.124.744-.244 1.561a.74.74 0 0 1-.306.507.793.793 0 0 1-.596.152.673.673 0 0 1-.53-.338c-.668.34-1.414.448-2.239.322s-1.603-.487-2.336-1.083c-.778-.607-1.095-1.357-.951-2.25.123-.758.563-1.399 1.32-1.922a4.27 4.27 0 0 1 2.057-.717c.767-.069 1.596.072 2.488.421a2.336 2.336 0 0 0 0-.33c-.05-1.953-.516-3.265-1.4-3.938a1.93 1.93 0 0 0-.605-.278 4.033 4.033 0 0 0-.582-.125 12.372 12.372 0 0 0-.896-.047.814.814 0 0 1-.559-.259.727.727 0 0 1-.205-.57.814.814 0 0 1 .259-.558.727.727 0 0 1 .57-.206zm8.21 4.83c.316-.743.69-1.38 1.124-1.91 1.069-1.324 2.243-1.781 3.521-1.37.255.07.53.212.824.427l.21.173c.125.101.226.171.302.21.185.12.3.288.344.505a.782.782 0 0 1-.112.604.76.76 0 0 1-.505.344.782.782 0 0 1-.604-.112 53.53 53.53 0 0 0-.582-.445 1.657 1.657 0 0 0-.346-.218c-.586-.18-1.19.112-1.814.876a6.506 6.506 0 0 0-1.24 2.447c-.08.314-.14.616-.18.906-.038.289-.059.511-.063.666-.004.154.005.444.028.869.022.425.034.755.036.99a.91.91 0 0 0 .02.12 4.322 4.322 0 0 1 .07.535c.03.233.036.417.016.55-.077.373-.289.594-.637.662-.275.064-.53-.007-.765-.21-.327-.272-.465-.667-.413-1.185a4.299 4.299 0 0 1 .054-.323.181.181 0 0 0 .007-.056l-.004-.066a12.828 12.828 0 0 0-.185-1.376 57.13 57.13 0 0 0-.796-3.826 19.66 19.66 0 0 0-1.029-3.038.757.757 0 0 1-.01-.606.771.771 0 0 1 .422-.437c.2-.088.402-.09.606-.01.204.082.35.222.438.422.49 1.127.911 2.421 1.264 3.881zm10.332-2.377a88.876 88.876 0 0 0 .004 1.951c.004.272.02.613.05 1.022.028.41.069.782.122 1.117.248 1.452.776 2.276 1.584 2.47.418.088.75.013.999-.225.508-.506.806-1.497.894-2.974.034-.355.048-.9.04-1.635l.025-.597a4.92 4.92 0 0 1 .025-.266.932.932 0 0 1 .233-.457c.257-.313.561-.385.91-.219a.79.79 0 0 1 .378.349c.035.071.07.15.105.235.004.059.017.146.04.262.026.16.056.378.09.655.01.132.023.274.041.428.018.153.03.273.036.36l.011.155c.138 1.137.235 1.784.29 1.942.115.374.448.829 1 1.364.157.15.237.336.237.556 0 .22-.074.41-.225.568a.744.744 0 0 1-.557.237.787.787 0 0 1-.567-.225c-.426-.426-.754-.807-.984-1.144-.22.633-.53 1.14-.93 1.52-.66.65-1.469.86-2.426.633-1.508-.335-2.448-1.578-2.819-3.728a15.57 15.57 0 0 1-.13-1.226 24 24 0 0 1-.057-1.132c-.006-.3-.007-.68-.002-1.136a15.62 15.62 0 0 0-.003-.837c-.001-.22.074-.41.225-.567a.744.744 0 0 1 .556-.238c.22 0 .41.074.568.225.157.15.236.336.237.557zm14.443 4.702c.058-.43.104-.823.138-1.179a3.751 3.751 0 0 0-1.406-.552c-.476-.077-.887-.074-1.234.01-.347.082-.66.222-.941.418-.379.262-.594.549-.646.861-.04.267.081.524.363.769.544.417 1.094.662 1.65.733.556.072.989 0 1.297-.212.34-.2.599-.483.78-.848zm-3.204-9.237c.015-.001.121.002.32.01.2.009.322.019.366.03l.333.02c.192.017.33.037.412.06.082.024.206.056.37.096.165.04.304.085.418.136.114.05.24.112.377.183s.268.154.392.248c1.288.969 1.96 2.693 2.016 5.174.004.485-.01 1.008-.045 1.57.098.772.03 1.482-.204 2.13-.043.224-.124.744-.243 1.561a.74.74 0 0 1-.307.507.793.793 0 0 1-.596.152.673.673 0 0 1-.53-.338c-.668.34-1.414.448-2.239.322-.824-.126-1.603-.487-2.336-1.083-.777-.607-1.094-1.356-.951-2.249.123-.758.564-1.4 1.321-1.923a4.27 4.27 0 0 1 2.056-.717c.767-.068 1.597.072 2.489.422a2.336 2.336 0 0 0-.002-.331c-.048-1.952-.515-3.265-1.4-3.938a1.93 1.93 0 0 0-.604-.277 4.033 4.033 0 0 0-.582-.125 12.372 12.372 0 0 0-.896-.048.814.814 0 0 1-.559-.258.727.727 0 0 1-.205-.57.814.814 0 0 1 .259-.559.727.727 0 0 1 .57-.205zm8.27 5.045c.563-.995 1.27-1.61 2.12-1.846.707-.197 1.362-.08 1.965.348.573.4 1.03 1.052 1.372 1.955.47 1.26.643 2.88.516 4.86a.76.76 0 0 1-.27.548.782.782 0 0 1-.582.195.76.76 0 0 1-.548-.27.782.782 0 0 1-.195-.582c.112-1.758-.03-3.16-.426-4.205-.218-.588-.481-.988-.79-1.202a.678.678 0 0 0-.603-.112c-.289.079-.576.29-.86.634-.285.343-.51.792-.678 1.348-.12.376-.184.789-.19 1.237-.004.45.018.881.07 1.297.05.415.075.917.072 1.505a.306.306 0 0 1-.013.134 1.12 1.12 0 0 1-.007.22.86.86 0 0 1-.096.206c-.198.322-.483.445-.856.368a.778.778 0 0 1-.296-.133.679.679 0 0 1-.19-.186l-.05-.084-.052-.129-.033-.152-.052-.746c-.043-.82-.08-1.355-.112-1.602-.186-1.399-.576-2.864-1.168-4.396a.73.73 0 0 1 .002-.606.77.77 0 0 1 .433-.427c.2-.08.403-.076.608.012a.73.73 0 0 1 .416.434c.195.472.359.93.493 1.377zm8.721-9.32c.062.26.112.763.15 1.51.037.748.06 1.275.066 1.584l.025 1.608.047 1.629c.005.279.009.536.01.77a49.99 49.99 0 0 0 2.418-.433.726.726 0 0 1 .582.125c.185.126.3.295.344.505a.743.743 0 0 1-.124.593.799.799 0 0 1-.516.345c-.799.144-1.67.293-2.615.447.114 1.419.32 2.588.62 3.508.394 1.222.899 1.811 1.513 1.768.306-.036.651-.203 1.035-.502.383-.299.753-.733 1.11-1.302a.76.76 0 0 1 .506-.344.782.782 0 0 1 .603.112c.185.12.3.288.344.506a.782.782 0 0 1-.112.603c-1.023 1.557-2.134 2.391-3.332 2.504-.73.066-1.367-.154-1.91-.66-.542-.506-.964-1.234-1.266-2.183-.322-1.036-.549-2.284-.68-3.746l-1.18.171a.8.8 0 0 1-.594-.146.735.735 0 0 1-.312-.518.8.8 0 0 1 .146-.595.735.735 0 0 1 .518-.312l1.331-.203c.002-.191-.006-.514-.023-.969l-.05-1.65-.022-1.587a59.427 59.427 0 0 0-.062-1.506c-.034-.71-.083-1.189-.144-1.435a.744.744 0 0 1 .158-.584.787.787 0 0 1 .53-.302.744.744 0 0 1 .584.158.787.787 0 0 1 .302.53zm9.35 10.394c1.766-.182 2.918-.63 3.457-1.344.255-.341.402-.708.44-1.1.04-.393-.016-.709-.165-.948-.32-.595-.884-.77-1.69-.522-.95.287-1.598.803-1.943 1.548-.345.744-.378 1.533-.099 2.366zm-1.323.953a5.426 5.426 0 0 1-.386-1.429 4.94 4.94 0 0 1 .038-1.502 4.37 4.37 0 0 1 .508-1.414c.248-.436.606-.836 1.073-1.2a5.017 5.017 0 0 1 1.673-.833c.777-.246 1.483-.244 2.118.006a2.69 2.69 0 0 1 1.435 1.289c.303.538.416 1.154.34 1.85a3.82 3.82 0 0 1-.76 1.906c-.742.964-2.007 1.582-3.797 1.854.408.368.866.608 1.374.72 1.03.222 2.144-.143 3.342-1.094a.776.776 0 0 1 .573-.161c.215.021.39.12.528.293a.784.784 0 0 1-.131 1.123c-1.574 1.257-3.122 1.718-4.645 1.384a4.325 4.325 0 0 1-1.801-.845 4.804 4.804 0 0 1-1.277-1.542.717.717 0 0 1-.205-.405zm11.44-1.66c1.767-.182 2.919-.63 3.457-1.345.255-.34.403-.708.441-1.1.039-.392-.016-.708-.165-.948-.321-.595-.885-.769-1.69-.521-.951.287-1.599.803-1.944 1.547-.344.745-.378 1.534-.099 2.367zm-1.322.952a5.426 5.426 0 0 1-.387-1.428 4.94 4.94 0 0 1 .038-1.502 4.37 4.37 0 0 1 .508-1.414c.249-.437.607-.837 1.074-1.2a5.017 5.017 0 0 1 1.673-.834c.776-.245 1.482-.243 2.117.006a2.69 2.69 0 0 1 1.436 1.29c.302.537.415 1.154.339 1.85a3.82 3.82 0 0 1-.76 1.906c-.742.963-2.007 1.581-3.796 1.853.408.369.866.609 1.373.72 1.03.222 2.144-.142 3.342-1.094a.776.776 0 0 1 .573-.16c.215.02.39.119.528.293a.784.784 0 0 1-.13 1.123c-1.574 1.257-3.123 1.718-4.646 1.383a4.325 4.325 0 0 1-1.801-.844 4.804 4.804 0 0 1-1.277-1.543.717.717 0 0 1-.204-.405zm15.04-4.734c-1.133-.01-2.021.325-2.665 1.002-.629.676-.949 1.463-.96 2.36-.016.81.216 1.404.699 1.782.558.417 1.338.429 2.34.035.586-.232.985-.524 1.195-.877.159-.261.325-.832.498-1.711a.6.6 0 0 1 .136-.274 232.286 232.286 0 0 1-.272-5.307c-.109-2.5-.21-4.422-.304-5.768a.764.764 0 0 1 .19-.576.764.764 0 0 1 .544-.27.764.764 0 0 1 .576.192.764.764 0 0 1 .27.543c.084 1.2.203 3.537.358 7.01.154 3.474.327 6.153.517 8.036a.822.822 0 0 1-.18.586.712.712 0 0 1-.531.28.822.822 0 0 1-.586-.18.712.712 0 0 1-.28-.532 8.344 8.344 0 0 0-.063-.59c-.358.348-.852.647-1.481.897-1.574.624-2.866.546-3.876-.236-.916-.7-1.363-1.72-1.339-3.06a4.726 4.726 0 0 1 .35-1.767 5.563 5.563 0 0 1 .971-1.579c.415-.477.966-.858 1.652-1.14.67-.298 1.424-.446 2.262-.446.22 0 .406.079.557.237a.8.8 0 0 1 .227.569c0 .22-.078.406-.237.557a.8.8 0 0 1-.568.227zM2.902 57.867c.02-.34.187-.571.502-.696.415-.162.745-.28.99-.356.244-.076.59-.133 1.035-.172a3.593 3.593 0 0 1 1.253.1 3.89 3.89 0 0 1 2.154 1.625c.519.794.797 1.675.835 2.643a5.284 5.284 0 0 1-.645 2.758c-.468.87-1.173 1.522-2.113 1.956-1.34.608-2.529.625-3.569.05-.903-.51-1.52-1.356-1.853-2.538-.241-.924-.246-1.883-.014-2.877.232-.994.707-1.825 1.425-2.493zm1.661.744c-.693.387-1.18.987-1.462 1.8a4.099 4.099 0 0 0-.074 2.41c.2.75.567 1.269 1.101 1.555.567.328 1.27.293 2.11-.104a2.877 2.877 0 0 0 1.41-1.29c.312-.58.458-1.222.439-1.927-.018-.675-.196-1.269-.533-1.782-.337-.513-.783-.846-1.338-.998-.376-.12-.83-.104-1.364.051a.679.679 0 0 1-.289.285zm8.292.942c.316-.742.69-1.379 1.124-1.909 1.069-1.324 2.242-1.781 3.52-1.37.256.07.53.212.825.427l.21.172c.125.102.225.172.302.21.184.12.3.289.344.506a.782.782 0 0 1-.112.603.76.76 0 0 1-.506.345.782.782 0 0 1-.603-.113l-.582-.444a1.657 1.657 0 0 0-.346-.218c-.586-.18-1.19.112-1.814.876a6.506 6.506 0 0 0-1.24 2.447c-.081.314-.14.616-.18.905-.038.29-.06.512-.063.666-.004.155.005.445.028.87.022.424.034.754.036.99a.91.91 0 0 0 .02.12 4.322 4.322 0 0 1 .07.535c.03.233.036.416.016.55-.077.373-.29.594-.637.662-.275.063-.53-.007-.765-.211-.328-.271-.465-.666-.413-1.184a4.299 4.299 0 0 1 .054-.324.181.181 0 0 0 .007-.055l-.004-.066a12.828 12.828 0 0 0-.185-1.377 57.13 57.13 0 0 0-.797-3.825 19.66 19.66 0 0 0-1.028-3.038.757.757 0 0 1-.01-.606.771.771 0 0 1 .422-.437c.2-.088.402-.091.606-.01.204.082.35.222.438.422.49 1.127.911 2.42 1.263 3.881zm24.192-9.477c-.411.426-.76.9-1.047 1.419a9.643 9.643 0 0 0-.828 1.888 28.272 28.272 0 0 0-.535 1.802c-.121.479-.283 1.167-.485 2.063l-.097.492a.772.772 0 0 1-.299.462 23.55 23.55 0 0 0 .06 1.804c.044.63.1 1.338.17 2.127.07.79.12 1.389.149 1.798a.764.764 0 0 1-.192.576.764.764 0 0 1-.543.27.764.764 0 0 1-.576-.192.764.764 0 0 1-.27-.543c-.026-.38-.077-1.002-.152-1.864a82.674 82.674 0 0 1-.17-2.282 48.279 48.279 0 0 1-.076-1.869 2.4 2.4 0 0 1-.19-.185c-.539-.771-1.371-1.75-2.498-2.935-1.555-1.626-2.468-2.592-2.739-2.896a.782.782 0 0 1-.195-.582.76.76 0 0 1 .27-.548.782.782 0 0 1 .582-.195.76.76 0 0 1 .548.27c.08.098.978 1.05 2.692 2.856.889.937 1.6 1.747 2.133 2.43.168-.746.325-1.39.471-1.929.147-.54.342-1.156.588-1.85.245-.693.543-1.331.891-1.914a8.867 8.867 0 0 1 1.202-1.584.744.744 0 0 1 .557-.237c.22-.001.41.074.567.225.157.15.236.336.237.556 0 .22-.074.41-.225.567zm6.956 1.08c-.451.693-.841 1.522-1.171 2.486a11.946 11.946 0 0 0-.583 2.698c-.085.895-.054 1.647.091 2.254.339 1.27.995 2.246 1.97 2.928a3.81 3.81 0 0 0 1.433.627c.537.11 1.043.104 1.52-.018.793-.217 1.516-.716 2.167-1.497.636-.78 1.135-1.748 1.495-2.905.347-1.127.499-2.218.455-3.274-.047-1.084-.278-1.965-.692-2.642a4.493 4.493 0 0 0-1.277-1.377c-.534-.382-1.077-.634-1.63-.757-1.224-.268-2.16.121-2.807 1.166a.683.683 0 0 1-.417.338.795.795 0 0 1-.554-.027zm1.931-2.98c.692-.195 1.42-.21 2.18-.042.777.166 1.52.504 2.233 1.012a6.36 6.36 0 0 1 1.693 1.823c.571 1.018.878 2.155.922 3.409a11.622 11.622 0 0 1-.527 3.819c-.407 1.322-1.017 2.49-1.828 3.502-.827.999-1.803 1.648-2.93 1.947a4.582 4.582 0 0 1-2.224.045 5.497 5.497 0 0 1-2.067-.87 6.048 6.048 0 0 1-1.618-1.684 6.958 6.958 0 0 1-.946-2.172c-.2-.765-.249-1.674-.146-2.725.103-1.05.324-2.088.665-3.112.351-1.068.82-2.034 1.407-2.899.572-.863 1.226-1.497 1.962-1.901.227-.12.502-.175.826-.168l.245.027.153-.011zm9.463-.287c.053.54.113 1.503.18 2.888.068 1.384.124 2.406.17 3.064.197 2.604.502 4.435.914 5.494.408 1 .824 1.692 1.248 2.074.455.41.97.425 1.547.046.308-.213.67-.723 1.083-1.531.375-.747.77-1.715 1.187-2.906.342-.994.876-2.81 1.603-5.45.013-.03.039-.134.078-.313.039-.18.099-.419.18-.719l.187-.807.292-1.189c.06-.18.102-.323.124-.428a.977.977 0 0 1 .076-.181c.04-.062.073-.116.099-.162a.744.744 0 0 1 .185-.19.715.715 0 0 1 .586-.128c.208.03.384.127.528.294.05.07.091.144.126.222.035.079.064.176.087.292.04.144.083.354.132.63a23.2 23.2 0 0 1 .21 1.75c.12 1.08.208 2.022.264 2.826.09 1.273.289 2.498.6 3.675.31 1.176.757 2.59 1.343 4.24a.783.783 0 0 1-.034.619.777.777 0 0 1-.456.407.76.76 0 0 1-.61-.035.776.776 0 0 1-.405-.446c-.59-1.708-1.05-3.183-1.38-4.424a20.982 20.982 0 0 1-.638-3.925c-.02-.293-.059-.738-.115-1.337-.644 2.353-1.167 4.124-1.57 5.314-.428 1.236-.848 2.265-1.261 3.088-.53 1.051-1.068 1.758-1.616 2.12-.72.432-1.36.62-1.924.564-.562-.056-1.087-.303-1.573-.739-.611-.545-1.159-1.433-1.642-2.664-.483-1.23-.828-3.22-1.035-5.97-.046-.659-.102-1.673-.168-3.043-.067-1.37-.126-2.325-.179-2.865a.822.822 0 0 1 .18-.586.712.712 0 0 1 .532-.28.822.822 0 0 1 .586.18.712.712 0 0 1 .28.531zm18.744 7.224l.23.139c1.772 1.155 3.552 2.853 5.34 5.095.13.168.184.359.162.574a.744.744 0 0 1-.294.527.784.784 0 0 1-1.123-.13c-1.707-2.13-3.361-3.706-4.962-4.726-.184-.12-.59-.356-1.218-.709l-.528-.294c.024.337.044.725.06 1.165.025.572.029 1.365.012 2.38a66.373 66.373 0 0 0 .004 2.272.712.712 0 0 1-.203.566.822.822 0 0 1-.555.26.712.712 0 0 1-.566-.204.822.822 0 0 1-.259-.555 45.025 45.025 0 0 1-.012-2.381c.014-1.06.013-1.817-.005-2.271.01-.295-.022-.793-.093-1.494-.071-.7-.117-1.197-.137-1.49a23.75 23.75 0 0 0-.181-1.487c-.1-.698-.168-1.193-.203-1.485a56.14 56.14 0 0 0-.216-1.507 97.05 97.05 0 0 0-.238-1.505.8.8 0 0 1 .146-.594.735.735 0 0 1 .519-.312c.334-.053.6.068.797.363 1.52-.342 2.648-.501 3.385-.48.736.023 1.45.186 2.14.49.69.305 1.245.715 1.663 1.23.508.537.753 1.197.734 1.977-.006.765-.307 1.507-.903 2.225-.895 1.077-2.06 1.864-3.496 2.361zm-1.434-1.267c.32-.052.609-.123.867-.215 1.177-.406 2.126-1.038 2.845-1.897.664-.796.724-1.52.179-2.174-.274-.333-.653-.601-1.137-.802a3.634 3.634 0 0 0-1.48-.338c-.603-.017-1.63.129-3.078.436.346 2.225.573 3.885.679 4.98a.195.195 0 0 0 .086-.027c.173-.042.371-.048.594-.02a.77.77 0 0 1 .189.02.774.774 0 0 0 .167.021l.089.016zm14.867 6.657c.013-.853.04-1.792.078-2.817.039-1.025.078-1.884.118-2.577l.172-2.902c.075-1.24.123-2.125.145-2.656.053-.71.09-1.138.108-1.287.03-.208.063-.57.1-1.087l-.005-.088-.033-.152a.458.458 0 0 0-.034-.174 1.476 1.476 0 0 1 .024-.598c.118-.42.396-.652.833-.697.292-.035.549.064.771.299.095.096.185.222.27.378.115.183.22.433.316.75.074.215.15.452.227.711.018.058.033.112.044.163.01.05.025.09.041.118l.003.044 2.419 7.461.019-.045c.188-.675 1.06-3.456 2.614-8.343l.452-1.42a17.357 17.357 0 0 1 .48-1.335.914.914 0 0 1 .12-.185.605.605 0 0 1 .164-.166.776.776 0 0 1 .606-.175.818.818 0 0 1 .55.315l.1.169c.02.058.047.13.082.215.038.115.078.274.122.477.078.273.182.715.313 1.323.222 1.072.369 1.805.44 2.197.134.858.295 1.795.483 2.81.189 1.017.351 1.865.487 2.547l.598 2.87.535 2.608a.76.76 0 0 1-.123.604.792.792 0 0 1-.505.344.743.743 0 0 1-.593-.123.785.785 0 0 1-.344-.495c-.094-.508-.274-1.392-.538-2.653l-.576-2.87-.51-2.567c-.19-1.03-.351-1.975-.485-2.833-.029-.204-.12-.675-.275-1.414l-.092.27c-1.307 4.018-2.165 6.768-2.576 8.252a10.61 10.61 0 0 0-.153.65c-.081.315-.153.555-.214.721-.096.316-.225.567-.389.755-.298.36-.67.496-1.118.41-.493-.113-.76-.462-.8-1.047l.001-.287-.168-.518-.19-.494-2.023-6.232c-.023.516-.072 1.39-.147 2.624-.076 1.233-.13 2.185-.164 2.856-.034.672-.071 1.512-.11 2.522-.04 1.01-.067 1.942-.081 2.796 0 .22-.078.406-.237.556a.8.8 0 0 1-.568.228.735.735 0 0 1-.557-.237.8.8 0 0 1-.227-.569zm19.503-13.758c-.451.693-.841 1.522-1.171 2.486a11.946 11.946 0 0 0-.583 2.698c-.085.896-.054 1.647.091 2.254.339 1.27.995 2.247 1.97 2.928a3.81 3.81 0 0 0 1.433.628c.536.11 1.043.103 1.52-.018.793-.218 1.516-.716 2.167-1.497.636-.78 1.135-1.748 1.495-2.905.347-1.127.499-2.219.455-3.274-.047-1.085-.278-1.966-.692-2.642a4.493 4.493 0 0 0-1.277-1.378c-.534-.381-1.077-.634-1.63-.757-1.224-.267-2.16.122-2.807 1.167a.683.683 0 0 1-.417.338.795.795 0 0 1-.554-.028zm1.931-2.98c.692-.195 1.42-.21 2.18-.042.777.166 1.52.504 2.233 1.013a6.36 6.36 0 0 1 1.693 1.822c.571 1.019.878 2.155.922 3.41a11.622 11.622 0 0 1-.527 3.818c-.407 1.323-1.017 2.49-1.828 3.502-.827 1-1.803 1.648-2.93 1.947a4.582 4.582 0 0 1-2.224.046 5.497 5.497 0 0 1-2.067-.87 6.048 6.048 0 0 1-1.618-1.684 6.958 6.958 0 0 1-.946-2.173c-.2-.765-.249-1.673-.146-2.724.103-1.051.324-2.089.665-3.112.351-1.069.82-2.035 1.407-2.9.572-.863 1.226-1.497 1.962-1.9.227-.12.502-.176.826-.169l.245.027.153-.01zm9.98-.455c.162.21.756.918 1.781 2.125.785.916 1.382 1.682 1.793 2.3.67.968 1.699 2.631 3.084 4.99l.653 1.145c-.019-.69-.063-1.753-.134-3.189a203.484 203.484 0 0 1-.158-3.826 143.88 143.88 0 0 1-.047-3.194c0-.22.078-.407.237-.557a.8.8 0 0 1 .569-.227c.22-.001.406.078.556.236a.8.8 0 0 1 .228.569 59.394 59.394 0 0 0 .037 3.217c.042 1.13.098 2.4.168 3.815.07 1.414.115 2.487.137 3.22l.118 1.69c.018.47.015.845-.01 1.126a1.937 1.937 0 0 1-.096.514.828.828 0 0 1-.175.343.858.858 0 0 1-.726.338c-.517-.038-.856-.36-1.016-.966a5.627 5.627 0 0 1-.067-.326l-.004-.066c-.001-.014-.01-.029-.025-.042a36.612 36.612 0 0 0-1.6-3.02c-1.353-2.302-2.364-3.937-3.034-4.904-.345-.52-.91-1.238-1.695-2.153l-.456-.542c.38 5.237.57 9.105.568 11.605 0 .206-.079.388-.237.546a.763.763 0 0 1-.557.237.761.761 0 0 1-.557-.237.778.778 0 0 1-.238-.567l-.024-2.557a145.4 145.4 0 0 0-.134-2.857l-.14-2.472c-.035-.607-.101-1.558-.2-2.853a579.2 579.2 0 0 1-.189-2.556.746.746 0 0 1 .181-.564.875.875 0 0 1 .297-.484.776.776 0 0 1 .573-.161.771.771 0 0 1 .54.304zm10.072-1.057c1.296-.179 3.26-.36 5.894-.545a.764.764 0 0 1 .576.192.764.764 0 0 1 .27.543.764.764 0 0 1-.192.576.764.764 0 0 1-.544.27 141.9 141.9 0 0 0-4.144.334c.28 1.494.532 2.991.755 4.49a123.87 123.87 0 0 1 4.56-.385.764.764 0 0 1 .576.191.764.764 0 0 1 .27.544.764.764 0 0 1-.192.575.764.764 0 0 1-.544.27c-1.902.133-3.385.259-4.45.377.26 2.026.473 4.032.641 6.02l1.778-.124c1.389-.112 2.49-.145 3.301-.099a.76.76 0 0 1 .548.27c.144.167.21.361.196.583a.76.76 0 0 1-.27.548.782.782 0 0 1-.583.195c-.768-.05-1.795-.022-3.081.083l-1.998.14a.737.737 0 0 1-.553.281.714.714 0 0 1-.636-.264l-.066.004a.735.735 0 0 1-.557-.236.8.8 0 0 1-.072-1.032.822.822 0 0 1 .41-.282 137.323 137.323 0 0 0-.634-5.91l-.022.001a.744.744 0 0 1-.584-.157.787.787 0 0 1-.302-.53.744.744 0 0 1 .158-.585.787.787 0 0 1 .53-.302 120.162 120.162 0 0 0-.753-4.468l-.088.006a.748.748 0 0 1-.574-.158.761.761 0 0 1-.311-.519.763.763 0 0 1 .157-.584.771.771 0 0 1 .53-.313zm20.09-.015c-.412.425-.761.898-1.048 1.418a9.643 9.643 0 0 0-.827 1.888 28.272 28.272 0 0 0-.536 1.802 88.94 88.94 0 0 0-.484 2.063l-.098.492a.772.772 0 0 1-.299.462 23.55 23.55 0 0 0 .06 1.804c.044.63.101 1.338.171 2.127.07.79.12 1.389.148 1.798a.764.764 0 0 1-.191.576.764.764 0 0 1-.544.27.764.764 0 0 1-.576-.192.764.764 0 0 1-.27-.543c-.026-.38-.077-1.002-.152-1.864a82.67 82.67 0 0 1-.17-2.282 48.277 48.277 0 0 1-.076-1.869 2.4 2.4 0 0 1-.19-.185c-.538-.771-1.371-1.75-2.498-2.935-1.555-1.626-2.467-2.591-2.739-2.896a.782.782 0 0 1-.195-.582.76.76 0 0 1 .27-.548.782.782 0 0 1 .582-.195.76.76 0 0 1 .549.27c.08.098.977 1.05 2.691 2.856.89.937 1.6 1.748 2.133 2.43.168-.746.326-1.39.472-1.929.146-.54.342-1.156.587-1.85.246-.693.543-1.331.892-1.914a8.866 8.866 0 0 1 1.201-1.584.744.744 0 0 1 .557-.237c.22-.001.41.074.567.225.158.15.237.336.237.556.001.22-.074.41-.225.568zm14.787 4.258c.661-.002 1.248.09 1.761.274a2.813 2.813 0 0 1 1.368.963c.34.447.56.946.657 1.498.18 1.105-.066 2.107-.738 3.007-.23.295-.57.642-1.02 1.041-.45.4-.843.706-1.181.921a4.967 4.967 0 0 1-1.075.55c-.409.153-.746.265-1.013.335-.267.07-.644.152-1.13.244-.486.093-.801.16-.946.199l-.153.01c-.093.36-.33.553-.71.58a.764.764 0 0 1-.575-.192.764.764 0 0 1-.27-.543c-.063-.908-.163-2.275-.298-4.104-.135-1.828-.234-3.196-.298-4.103a76.684 76.684 0 0 1-.085-1.538 50.69 50.69 0 0 0-.114-1.79 30.804 30.804 0 0 0-.159-1.477.865.865 0 0 1-.764-.52.768.768 0 0 1 .035-.608.768.768 0 0 1 .445-.418l.216-.059a.738.738 0 0 1 .545-.413c.16-.026.323 0 .49.076 1.338-.417 2.506-.638 3.504-.664 1.073-.016 1.925.189 2.557.615.819.56 1.24 1.428 1.263 2.603.01.984-.622 2.043-1.895 3.175l-.417.338zm-3.036 2c-.17.1-.326.184-.468.252l-.406.183c.034.483.094 1.287.18 2.413s.15 1.997.193 2.611c.188-.042.51-.109.968-.2.456-.09.786-.161.988-.212a6.67 6.67 0 0 0 .755-.251c.3-.117.563-.25.788-.397.28-.196.614-.462 1.003-.798.388-.336.662-.613.824-.83.39-.527.532-1.118.427-1.772-.102-.625-.425-1.036-.968-1.233a3.549 3.549 0 0 0-1.104-.177c-.42-.007-.8.016-1.142.07-.342.052-.766.133-1.273.242-.16.026-.379.056-.656.09l-.11.008zm-.526-1.53l.445-.252c1.017-.6 1.843-1.187 2.48-1.76.914-.8 1.368-1.45 1.363-1.949-.014-.616-.199-1.052-.555-1.306-.37-.24-.914-.355-1.634-.35-.822.014-1.81.194-2.962.539.066.524.123 1.072.17 1.642.048.57.09 1.225.127 1.965.037.74.066 1.263.087 1.57l.283-.063a1.02 1.02 0 0 0 .196-.036zm16.337-1.01c-.683-1.57-1.436-2.973-2.257-4.209a224.448 224.448 0 0 1-1.257 5.05c.42-.088 1.035-.23 1.845-.427.81-.196 1.366-.334 1.669-.414zm.612 1.5c-.072.02-.701.171-1.887.453a71.68 71.68 0 0 1-2.67.594c-.576 2.29-.984 4.23-1.226 5.82a.74.74 0 0 1-.306.507.773.773 0 0 1-.585.15.745.745 0 0 1-.518-.305.793.793 0 0 1-.152-.596c.232-1.516.6-3.298 1.104-5.348l-.022.002a.764.764 0 0 1-.576-.191.764.764 0 0 1-.27-.544.764.764 0 0 1 .192-.576.764.764 0 0 1 .543-.27c.176-.012.351-.031.526-.058l.074-.204c.855-3.324 1.4-5.618 1.635-6.885a.795.795 0 0 1-.046-.504.752.752 0 0 1 .267-.437.793.793 0 0 1 .594-.185.717.717 0 0 1 .516.284c1.48 1.822 2.75 4.005 3.81 6.548.329.08.527.286.595.62a.891.891 0 0 1-.114.581c.507 1.361 1.23 3.619 2.172 6.773.059.216.036.42-.068.611a.745.745 0 0 1-.47.375.773.773 0 0 1-.6-.068.74.74 0 0 1-.374-.46c-.924-3.125-1.639-5.354-2.144-6.686zm13.72-6.273c-.528-.61-1.066-1.054-1.615-1.332-.549-.278-1.053-.39-1.512-.335-.46.054-.91.192-1.35.414-.678.385-1.274 1.004-1.788 1.856-.514.852-.851 1.813-1.012 2.883-.137.98-.047 2.002.27 3.068.317 1.066.8 2.04 1.45 2.92.826 1.09 1.816 1.674 2.968 1.756 1.124.097 2.091-.367 2.902-1.394a.787.787 0 0 1 .53-.302.744.744 0 0 1 .584.158.787.787 0 0 1 .302.53.744.744 0 0 1-.157.584c-.769.995-1.684 1.625-2.746 1.89a4.73 4.73 0 0 1-3.094-.246c-.985-.417-1.834-1.1-2.547-2.05a11.261 11.261 0 0 1-1.718-3.43c-.382-1.267-.484-2.51-.304-3.728a9.499 9.499 0 0 1 1.244-3.494c.638-1.067 1.417-1.86 2.337-2.38.694-.372 1.396-.583 2.106-.633.71-.05 1.445.116 2.207.497.761.38 1.479.966 2.151 1.757a.685.685 0 0 1 .183.56.816.816 0 0 1-.27.549.715.715 0 0 1-.572.183.8.8 0 0 1-.55-.281zm6.941 3.704l-1.506 1.804c.184 2.207.326 4.02.425 5.44a.764.764 0 0 1-.191.575.764.764 0 0 1-.544.27.764.764 0 0 1-.576-.192.764.764 0 0 1-.27-.543c-.107-1.536-.29-3.843-.55-6.92-.259-3.076-.442-5.383-.55-6.919a.764.764 0 0 1 .192-.576.764.764 0 0 1 .544-.27.764.764 0 0 1 .575.192.764.764 0 0 1 .27.543c.105 1.507.271 3.569.498 6.185l1.924-2.45c1.363-1.742 2.38-2.975 3.05-3.698a.781.781 0 0 1 .556-.249c.22-.008.408.06.565.204.157.143.24.325.248.545a.785.785 0 0 1-.192.564c-.753.803-1.742 2.004-2.968 3.604l-.507.631a26.283 26.283 0 0 1 2.818 3.243c.805 1.106 1.62 2.394 2.442 3.865a.758.758 0 0 1 .064.591.771.771 0 0 1-.375.479.757.757 0 0 1-.6.075.807.807 0 0 1-.491-.385 38.51 38.51 0 0 0-2.27-3.601 24.25 24.25 0 0 0-2.58-3.007zm9.232-4.857l.108.918c.036.306.067.587.092.843.025.255.047.566.065.933.019.366.028.652.027.858l.043.923c.014.41.023.697.027.858.004.162.007.467.009.915.002.448.007.73.015.848 0 .22-.074.41-.225.567a.744.744 0 0 1-.557.237.787.787 0 0 1-.567-.225.744.744 0 0 1-.237-.556 18.687 18.687 0 0 1-.016-.86 79.172 79.172 0 0 0-.008-.903 71.402 71.402 0 0 0-.026-.836l-.04-.902c0-.19-.008-.466-.025-.825a18.319 18.319 0 0 0-.063-.9c-.025-.24-.054-.51-.09-.81l-.103-.841a.8.8 0 0 1 .146-.595.735.735 0 0 1 .518-.312.8.8 0 0 1 .595.146c.178.127.282.3.312.519zm.422 10.446a.764.764 0 0 1-.192.575.764.764 0 0 1-.543.27.764.764 0 0 1-.576-.191.764.764 0 0 1-.27-.544.764.764 0 0 1 .192-.576.764.764 0 0 1 .543-.27.764.764 0 0 1 .576.192.764.764 0 0 1 .27.544z"/>
        <path stroke="#FFF" stroke-width="2" d="M1.076 38.85c30.866-4.249 55.93-6.786 75.189-7.611 18.383.672 62.705-2.69 132.967-10.088M4.042 73.014c30.604-4.31 55.303-6.716 74.099-7.216 17.7 1.275 61.195-1.63 130.485-8.713"/>
        <g stroke="#FFF" stroke-linecap="round" stroke-linejoin="round" stroke-width="3">
            <path d="M222.237 55.24s19.156 13.667 42.211-7.072M262.043 57.03s2.102-3.98 2.961-5.948c.859-1.967 2.53-6.633 2.53-6.633s-4.89 1.61-7.247 2.127c-2.358.517-7.936 1.205-7.936 1.205"/>
        </g>
    </g>
</svg>
