<svg xmlns="http://www.w3.org/2000/svg" xmlns:xlink="http://www.w3.org/1999/xlink" width="302" height="634" viewBox="0 0 302 634">
    <defs>
        <path id="a" d="M0 0s49.5 7.199 122.084 7.199C194.667 7.199 302 0 302 0s-9.207 204.903-7.387 305.157C296.433 405.41 302 634 302 634s-72.915-11.75-141.294-11.75C92.326 622.25.8 628.17.8 628.17S7.56 429.887 7.436 331.422C7.31 232.96 0 0 0 0z"/>
    </defs>
    <g fill="none" fill-rule="evenodd">
        <use fill="#FFF9E1" xlink:href="#a"/>
        <path stroke="#FFF9E1" stroke-width="22" d="M11.389 12.483a27927.219 27927.219 0 0 1 3.326 117.85c.509 19.538.98 38.497 1.403 56.679 1.444 61.935 2.276 111.553 2.318 144.397.038 30.316-.565 71.756-1.681 121.555-.47 20.978-1.023 43.018-1.64 65.757a18408.244 18408.244 0 0 1-2.92 97.735l3.342-.194a3780.476 3780.476 0 0 1 39.056-2.04c21.607-1.018 42.702-1.825 62.532-2.343 15.768-.411 30.371-.63 43.58-.63 4.017 0 8.101.04 12.252.119 27.119.511 56.074 2.623 85.238 5.822a1140.94 1140.94 0 0 1 32.492 4.028 111434.468 111434.468 0 0 1-.927-38.671 119125.75 119125.75 0 0 1-3.16-135.817c-1.359-60.042-2.39-108.547-2.985-141.374-.567-31.218-.116-74.216 1.155-126.067.634-25.907 1.457-53.32 2.424-81.552a10921.478 10921.478 0 0 1 3.287-85.981 4470.847 4470.847 0 0 1-50.67 2.83c-20.745 1.04-40.925 1.902-59.954 2.526-21.546.707-40.973 1.087-57.773 1.087-32.076 0-62.076-1.364-89.18-3.638a813.903 813.903 0 0 1-21.515-2.078z"/>
    </g>
</svg>
