<svg xmlns="http://www.w3.org/2000/svg" xmlns:xlink="http://www.w3.org/1999/xlink" width="713" height="429" viewBox="0 0 713 429">
    <defs>
        <path id="a" d="M0 0s116.867 4.871 288.231 4.871C459.595 4.871 713 0 713 0s-21.736 138.649-17.44 206.486C699.856 274.323 713 429 713 429s-172.146-7.951-333.586-7.951c-161.439 0-377.526 4.006-377.526 4.006S17.85 290.886 17.555 224.26C17.26 157.633 0 0 0 0z"/>
    </defs>
    <g fill="none" fill-rule="evenodd">
        <use fill="#FFF9E1" xlink:href="#a"/>
        <path stroke="#FFF9E1" stroke-width="22" d="M12.286 11.47a5494.923 5494.923 0 0 1 7.448 75.92 4079.655 4079.655 0 0 1 3.32 38.434c3.427 42.12 5.401 75.876 5.501 98.387.093 20.808-1.342 49.061-3.995 82.981a2736.924 2736.924 0 0 1-3.885 44.64 3630.395 3630.395 0 0 1-6.426 62 30946.008 30946.008 0 0 1 115.714-1.78c50.863-.686 100.512-1.23 147.156-1.579 37.04-.277 71.323-.424 102.295-.424 9.336 0 18.836.026 28.494.079 63.262.342 130.964 1.757 199.185 3.902 27.69.87 53.57 1.803 76.926 2.736 6.183.247 11.852.481 16.968.698a25076.968 25076.968 0 0 1-8.343-101.784c-.342-4.296-.678-8.531-1.007-12.7-3.208-40.67-5.645-73.529-7.055-95.799-1.372-21.657-.293-51.132 2.74-86.618 1.509-17.637 3.462-36.282 5.754-55.478a2176.908 2176.908 0 0 1 7.122-53.845c-8.656.158-18.46.333-29.28.52a36595.71 36595.71 0 0 1-105.883 1.674c-48.854.702-96.37 1.284-141.153 1.705-50.64.476-96.264.732-135.65.732-75.065 0-145.261-.914-208.642-2.439a6303.092 6303.092 0 0 1-59.02-1.677c-2.947-.099-5.71-.194-8.284-.285z"/>
    </g>
</svg>
