<?xml version="1.0" encoding="UTF-8"?>
<svg width="158px" height="22px" viewBox="0 0 158 22" version="1.1" xmlns="http://www.w3.org/2000/svg" xmlns:xlink="http://www.w3.org/1999/xlink">
    <!-- Generator: Sketch 47.1 (45422) - http://www.bohemiancoding.com/sketch -->
    <title>Artboard 36</title>
    <desc>Created with Sketch.</desc>
    <defs></defs>
    <g stroke="none" stroke-width="1" fill="none" fill-rule="evenodd">
        <g fill="#003BDE">
            <path d="M17.58,9.168 C17.58,10.4400064 17.3700021,11.6179946 16.95,12.702 C16.5299979,13.7860054 15.9360038,14.723996 15.168,15.516 C14.3999962,16.308004 13.4760054,16.9259978 12.396,17.37 C11.3159946,17.8140022 10.1160066,18.036 8.796,18.036 C7.48399344,18.036 6.2880054,17.8140022 5.208,17.37 C4.1279946,16.9259978 3.20200386,16.308004 2.43,15.516 C1.65799614,14.723996 1.06000212,13.7860054 0.636,12.702 C0.21199788,11.6179946 -1.11022302e-16,10.4400064 0,9.168 C-1.11022302e-16,7.89599364 0.21199788,6.71800542 0.636,5.634 C1.06000212,4.54999458 1.65799614,3.61200396 2.43,2.82 C3.20200386,2.02799604 4.1279946,1.41000222 5.208,0.966 C6.2880054,0.52199778 7.48399344,0.3 8.796,0.3 C9.6760044,0.3 10.5039961,0.40199898 11.28,0.606 C12.0560039,0.81000102 12.7679968,1.09799814 13.416,1.47 C14.0640032,1.84200186 14.6459974,2.29399734 15.162,2.826 C15.6780026,3.35800266 16.1159982,3.95199672 16.476,4.608 C16.8360018,5.26400328 17.1099991,5.97599616 17.298,6.744 C17.4860009,7.51200384 17.58,8.31999576 17.58,9.168 Z M14.28,9.168 C14.28,8.21599524 14.1520013,7.36200378 13.896,6.606 C13.6399987,5.84999622 13.2760024,5.20800264 12.804,4.68 C12.3319976,4.15199736 11.7580034,3.7480014 11.082,3.468 C10.4059966,3.1879986 9.64400424,3.048 8.796,3.048 C7.94799576,3.048 7.18600338,3.1879986 6.51,3.468 C5.83399662,3.7480014 5.25800238,4.15199736 4.782,4.68 C4.30599762,5.20800264 3.94000128,5.84999622 3.684,6.606 C3.42799872,7.36200378 3.3,8.21599524 3.3,9.168 C3.3,10.1200048 3.42799872,10.9739962 3.684,11.73 C3.94000128,12.4860038 4.30599762,13.1259974 4.782,13.65 C5.25800238,14.1740026 5.83399662,14.5759986 6.51,14.856 C7.18600338,15.1360014 7.94799576,15.276 8.796,15.276 C9.64400424,15.276 10.4059966,15.1360014 11.082,14.856 C11.7580034,14.5759986 12.3319976,14.1740026 12.804,13.65 C13.2760024,13.1259974 13.6399987,12.4860038 13.896,11.73 C14.1520013,10.9739962 14.28,10.1200048 14.28,9.168 Z M22.716,14.652 C23.0520017,15.060002 23.417998,15.3479992 23.814,15.516 C24.210002,15.6840008 24.6399977,15.768 25.104,15.768 C25.5520022,15.768 25.9559982,15.6840008 26.316,15.516 C26.6760018,15.3479992 26.9819987,15.0920017 27.234,14.748 C27.4860013,14.4039983 27.6799993,13.9700026 27.816,13.446 C27.9520007,12.9219974 28.02,12.3040036 28.02,11.592 C28.02,10.8719964 27.9620006,10.2620025 27.846,9.762 C27.7299994,9.2619975 27.5640011,8.85600156 27.348,8.544 C27.1319989,8.23199844 26.8700015,8.00400072 26.562,7.86 C26.2539985,7.71599928 25.904002,7.644 25.512,7.644 C24.8959969,7.644 24.3720022,7.7739987 23.94,8.034 C23.5079978,8.2940013 23.1000019,8.65999764 22.716,9.132 L22.716,14.652 Z M22.56,7.212 C23.0640025,6.64399716 23.6359968,6.18400176 24.276,5.832 C24.9160032,5.47999824 25.6679957,5.304 26.532,5.304 C27.2040034,5.304 27.8179972,5.4439986 28.374,5.724 C28.9300028,6.0040014 29.409998,6.40999734 29.814,6.942 C30.218002,7.47400266 30.5299989,8.1299961 30.75,8.91 C30.9700011,9.6900039 31.08,10.583995 31.08,11.592 C31.08,12.5120046 30.9560012,13.3639961 30.708,14.148 C30.4599988,14.9320039 30.1060023,15.6119971 29.646,16.188 C29.1859977,16.7640029 28.6300033,17.2139984 27.978,17.538 C27.3259967,17.8620016 26.596004,18.024 25.788,18.024 C25.0999966,18.024 24.5120024,17.9180011 24.024,17.706 C23.5359976,17.4939989 23.1000019,17.2000019 22.716,16.824 L22.716,21.864 L19.752,21.864 L19.752,5.532 L21.564,5.532 C21.9480019,5.532 22.1999994,5.7119982 22.32,6.072 L22.56,7.212 Z M45.636,17.844 L42.672,17.844 L42.672,7.752 L36.96,7.752 L36.96,14.424 C36.96,14.8080019 37.0539991,15.1079989 37.242,15.324 C37.4300009,15.5400011 37.6879984,15.648 38.016,15.648 C38.2000009,15.648 38.3539994,15.6260002 38.478,15.582 C38.6020006,15.5379998 38.7099995,15.4920002 38.802,15.444 C38.8940005,15.3959998 38.9759996,15.3500002 39.048,15.306 C39.1200004,15.2619998 39.1919996,15.24 39.264,15.24 C39.3520004,15.24 39.4239997,15.2619998 39.48,15.306 C39.5360003,15.3500002 39.5959997,15.4159996 39.66,15.504 L40.548,16.944 C40.1159978,17.3040018 39.6200028,17.5759991 39.06,17.76 C38.4999972,17.9440009 37.920003,18.036 37.32,18.036 C36.2479946,18.036 35.4260029,17.734003 34.854,17.13 C34.2819971,16.525997 33.996,15.6920053 33.996,14.628 L33.996,7.752 L32.736,7.752 C32.5759992,7.752 32.4400006,7.70000052 32.328,7.596 C32.2159994,7.49199948 32.16,7.33600104 32.16,7.128 L32.16,5.952 L34.14,5.616 L34.764,2.268 C34.8040002,2.1079992 34.8799994,1.98400044 34.992,1.896 C35.1040006,1.80799956 35.2479991,1.764 35.424,1.764 L36.96,1.764 L36.96,5.64 L45.636,5.64 L45.636,17.844 Z M46.152,1.896 C46.152,2.15200128 46.1000005,2.39399886 45.996,2.622 C45.8919995,2.85000114 45.7540009,3.04799916 45.582,3.216 C45.4099991,3.38400084 45.2060012,3.5179995 44.97,3.618 C44.7339988,3.7180005 44.4840013,3.768 44.22,3.768 C43.9639987,3.768 43.7240011,3.7180005 43.5,3.618 C43.2759989,3.5179995 43.0800008,3.38400084 42.912,3.216 C42.7439992,3.04799916 42.6100005,2.85000114 42.51,2.622 C42.4099995,2.39399886 42.36,2.15200128 42.36,1.896 C42.36,1.63199868 42.4099995,1.38600114 42.51,1.158 C42.6100005,0.92999886 42.7439992,0.73000086 42.912,0.558 C43.0800008,0.38599914 43.2759989,0.2500005 43.5,0.15 C43.7240011,0.0499995 43.9639987,0 44.22,0 C44.4840013,0 44.7339988,0.0499995 44.97,0.15 C45.2060012,0.2500005 45.4099991,0.38599914 45.582,0.558 C45.7540009,0.73000086 45.8919995,0.92999886 45.996,1.158 C46.1000005,1.38600114 46.152,1.63199868 46.152,1.896 Z M48.66,17.844 L48.66,5.532 L50.472,5.532 C50.8560019,5.532 51.1079994,5.7119982 51.228,6.072 L51.42,6.984 C51.6360011,6.7439988 51.8619988,6.524001 52.098,6.324 C52.3340012,6.123999 52.5859987,5.95200072 52.854,5.808 C53.1220013,5.66399928 53.4099985,5.55000042 53.718,5.466 C54.0260015,5.38199958 54.3639982,5.34 54.732,5.34 C55.5080039,5.34 56.1459975,5.5499979 56.646,5.97 C57.1460025,6.3900021 57.5199988,6.94799652 57.768,7.644 C57.960001,7.23599796 58.1999986,6.88600146 58.488,6.594 C58.7760014,6.30199854 59.0919983,6.06400092 59.436,5.88 C59.7800017,5.69599908 60.1459981,5.56000044 60.534,5.472 C60.9220019,5.38399956 61.311998,5.34 61.704,5.34 C62.3840034,5.34 62.9879974,5.44399896 63.516,5.652 C64.0440026,5.86000104 64.4879982,6.163998 64.848,6.564 C65.2080018,6.964002 65.4819991,7.45199712 65.67,8.028 C65.8580009,8.60400288 65.952,9.26399628 65.952,10.008 L65.952,17.844 L62.988,17.844 L62.988,10.008 C62.988,9.22399608 62.8160017,8.63400198 62.472,8.238 C62.1279983,7.84199802 61.6240033,7.644 60.96,7.644 C60.6559985,7.644 60.3740013,7.69599948 60.114,7.8 C59.8539987,7.90400052 59.626001,8.05399902 59.43,8.25 C59.233999,8.44600098 59.0800006,8.69199852 58.968,8.988 C58.8559994,9.28400148 58.8,9.62399808 58.8,10.008 L58.8,17.844 L55.824,17.844 L55.824,10.008 C55.824,9.18399588 55.6580017,8.58400188 55.326,8.208 C54.9939983,7.83199812 54.5080032,7.644 53.868,7.644 C53.4359978,7.644 53.0340019,7.74999894 52.662,7.962 C52.2899981,8.17400106 51.9440016,8.46399816 51.624,8.832 L51.624,17.844 L48.66,17.844 Z M79.368,5.532 L79.368,17.844 L77.556,17.844 C77.163998,17.844 76.9160005,17.6640018 76.812,17.304 L76.608,16.32 C76.1039975,16.8320026 75.548003,17.2459984 74.94,17.562 C74.331997,17.8780016 73.6160041,18.036 72.792,18.036 C72.1199966,18.036 71.5260026,17.9220011 71.01,17.694 C70.4939974,17.4659989 70.0600018,17.1440021 69.708,16.728 C69.3559982,16.3119979 69.0900009,15.8180029 68.91,15.246 C68.7299991,14.6739971 68.64,14.0440034 68.64,13.356 L68.64,5.532 L71.604,5.532 L71.604,13.356 C71.604,14.1080038 71.7779983,14.6899979 72.126,15.102 C72.4740017,15.5140021 72.9959965,15.72 73.692,15.72 C74.2040026,15.72 74.6839978,15.6060011 75.132,15.378 C75.5800022,15.1499989 76.003998,14.836002 76.404,14.436 L76.404,5.532 L79.368,5.532 Z M82.296,17.844 L82.296,5.532 L84.108,5.532 C84.4920019,5.532 84.7439994,5.7119982 84.864,6.072 L85.056,6.984 C85.2720011,6.7439988 85.4979988,6.524001 85.734,6.324 C85.9700012,6.123999 86.2219987,5.95200072 86.49,5.808 C86.7580013,5.66399928 87.0459985,5.55000042 87.354,5.466 C87.6620015,5.38199958 87.9999982,5.34 88.368,5.34 C89.1440039,5.34 89.7819975,5.5499979 90.282,5.97 C90.7820025,6.3900021 91.1559988,6.94799652 91.404,7.644 C91.596001,7.23599796 91.8359986,6.88600146 92.124,6.594 C92.4120014,6.30199854 92.7279983,6.06400092 93.072,5.88 C93.4160017,5.69599908 93.7819981,5.56000044 94.17,5.472 C94.5580019,5.38399956 94.947998,5.34 95.34,5.34 C96.0200034,5.34 96.6239974,5.44399896 97.152,5.652 C97.6800026,5.86000104 98.1239982,6.163998 98.484,6.564 C98.8440018,6.964002 99.1179991,7.45199712 99.306,8.028 C99.4940009,8.60400288 99.588,9.26399628 99.588,10.008 L99.588,17.844 L96.624,17.844 L96.624,10.008 C96.624,9.22399608 96.4520017,8.63400198 96.108,8.238 C95.7639983,7.84199802 95.2600033,7.644 94.596,7.644 C94.2919985,7.644 94.0100013,7.69599948 93.75,7.8 C93.4899987,7.90400052 93.262001,8.05399902 93.066,8.25 C92.869999,8.44600098 92.7160006,8.69199852 92.604,8.988 C92.4919994,9.28400148 92.436,9.62399808 92.436,10.008 L92.436,17.844 L89.46,17.844 L89.46,10.008 C89.46,9.18399588 89.2940017,8.58400188 88.962,8.208 C88.6299983,7.83199812 88.1440032,7.644 87.504,7.644 C87.0719978,7.644 86.6700019,7.74999894 86.298,7.962 C85.9259981,8.17400106 85.5800016,8.46399816 85.26,8.832 L85.26,17.844 L82.296,17.844 Z M111.912,3.648 C111.816,3.81600084 111.714001,3.93799962 111.606,4.014 C111.497999,4.09000038 111.364001,4.128 111.204,4.128 C111.035999,4.128 110.854001,4.06600062 110.658,3.942 C110.461999,3.81799938 110.228001,3.68000076 109.956,3.528 C109.683999,3.37599924 109.366002,3.23800062 109.002,3.114 C108.637998,2.98999938 108.208002,2.928 107.712,2.928 C107.263998,2.928 106.872002,2.98199946 106.536,3.09 C106.199998,3.19800054 105.918001,3.34799904 105.69,3.54 C105.461999,3.73200096 105.292001,3.96199866 105.18,4.23 C105.067999,4.49800134 105.012,4.7919984 105.012,5.112 C105.012,5.52000204 105.125999,5.85999864 105.354,6.132 C105.582001,6.40400136 105.883998,6.63599904 106.26,6.828 C106.636002,7.02000096 107.063998,7.19199924 107.544,7.344 C108.024002,7.49600076 108.515997,7.65799914 109.02,7.83 C109.524003,8.00200086 110.015998,8.20199886 110.496,8.43 C110.976002,8.65800114 111.403998,8.94599826 111.78,9.294 C112.156002,9.64200174 112.457999,10.0679975 112.686,10.572 C112.914001,11.0760025 113.028,11.6879964 113.028,12.408 C113.028,13.1920039 112.894001,13.9259966 112.626,14.61 C112.357999,15.2940034 111.966003,15.8899975 111.45,16.398 C110.933997,16.9060025 110.304004,17.3059985 109.56,17.598 C108.815996,17.8900015 107.964005,18.036 107.004,18.036 C106.451997,18.036 105.908003,17.9820005 105.372,17.874 C104.835997,17.7659995 104.322002,17.612001 103.83,17.412 C103.337998,17.211999 102.876002,16.9720014 102.444,16.692 C102.011998,16.4119986 101.628002,16.1000017 101.292,15.756 L102.24,14.208 C102.32,14.0959994 102.423999,14.0020004 102.552,13.926 C102.680001,13.8499996 102.815999,13.812 102.96,13.812 C103.160001,13.812 103.375999,13.8939992 103.608,14.058 C103.840001,14.2220008 104.115998,14.403999 104.436,14.604 C104.756002,14.804001 105.129998,14.9859992 105.558,15.15 C105.986002,15.3140008 106.499997,15.396 107.1,15.396 C108.020005,15.396 108.731997,15.1780022 109.236,14.742 C109.740003,14.3059978 109.992,13.6800041 109.992,12.864 C109.992,12.4079977 109.878001,12.0360014 109.65,11.748 C109.421999,11.4599986 109.120002,11.218001 108.744,11.022 C108.367998,10.825999 107.940002,10.6600007 107.46,10.524 C106.979998,10.3879993 106.492002,10.2400008 105.996,10.08 C105.499998,9.9199992 105.012002,9.72800112 104.532,9.504 C104.051998,9.27999888 103.624002,8.9880018 103.248,8.628 C102.871998,8.2679982 102.570001,7.8180027 102.342,7.278 C102.113999,6.7379973 102,6.07200396 102,5.28 C102,4.64799684 102.125999,4.032003 102.378,3.432 C102.630001,2.831997 102.995998,2.30000232 103.476,1.836 C103.956002,1.37199768 104.547996,1.0000014 105.252,0.72 C105.956004,0.4399986 106.763995,0.3 107.676,0.3 C108.700005,0.3 109.643996,0.4599984 110.508,0.78 C111.372004,1.1000016 112.107997,1.54799712 112.716,2.124 L111.912,3.648 Z M118.2,0.012 L118.2,17.844 L115.236,17.844 L115.236,0.012 L118.2,0.012 Z M129.096,10.272 C129.096,9.88799808 129.042001,9.5260017 128.934,9.186 C128.825999,8.8459983 128.664001,8.54800128 128.448,8.292 C128.231999,8.03599872 127.958002,7.83400074 127.626,7.686 C127.293998,7.53799926 126.908002,7.464 126.468,7.464 C125.611996,7.464 124.938002,7.70799756 124.446,8.196 C123.953998,8.68400244 123.640001,9.37599552 123.504,10.272 L129.096,10.272 Z M123.444,12.06 C123.492,12.6920032 123.603999,13.2379977 123.78,13.698 C123.956001,14.1580023 124.187999,14.5379985 124.476,14.838 C124.764001,15.1380015 125.105998,15.3619993 125.502,15.51 C125.898002,15.6580007 126.335998,15.732 126.816,15.732 C127.296002,15.732 127.709998,15.6760006 128.058,15.564 C128.406002,15.4519994 128.709999,15.3280007 128.97,15.192 C129.230001,15.0559993 129.457999,14.9320006 129.654,14.82 C129.850001,14.7079994 130.039999,14.652 130.224,14.652 C130.472001,14.652 130.655999,14.7439991 130.776,14.928 L131.628,16.008 C131.299998,16.3920019 130.932002,16.7139987 130.524,16.974 C130.115998,17.2340013 129.690002,17.4419992 129.246,17.598 C128.801998,17.7540008 128.350002,17.8639997 127.89,17.928 C127.429998,17.9920003 126.984002,18.024 126.552,18.024 C125.695996,18.024 124.900004,17.8820014 124.164,17.598 C123.427996,17.3139986 122.788003,16.8940028 122.244,16.338 C121.699997,15.7819972 121.272002,15.0940041 120.96,14.274 C120.647998,13.4539959 120.492,12.5040054 120.492,11.424 C120.492,10.5839958 120.627999,9.7940037 120.9,9.054 C121.172001,8.3139963 121.561997,7.67000274 122.07,7.122 C122.578003,6.57399726 123.197996,6.1400016 123.93,5.82 C124.662004,5.4999984 125.487995,5.34 126.408,5.34 C127.184004,5.34 127.899997,5.46399876 128.556,5.712 C129.212003,5.96000124 129.775998,6.32199762 130.248,6.798 C130.720002,7.27400238 131.089999,7.85799654 131.358,8.55 C131.626001,9.24200346 131.76,10.0319956 131.76,10.92 C131.76,11.3680022 131.712,11.6699992 131.616,11.826 C131.52,11.9820008 131.336001,12.06 131.064,12.06 L123.444,12.06 Z M141.912,10.272 C141.912,9.88799808 141.858001,9.5260017 141.75,9.186 C141.641999,8.8459983 141.480001,8.54800128 141.264,8.292 C141.047999,8.03599872 140.774002,7.83400074 140.442,7.686 C140.109998,7.53799926 139.724002,7.464 139.284,7.464 C138.427996,7.464 137.754002,7.70799756 137.262,8.196 C136.769998,8.68400244 136.456001,9.37599552 136.32,10.272 L141.912,10.272 Z M136.26,12.06 C136.308,12.6920032 136.419999,13.2379977 136.596,13.698 C136.772001,14.1580023 137.003999,14.5379985 137.292,14.838 C137.580001,15.1380015 137.921998,15.3619993 138.318,15.51 C138.714002,15.6580007 139.151998,15.732 139.632,15.732 C140.112002,15.732 140.525998,15.6760006 140.874,15.564 C141.222002,15.4519994 141.525999,15.3280007 141.786,15.192 C142.046001,15.0559993 142.273999,14.9320006 142.47,14.82 C142.666001,14.7079994 142.855999,14.652 143.04,14.652 C143.288001,14.652 143.471999,14.7439991 143.592,14.928 L144.444,16.008 C144.115998,16.3920019 143.748002,16.7139987 143.34,16.974 C142.931998,17.2340013 142.506002,17.4419992 142.062,17.598 C141.617998,17.7540008 141.166002,17.8639997 140.706,17.928 C140.245998,17.9920003 139.800002,18.024 139.368,18.024 C138.511996,18.024 137.716004,17.8820014 136.98,17.598 C136.243996,17.3139986 135.604003,16.8940028 135.06,16.338 C134.515997,15.7819972 134.088002,15.0940041 133.776,14.274 C133.463998,13.4539959 133.308,12.5040054 133.308,11.424 C133.308,10.5839958 133.443999,9.7940037 133.716,9.054 C133.988001,8.3139963 134.377997,7.67000274 134.886,7.122 C135.394003,6.57399726 136.013996,6.1400016 136.746,5.82 C137.478004,5.4999984 138.303995,5.34 139.224,5.34 C140.000004,5.34 140.715997,5.46399876 141.372,5.712 C142.028003,5.96000124 142.591998,6.32199762 143.064,6.798 C143.536002,7.27400238 143.905999,7.85799654 144.174,8.55 C144.442001,9.24200346 144.576,10.0319956 144.576,10.92 C144.576,11.3680022 144.528,11.6699992 144.432,11.826 C144.336,11.9820008 144.152001,12.06 143.88,12.06 L136.26,12.06 Z M149.76,14.652 C150.096002,15.060002 150.461998,15.3479992 150.858,15.516 C151.254002,15.6840008 151.683998,15.768 152.148,15.768 C152.596002,15.768 152.999998,15.6840008 153.36,15.516 C153.720002,15.3479992 154.025999,15.0920017 154.278,14.748 C154.530001,14.4039983 154.723999,13.9700026 154.86,13.446 C154.996001,12.9219974 155.064,12.3040036 155.064,11.592 C155.064,10.8719964 155.006001,10.2620025 154.89,9.762 C154.773999,9.2619975 154.608001,8.85600156 154.392,8.544 C154.175999,8.23199844 153.914002,8.00400072 153.606,7.86 C153.297998,7.71599928 152.948002,7.644 152.556,7.644 C151.939997,7.644 151.416002,7.7739987 150.984,8.034 C150.551998,8.2940013 150.144002,8.65999764 149.76,9.132 L149.76,14.652 Z M149.604,7.212 C150.108003,6.64399716 150.679997,6.18400176 151.32,5.832 C151.960003,5.47999824 152.711996,5.304 153.576,5.304 C154.248003,5.304 154.861997,5.4439986 155.418,5.724 C155.974003,6.0040014 156.453998,6.40999734 156.858,6.942 C157.262002,7.47400266 157.573999,8.1299961 157.794,8.91 C158.014001,9.6900039 158.124,10.583995 158.124,11.592 C158.124,12.5120046 158.000001,13.3639961 157.752,14.148 C157.503999,14.9320039 157.150002,15.6119971 156.69,16.188 C156.229998,16.7640029 155.674003,17.2139984 155.022,17.538 C154.369997,17.8620016 153.640004,18.024 152.832,18.024 C152.143997,18.024 151.556002,17.9180011 151.068,17.706 C150.579998,17.4939989 150.144002,17.2000019 149.76,16.824 L149.76,21.864 L146.796,21.864 L146.796,5.532 L148.608,5.532 C148.992002,5.532 149.243999,5.7119982 149.364,6.072 L149.604,7.212 Z"></path>
        </g>
    </g>
</svg>