<?xml version="1.0" encoding="UTF-8"?>
<svg width="22px" height="15px" viewBox="0 0 22 15" version="1.1" xmlns="http://www.w3.org/2000/svg" xmlns:xlink="http://www.w3.org/1999/xlink">
    <!-- Generator: Sketch 47.1 (45422) - http://www.bohemiancoding.com/sketch -->
    <title>Artboard</title>
    <desc>Created with Sketch.</desc>
    <defs></defs>
    <g stroke="none" stroke-width="1" fill="none" fill-rule="evenodd">
        <g fill="#003bde">
            <path d="M1.57142857,2.36842105 L20.4285714,2.36842105 C21.296,2.36842105 22,1.83789474 22,1.18421053 C22,0.530526316 21.296,0 20.4285714,0 L1.57142857,0 C0.704,0 0,0.530526316 0,1.18421053 C0,1.83789474 0.704,2.36842105 1.57142857,2.36842105 Z M20.4285714,6.31578947 L1.57142857,6.31578947 C0.704,6.31578947 0,6.84631579 0,7.5 C0,8.15368421 0.704,8.68421053 1.57142857,8.68421053 L20.4285714,8.68421053 C21.296,8.68421053 22,8.15368421 22,7.5 C22,6.84631579 21.296,6.31578947 20.4285714,6.31578947 Z M20.4285714,12.6315789 L1.57142857,12.6315789 C0.704,12.6315789 0,13.1621053 0,13.8157895 C0,14.4694737 0.704,15 1.57142857,15 L20.4285714,15 C21.296,15 22,14.4694737 22,13.8157895 C22,13.1621053 21.296,12.6315789 20.4285714,12.6315789 Z"></path>
        </g>
    </g>
</svg>