<?xml version="1.0" encoding="UTF-8"?>
<svg width="170px" height="29px" viewBox="0 0 170 29" version="1.1" xmlns="http://www.w3.org/2000/svg" xmlns:xlink="http://www.w3.org/1999/xlink">
    <!-- Generator: Sketch 47.1 (45422) - http://www.bohemiancoding.com/sketch -->
    <title>Artboard 2</title>
    <desc>Created with Sketch.</desc>
    <defs>
        <linearGradient x1="0%" y1="0%" x2="100%" y2="0%" id="linearGradient-1">
            <stop stop-color="#FFFFFF" stop-opacity="0" offset="0%"></stop>
            <stop stop-color="#003BDE" offset="28.6177047%"></stop>
            <stop stop-color="#003BDE" offset="64.3333515%"></stop>
            <stop stop-color="#FFFFFF" stop-opacity="0" offset="100%"></stop>
        </linearGradient>
    </defs>
    <g stroke="none" stroke-width="1" fill="none" fill-rule="evenodd">
        <g fill-rule="nonzero">
            <g>
                <path d="M0,18.4223498 C37.7868892,17.679222 66.1270559,17.3076581 85.0205008,17.3076581 C103.913945,17.3076581 132.240445,17.679222 170,18.4223498 L170,18.7433408 C132.350318,17.28885 104.016985,16.5616046 85,16.5616046 C65.9830153,16.5616046 37.6496818,17.28885 0,18.7433408 L0,18.4223498 Z" fill="url(#linearGradient-1)"></path>
                <path d="M49.9570519,5.22768232 C49.9570519,5.95299268 49.8374275,6.62469298 49.5981756,7.24280334 C49.3589233,7.86091374 49.020558,8.39576506 48.5830683,8.84737337 C48.1455787,9.29898168 47.619232,9.65136777 47.0040124,9.90454214 C46.3887928,10.1577165 45.7052256,10.2843018 44.9532905,10.2843018 C44.2059126,10.2843018 43.524624,10.1577165 42.9094044,9.90454214 C42.2941848,9.65136777 41.7666988,9.29898168 41.3269307,8.84737337 C40.8871626,8.39576506 40.5465183,7.86091374 40.3049876,7.24280334 C40.0634569,6.62469298 39.9426934,5.95299268 39.9426934,5.22768232 C39.9426934,4.502372 40.0634569,3.83067172 40.3049876,3.21256133 C40.5465183,2.59445095 40.8871626,2.05959962 41.3269307,1.60799129 C41.7666988,1.15638297 42.2941848,0.803996914 42.9094044,0.550822548 C43.524624,0.297648186 44.2059126,0.171062904 44.9532905,0.171062904 C45.4545806,0.171062904 45.9262419,0.22922371 46.3682886,0.345547065 C46.8103353,0.461870422 47.2159185,0.626089166 47.5850503,0.83820823 C47.954182,1.05032729 48.2857121,1.30805949 48.5796504,1.61141255 C48.8735889,1.91476562 49.1230904,2.25346678 49.328164,2.6275262 C49.5332371,3.00158562 49.689318,3.40757086 49.7964122,3.84549407 C49.9035058,4.2834173 49.9570519,4.74414211 49.9570519,5.22768232 Z M48.0772235,5.22768232 C48.0772235,4.68484001 48.0043097,4.19788581 47.8584798,3.76680514 C47.71265,3.33572447 47.5053013,2.96965351 47.2364275,2.6685813 C46.9675538,2.36750908 46.6405808,2.13714668 46.2554989,1.97748717 C45.870417,1.81782766 45.4363519,1.7379991 44.9532905,1.7379991 C44.4702292,1.7379991 44.036164,1.81782766 43.6510821,1.97748717 C43.2660002,2.13714668 42.937888,2.36750908 42.6667356,2.6685813 C42.3955833,2.96965351 42.1870953,3.33572447 42.0412655,3.76680514 C41.8954356,4.19788581 41.8225218,4.68484001 41.8225218,5.22768232 C41.8225218,5.77052467 41.8954356,6.25747885 42.0412655,6.68855954 C42.1870953,7.11964019 42.3955833,7.48457076 42.6667356,7.78336213 C42.937888,8.08215349 43.2660002,8.3113755 43.6510821,8.47103497 C44.036164,8.63069449 44.4702292,8.71052308 44.9532905,8.71052308 C45.4363519,8.71052308 45.870417,8.63069449 46.2554989,8.47103497 C46.6405808,8.3113755 46.9675538,8.08215349 47.2364275,7.78336213 C47.5053013,7.48457076 47.71265,7.11964019 47.8584798,6.68855954 C48.0043097,6.25747885 48.0772235,5.77052467 48.0772235,5.22768232 Z M52.8827485,8.3547122 C53.07415,8.58735891 53.2826382,8.75157769 53.5082185,8.84737337 C53.7337992,8.9431691 53.9787439,8.99106624 54.2430608,8.99106624 C54.4982629,8.99106624 54.7283971,8.9431691 54.9334702,8.84737337 C55.1385433,8.75157769 55.3128532,8.60560546 55.4564044,8.40945235 C55.5999555,8.21329924 55.7104657,7.96583072 55.787938,7.66703936 C55.8654097,7.36824799 55.9041454,7.01586191 55.9041454,6.60987059 C55.9041454,6.19931757 55.8711064,5.85149313 55.8050271,5.56638687 C55.7389478,5.28128064 55.6443878,5.04977781 55.5213439,4.8718715 C55.3982999,4.69396519 55.2490545,4.56395868 55.0736028,4.48184808 C54.8981516,4.39973748 54.6987777,4.35868279 54.4754756,4.35868279 C54.1245727,4.35868279 53.8260819,4.43280931 53.579994,4.58106456 C53.3339061,4.72931982 53.1014932,4.93801445 52.8827485,5.2071548 L52.8827485,8.3547122 Z M52.7938838,4.11235221 C53.0809866,3.78847149 53.4068201,3.52617766 53.7713946,3.32546285 C54.1359691,3.12474804 54.5643379,3.02439214 55.0565137,3.02439214 C55.4393172,3.02439214 55.7890754,3.1042207 56.1057995,3.2638802 C56.4225236,3.42353971 56.6959508,3.65504252 56.9260885,3.9583956 C57.1562261,4.26174866 57.3339535,4.63580247 57.4592762,5.08056822 C57.5845988,5.52533401 57.6472591,6.03509635 57.6472591,6.60987059 C57.6472591,7.13446613 57.5766239,7.62027991 57.435351,8.06732652 C57.2940785,8.51437318 57.0924259,8.90211186 56.8303882,9.2305543 C56.56835,9.55899668 56.2516307,9.8155885 55.8802202,10.0003373 C55.5088097,10.1850862 55.0929731,10.2774593 54.6326979,10.2774593 C54.2407801,10.2774593 53.9058324,10.2170176 53.6278439,10.0961326 C53.3498559,9.97524753 53.1014932,9.80760756 52.8827485,9.59320765 L52.8827485,12.4670644 L51.1943207,12.4670644 L51.1943207,3.15439994 L52.2265174,3.15439994 C52.4452621,3.15439994 52.5888112,3.25703666 52.6571693,3.46231317 L52.7938838,4.11235221 Z M65.9390111,10.1748215 L64.2505833,10.1748215 L64.2505833,4.42026543 L60.9967711,4.42026543 L60.9967711,8.22470444 C60.9967711,8.44366604 61.0503172,8.6147272 61.1574113,8.73789313 C61.264505,8.86105905 61.4114717,8.92264104 61.5983163,8.92264104 C61.7031318,8.92264104 61.7908562,8.91009655 61.8614924,8.88500723 C61.9321286,8.85991786 61.9936496,8.83368847 62.0460574,8.80631828 C62.0984651,8.77894808 62.1451752,8.75271869 62.18619,8.72762937 C62.2272048,8.70254 62.2682186,8.68999551 62.3092334,8.68999551 C62.3593625,8.68999551 62.4003763,8.70254 62.4322764,8.72762937 C62.464177,8.75271869 62.4983553,8.79035216 62.5348127,8.84053085 L63.0406572,9.6616328 C62.7945698,9.86690931 62.5120283,10.0220048 62.1930255,10.1269239 C61.8740232,10.231843 61.5436323,10.2843018 61.2018437,10.2843018 C60.5911813,10.2843018 60.1229375,10.1121002 59.7970991,9.7676918 C59.4712603,9.42328344 59.3083438,8.94773334 59.3083438,8.3410272 L59.3083438,4.42026543 L58.5905911,4.42026543 C58.4994472,4.42026543 58.4219764,4.39061483 58.3581758,4.33131272 C58.2943751,4.27201062 58.2624755,4.1830588 58.2624755,4.06445459 L58.2624755,3.39388801 L59.3903724,3.20229756 L59.7458312,1.29323555 C59.768617,1.20200155 59.8119096,1.13129625 59.8757102,1.08111755 C59.9395104,1.03093885 60.0215386,1.00584987 60.1217967,1.00584987 L60.9967711,1.00584987 L60.9967711,3.21598259 L65.9390111,3.21598259 L65.9390111,10.1748215 Z M66.2329479,1.08111755 C66.2329479,1.22709196 66.2033265,1.36508132 66.1440832,1.49508978 C66.0848399,1.62509823 66.0062298,1.73799862 65.9082503,1.83379433 C65.8102709,1.92959003 65.6940645,2.00599736 65.5596276,2.06301862 C65.4251907,2.12003987 65.2827809,2.14855007 65.1323937,2.14855007 C64.9865639,2.14855007 64.8498503,2.12003987 64.7222495,2.06301862 C64.5946482,2.00599736 64.4829991,1.92959003 64.3872983,1.83379433 C64.2915971,1.73799862 64.2152656,1.62509823 64.158301,1.49508978 C64.1013359,1.36508132 64.0728544,1.22709196 64.0728544,1.08111755 C64.0728544,0.930581442 64.1013359,0.790311266 64.158301,0.660302806 C64.2152656,0.530294352 64.2915971,0.416253556 64.3872983,0.318177001 C64.4829991,0.220100446 64.5946482,0.142552705 64.7222495,0.0855314517 C64.8498503,0.0285101989 64.9865639,0 65.1323937,0 C65.2827809,0 65.4251907,0.0285101989 65.5596276,0.0855314517 C65.6940645,0.142552705 65.8102709,0.220100446 65.9082503,0.318177001 C66.0062298,0.416253556 66.0848399,0.530294352 66.1440832,0.660302806 C66.2033265,0.790311266 66.2329479,0.930581442 66.2329479,1.08111755 Z M67.6616172,10.1748215 L67.6616172,3.15439994 L68.6938143,3.15439994 C68.912559,3.15439994 69.0561077,3.25703666 69.1244657,3.46231317 L69.2338376,3.9823444 C69.3568815,3.84549339 69.4856198,3.72004852 69.6200566,3.60600601 C69.7544935,3.49196351 69.8980427,3.39388842 70.0507085,3.31177782 C70.2033739,3.22966721 70.3674302,3.16466396 70.5428814,3.11676611 C70.7183331,3.06886825 70.910871,3.04491968 71.1205015,3.04491968 C71.5625483,3.04491968 71.9259781,3.16466252 72.2108021,3.40415178 C72.4956261,3.64364105 72.7086712,3.96181487 72.8499436,4.35868279 C72.959316,4.12603607 73.0960296,3.92646469 73.2600884,3.75996262 C73.4241466,3.59346057 73.6041528,3.45775202 73.8001116,3.35283292 C73.9960705,3.24791381 74.2045582,3.17036607 74.4255816,3.12018737 C74.646605,3.07000866 74.8687643,3.04491968 75.0920663,3.04491968 C75.4794267,3.04491968 75.8234891,3.1042209 76.124263,3.22282511 C76.4250373,3.34142931 76.6779569,3.51477132 76.88303,3.74285634 C77.0881036,3.97094135 77.2441845,4.24920089 77.3512782,4.5776433 C77.4583718,4.90608572 77.5119179,5.28242033 77.5119179,5.70665849 L77.5119179,10.1748215 L75.8234906,10.1748215 L75.8234906,5.70665849 C75.8234906,5.25961183 75.7255126,4.92319148 75.5295538,4.69738734 C75.3335949,4.47158317 75.0464966,4.35868279 74.6682505,4.35868279 C74.4950775,4.35868279 74.3344392,4.38833339 74.1863307,4.4476355 C74.0382222,4.5069376 73.9083446,4.5924682 73.7966936,4.70422985 C73.6850426,4.81599151 73.5973182,4.95626169 73.5335175,5.1250446 C73.4697174,5.29382752 73.4378173,5.48769684 73.4378173,5.70665849 L73.4378173,10.1748215 L71.7425539,10.1748215 L71.7425539,5.70665849 C71.7425539,5.23680334 71.647994,4.89468097 71.4588707,4.68028105 C71.2697479,4.46588113 70.9929031,4.35868279 70.6283286,4.35868279 C70.3822407,4.35868279 70.1532453,4.41912441 69.9413367,4.54000946 C69.7294275,4.66089452 69.5323323,4.82625368 69.350045,5.03609189 L69.350045,10.1748215 L67.6616172,10.1748215 Z M85.1542752,3.15439994 L85.1542752,10.1748215 L84.1220781,10.1748215 C83.8987765,10.1748215 83.757506,10.0721848 83.6982623,9.86690828 L83.5820548,9.30582197 C83.2949526,9.59777076 82.9782329,9.83383525 82.6318873,10.0140224 C82.2855413,10.1942095 81.8776797,10.2843018 81.4082897,10.2843018 C81.0254862,10.2843018 80.6871205,10.2192985 80.3931822,10.0892901 C80.0992439,9.95928161 79.8520205,9.77567591 79.6515048,9.5384675 C79.4509886,9.3012591 79.2994645,9.01957836 79.1969277,8.69341674 C79.0943914,8.36725518 79.043124,8.00802667 79.043124,7.6157205 L79.043124,3.15439994 L80.7315513,3.15439994 L80.7315513,7.6157205 C80.7315513,8.04452032 80.8306687,8.37637902 81.0289062,8.6113066 C81.2271437,8.84623413 81.5244952,8.96369614 81.9209702,8.96369614 C82.2126298,8.96369614 82.4860566,8.89869291 82.7412587,8.76868446 C82.9964613,8.63867597 83.237988,8.45963192 83.4658474,8.23154691 L83.4658474,3.15439994 L85.1542752,3.15439994 Z M86.8221954,10.1748215 L86.8221954,3.15439994 L87.8543921,3.15439994 C88.0731368,3.15439994 88.2166859,3.25703666 88.285044,3.46231317 L88.3944153,3.9823444 C88.5174593,3.84549339 88.646198,3.72004852 88.7806349,3.60600601 C88.9150717,3.49196351 89.0586209,3.39388842 89.2112863,3.31177782 C89.3639521,3.22966721 89.528008,3.16466396 89.7034597,3.11676611 C89.8789113,3.06886825 90.0714493,3.04491968 90.2810797,3.04491968 C90.7231265,3.04491968 91.0865563,3.16466252 91.3713803,3.40415178 C91.6562039,3.64364105 91.8692489,3.96181487 92.0105219,4.35868279 C92.1198942,4.12603607 92.2566078,3.92646469 92.4206661,3.75996262 C92.5847249,3.59346057 92.764731,3.45775202 92.9606894,3.35283292 C93.1566482,3.24791381 93.3651364,3.17036607 93.5861598,3.12018737 C93.8071832,3.07000866 94.0293425,3.04491968 94.2526446,3.04491968 C94.6400049,3.04491968 94.9840669,3.1042209 95.2848412,3.22282511 C95.585615,3.34142931 95.8385351,3.51477132 96.0436082,3.74285634 C96.2486813,3.97094135 96.4047627,4.24920089 96.5118564,4.5776433 C96.6189501,4.90608572 96.6724962,5.28242033 96.6724962,5.70665849 L96.6724962,10.1748215 L94.9840683,10.1748215 L94.9840683,5.70665849 C94.9840683,5.25961183 94.8860904,4.92319148 94.6901315,4.69738734 C94.4941727,4.47158317 94.2070748,4.35868279 93.8288287,4.35868279 C93.6556557,4.35868279 93.4950174,4.38833339 93.3469089,4.4476355 C93.1988004,4.5069376 93.0689229,4.5924682 92.9572718,4.70422985 C92.8456208,4.81599151 92.7578964,4.95626169 92.6940958,5.1250446 C92.6302951,5.29382752 92.5983955,5.48769684 92.5983955,5.70665849 L92.5983955,10.1748215 L90.9031321,10.1748215 L90.9031321,5.70665849 C90.9031321,5.23680334 90.8085717,4.89468097 90.6194489,4.68028105 C90.4303256,4.46588113 90.1534808,4.35868279 89.7889063,4.35868279 C89.5428184,4.35868279 89.3138236,4.41912441 89.1019144,4.54000946 C88.8900058,4.66089452 88.6929105,4.82625368 88.5106232,5.03609189 L88.5106232,10.1748215 L86.8221954,10.1748215 Z M103.692801,2.08012491 C103.638115,2.17592062 103.580011,2.2454855 103.518489,2.28882165 C103.456967,2.33215781 103.380636,2.35382556 103.289492,2.35382556 C103.193791,2.35382556 103.090117,2.31847291 102.978466,2.24776656 C102.866815,2.1770602 102.733519,2.09837205 102.578575,2.01169975 C102.423631,1.92502744 102.242486,1.84633929 102.035134,1.77563294 C101.827782,1.70492659 101.582837,1.66957394 101.300292,1.66957394 C101.04509,1.66957394 100.821791,1.70036495 100.630389,1.76194791 C100.438988,1.82353086 100.27835,1.90906146 100.14847,2.01854226 C100.01859,2.12802307 99.9217515,2.25916999 99.8579508,2.41198694 C99.7941501,2.5648039 99.7622505,2.73244387 99.7622505,2.91491188 C99.7622505,3.14755859 99.8271896,3.34142795 99.9570691,3.49652575 C100.086949,3.65162356 100.25898,3.78391088 100.473168,3.89339169 C100.687355,4.0028725 100.931161,4.10094758 101.204591,4.18761988 C101.478023,4.27429219 101.758285,4.36666523 102.045388,4.46474179 C102.33249,4.56281834 102.612753,4.67685914 102.886184,4.8068676 C103.159614,4.93687604 103.40342,5.10109482 103.617607,5.29952876 C103.831795,5.49796274 104.003826,5.7408696 104.133706,6.02825675 C104.263586,6.31564384 104.328525,6.66460869 104.328525,7.07516171 C104.328525,7.52220832 104.252193,7.94073804 104.099527,8.33076339 C103.946861,8.72078879 103.723563,9.06063034 103.429625,9.3502983 C103.135687,9.63996627 102.776814,9.86804787 102.352996,10.0345499 C101.929178,10.201052 101.443845,10.2843018 100.896983,10.2843018 C100.582538,10.2843018 100.272654,10.2535107 99.9673227,10.1919278 C99.6619915,10.1303449 99.3691969,10.0425334 99.0889302,9.92849095 C98.8086636,9.81444843 98.5454899,9.67759945 98.299402,9.51793998 C98.0533146,9.35828046 97.8345728,9.18037683 97.6431713,8.98422371 L98.1831946,8.10153914 C98.2287663,8.03767531 98.2880091,7.98407616 98.360924,7.94073999 C98.4338389,7.89740383 98.5113097,7.87573608 98.5933388,7.87573608 C98.7072685,7.87573608 98.8303105,7.92249281 98.9624687,8.01600766 C99.0946274,8.10952252 99.2518477,8.21329963 99.434135,8.32734215 C99.6164222,8.44138468 99.8294673,8.54516179 100.073277,8.63867665 C100.317086,8.7321915 100.60988,8.77894823 100.951669,8.77894823 C101.475745,8.77894823 101.881328,8.65464374 102.168431,8.40603111 C102.455533,8.15741844 102.599082,7.80047075 102.599082,7.33517729 C102.599082,7.07516039 102.534143,6.86304452 102.404264,6.69882331 C102.274384,6.53460209 102.102353,6.39661275 101.888165,6.28485109 C101.673978,6.17308944 101.430172,6.07843558 101.156742,6.00088665 C100.88331,5.92333777 100.605326,5.83894757 100.322781,5.74771359 C100.040236,5.65647956 99.762252,5.54700039 99.4888209,5.41927281 C99.2153898,5.29154519 98.9715844,5.12504563 98.7573966,4.91976912 C98.5432093,4.7144926 98.3711781,4.45790081 98.2412985,4.14998604 C98.1114185,3.84207128 98.04648,3.46231543 98.04648,3.01070711 C98.04648,2.65033279 98.1182546,2.29908714 98.2618057,1.95695962 C98.4053568,1.6148321 98.613845,1.31148358 98.8872756,1.04690497 C99.1607068,0.782326356 99.4979332,0.570210478 99.8989651,0.410550969 C100.299998,0.25089146 100.760266,0.171062904 101.279785,0.171062904 C101.863104,0.171062904 102.400843,0.26229554 102.893019,0.44476355 C103.385195,0.627231562 103.80445,0.882682943 104.150795,1.21112536 L103.692801,2.08012491 Z M107.274728,0.00684251617 L107.274728,10.1748215 L105.586301,10.1748215 L105.586301,0.00684251617 L107.274728,0.00684251617 Z M113.48158,5.85719383 C113.48158,5.63823223 113.450819,5.43181837 113.389298,5.23794613 C113.327776,5.04407385 113.235494,4.87415305 113.11245,4.72817866 C112.989406,4.58220425 112.833325,4.46702305 112.644202,4.38263159 C112.455078,4.29824014 112.235198,4.25604504 111.984553,4.25604504 C111.496935,4.25604504 111.112998,4.39517482 110.832731,4.67343853 C110.552464,4.95170223 110.373597,5.34628338 110.296125,5.85719383 L113.48158,5.85719383 Z M110.261946,6.87672874 C110.28929,7.23710303 110.353089,7.5484344 110.453347,7.81073217 C110.553605,8.07302995 110.685761,8.28970747 110.84982,8.46077121 C111.013879,8.631835 111.208695,8.75956068 111.434276,8.84395213 C111.659856,8.92834359 111.909358,8.97053866 112.182789,8.97053866 C112.45622,8.97053866 112.692051,8.93860726 112.890288,8.87474347 C113.088526,8.81087963 113.261696,8.74017434 113.409805,8.66262546 C113.557913,8.58507652 113.687791,8.51437123 113.799442,8.45050745 C113.911093,8.38664366 114.019324,8.3547122 114.124139,8.3547122 C114.265412,8.3547122 114.370226,8.40717099 114.438583,8.51209007 L114.923921,9.12791653 C114.737077,9.34687814 114.527449,9.53048384 114.295033,9.67873908 C114.062616,9.82699433 113.81995,9.9455968 113.567027,10.0345499 C113.314103,10.1235031 113.056626,10.1862255 112.794588,10.2227191 C112.53255,10.2592128 112.278491,10.2774593 112.032403,10.2774593 C111.544784,10.2774593 111.091352,10.1964903 110.672091,10.0345499 C110.25283,9.87260957 109.888261,9.63312389 109.578373,9.31608573 C109.268484,8.99904757 109.024679,8.60674724 108.846948,8.13917295 C108.669218,7.67159867 108.580355,7.12990492 108.580355,6.51407539 C108.580355,6.03509684 108.657825,5.58463571 108.812769,5.16267842 C108.967714,4.74072116 109.189873,4.3735098 109.479254,4.06103333 C109.768635,3.74855687 110.121812,3.50108834 110.538794,3.31862033 C110.955776,3.13615232 111.426298,3.04491968 111.950374,3.04491968 C112.392421,3.04491968 112.800283,3.11562498 113.173971,3.25703769 C113.547661,3.39845039 113.868937,3.60486423 114.137811,3.8762854 C114.406685,4.14770656 114.617451,4.48070568 114.770117,4.87529273 C114.922782,5.26987983 114.999114,5.72034096 114.999114,6.22668971 C114.999114,6.48214491 114.971772,6.65434653 114.917085,6.74329964 C114.862399,6.8322528 114.757585,6.87672874 114.602641,6.87672874 L110.261946,6.87672874 Z M120.78215,5.85719383 C120.78215,5.63823223 120.751389,5.43181837 120.689867,5.23794613 C120.628345,5.04407385 120.536063,4.87415305 120.41302,4.72817866 C120.289976,4.58220425 120.133895,4.46702305 119.944772,4.38263159 C119.755649,4.29824014 119.535768,4.25604504 119.285123,4.25604504 C118.797504,4.25604504 118.413567,4.39517482 118.133301,4.67343853 C117.853034,4.95170223 117.674167,5.34628338 117.596695,5.85719383 L120.78215,5.85719383 Z M117.562517,6.87672874 C117.589859,7.23710303 117.653659,7.5484344 117.753917,7.81073217 C117.854175,8.07302995 117.986331,8.28970747 118.15039,8.46077121 C118.314448,8.631835 118.509265,8.75956068 118.734846,8.84395213 C118.960426,8.92834359 119.209928,8.97053866 119.483359,8.97053866 C119.75679,8.97053866 119.992621,8.93860726 120.190858,8.87474347 C120.389096,8.81087963 120.562266,8.74017434 120.710374,8.66262546 C120.858483,8.58507652 120.98836,8.51437123 121.100011,8.45050745 C121.211662,8.38664366 121.319894,8.3547122 121.424709,8.3547122 C121.565982,8.3547122 121.670795,8.40717099 121.739153,8.51209007 L122.224491,9.12791653 C122.037646,9.34687814 121.828019,9.53048384 121.595603,9.67873908 C121.363187,9.82699433 121.12052,9.9455968 120.867597,10.0345499 C120.614673,10.1235031 120.357196,10.1862255 120.095158,10.2227191 C119.83312,10.2592128 119.579061,10.2774593 119.332973,10.2774593 C118.845355,10.2774593 118.391922,10.1964903 117.972661,10.0345499 C117.5534,9.87260957 117.188831,9.63312389 116.878943,9.31608573 C116.569054,8.99904757 116.325248,8.60674724 116.147518,8.13917295 C115.969788,7.67159867 115.880924,7.12990492 115.880924,6.51407539 C115.880924,6.03509684 115.958396,5.58463571 116.11334,5.16267842 C116.268284,4.74072116 116.490443,4.3735098 116.779824,4.06103333 C117.069205,3.74855687 117.422381,3.50108834 117.839364,3.31862033 C118.256346,3.13615232 118.726868,3.04491968 119.250944,3.04491968 C119.692991,3.04491968 120.100852,3.11562498 120.474542,3.25703769 C120.84823,3.39845039 121.169507,3.60486423 121.438381,3.8762854 C121.707254,4.14770656 121.918021,4.48070568 122.070687,4.87529273 C122.223352,5.26987983 122.299684,5.72034096 122.299684,6.22668971 C122.299684,6.48214491 122.272341,6.65434653 122.217655,6.74329964 C122.162969,6.8322528 122.058155,6.87672874 121.903211,6.87672874 L117.562517,6.87672874 Z M125.252723,8.3547122 C125.444125,8.58735891 125.652613,8.75157769 125.878194,8.84737337 C126.103774,8.9431691 126.348719,8.99106624 126.613035,8.99106624 C126.868238,8.99106624 127.098372,8.9431691 127.303445,8.84737337 C127.508519,8.75157769 127.682828,8.60560546 127.82638,8.40945235 C127.969931,8.21329924 128.08044,7.96583072 128.157913,7.66703936 C128.235385,7.36824799 128.27412,7.01586191 128.27412,6.60987059 C128.27412,6.19931757 128.241081,5.85149313 128.175002,5.56638687 C128.108923,5.28128064 128.014363,5.04977781 127.891319,4.8718715 C127.768275,4.69396519 127.619029,4.56395868 127.443578,4.48184808 C127.268126,4.39973748 127.068753,4.35868279 126.845451,4.35868279 C126.494547,4.35868279 126.196057,4.43280931 125.949969,4.58106456 C125.703881,4.72931982 125.471468,4.93801445 125.252723,5.2071548 L125.252723,8.3547122 Z M125.163859,4.11235221 C125.450961,3.78847149 125.776795,3.52617766 126.14137,3.32546285 C126.505944,3.12474804 126.934313,3.02439214 127.426488,3.02439214 C127.809292,3.02439214 128.159051,3.1042207 128.475775,3.2638802 C128.792499,3.42353971 129.065926,3.65504252 129.296063,3.9583956 C129.526201,4.26174866 129.703929,4.63580247 129.829251,5.08056822 C129.954573,5.52533401 130.017234,6.03509635 130.017234,6.60987059 C130.017234,7.13446613 129.946599,7.62027991 129.805326,8.06732652 C129.664053,8.51437318 129.462401,8.90211186 129.200363,9.2305543 C128.938325,9.55899668 128.621605,9.8155885 128.250195,10.0003373 C127.878785,10.1850862 127.462948,10.2774593 127.002673,10.2774593 C126.610755,10.2774593 126.275807,10.2170176 125.997819,10.0961326 C125.719831,9.97524753 125.471468,9.80760756 125.252723,9.59320765 L125.252723,12.4670644 L123.564296,12.4670644 L123.564296,3.15439994 L124.596493,3.15439994 C124.815237,3.15439994 124.958786,3.25703666 125.027144,3.46231317 L125.163859,4.11235221 Z" fill="#003BDE"></path>
                <path d="M58.1464186,26.0807334 C58.3370232,26.0807334 58.5050212,26.0567368 58.6504179,26.0087429 C58.7958147,25.960749 58.9167734,25.8929586 59.0132973,25.8053696 C59.1098213,25.7177807 59.1825184,25.6115958 59.2313912,25.4868116 C59.2802645,25.3620274 59.3047002,25.2228471 59.3047002,25.0692666 C59.3047002,24.9180857 59.2808754,24.7825049 59.2332242,24.6625201 C59.1855731,24.5425353 59.1140976,24.4405498 59.0187953,24.3565604 C58.9234935,24.272571 58.8031456,24.2083801 58.6577489,24.1639857 C58.5123521,24.1195914 58.3419103,24.0973945 58.1464186,24.0973945 L57.3620128,24.0973945 L57.3620128,26.0807334 L58.1464186,26.0807334 Z M58.1464186,23.4386812 C58.4909726,23.4386812 58.7897035,23.4782756 59.0426206,23.5574656 C59.2955382,23.6366556 59.5044663,23.7476399 59.6694126,23.8904218 C59.8343583,24.0332037 59.95715,24.2047794 60.0377899,24.405154 C60.1184303,24.6055286 60.15875,24.8268973 60.15875,25.0692666 C60.15875,25.3164353 60.1159865,25.5426032 60.0304589,25.7477772 C59.9449314,25.9529512 59.817864,26.1293263 59.6492527,26.2769076 C59.4806409,26.4244888 59.2711016,26.5396726 59.0206283,26.6224621 C58.7701544,26.7052516 58.4787545,26.7466457 58.1464186,26.7466457 L57.3620128,26.7466457 L57.3620128,28.6219988 L56.504298,28.6219988 L56.504298,23.4386812 L58.1464186,23.4386812 Z M65.1111033,25.9223542 C65.306595,25.9223542 65.4776477,25.8989576 65.6242661,25.8521635 C65.770885,25.8053694 65.8930653,25.7399787 65.9908109,25.6559893 C66.088557,25.5719999 66.161865,25.4718141 66.2107378,25.3554289 C66.2596106,25.2390436 66.2840468,25.1100619 66.2840468,24.9684798 C66.2840468,24.6853157 66.1887464,24.4693463 65.9981419,24.3205651 C65.8075378,24.171784 65.5191919,24.0973945 65.1330961,24.0973945 L64.4366612,24.0973945 L64.4366612,25.9223542 L65.1111033,25.9223542 Z M67.5962773,28.6219988 L66.8301988,28.6219988 C66.6786928,28.6219988 66.5687305,28.5644069 66.5003082,28.4492215 L65.2687177,26.7034514 C65.2271758,26.643459 65.1819689,26.6002651 65.1330961,26.5738685 C65.0842233,26.5474718 65.0109153,26.5342737 64.9131692,26.5342737 L64.4366612,26.5342737 L64.4366612,28.6219988 L63.5789464,28.6219988 L63.5789464,23.4386812 L65.1330961,23.4386812 C65.4800939,23.4386812 65.7788248,23.4734763 66.0292981,23.5430675 C66.2797719,23.6126587 66.4856458,23.7116447 66.6469262,23.8400284 C66.808207,23.9684121 66.9273326,24.1225903 67.0043076,24.3025675 C67.0812825,24.4825447 67.1197692,24.6829163 67.1197692,24.9036884 C67.1197692,25.0836656 67.0922784,25.2516417 67.0372963,25.407622 C66.9823147,25.5636023 66.9028974,25.7051822 66.7990426,25.8323661 C66.6951877,25.95955 66.5675089,26.0699344 66.4160028,26.1635225 C66.2644973,26.2571106 66.092223,26.3303003 65.8991751,26.3830936 C66.0042516,26.4454857 66.0946648,26.5330732 66.1704181,26.645859 L67.5962773,28.6219988 Z M75.73024,26.03034 C75.73024,26.4142914 75.6667063,26.7682413 75.5396369,27.0922002 C75.4125675,27.4161592 75.2335731,27.6951196 75.0026488,27.92909 C74.7717245,28.1630604 74.4943746,28.3460344 74.1705918,28.4780178 C73.846809,28.610001 73.4869877,28.6759917 73.0911176,28.6759917 C72.6976909,28.6759917 72.3390912,28.610001 72.0153084,28.4780178 C71.6915256,28.3460344 71.4135654,28.1630604 71.181419,27.92909 C70.9492725,27.6951196 70.7696678,27.4161592 70.6425979,27.0922002 C70.5155285,26.7682413 70.4519948,26.4142914 70.4519948,26.03034 C70.4519948,25.6463887 70.5155285,25.2924388 70.6425979,24.9684798 C70.7696678,24.6445208 70.9492725,24.3649605 71.181419,24.1297903 C71.4135654,23.8946201 71.6915256,23.7110461 72.0153084,23.5790627 C72.3390912,23.4470795 72.6976909,23.3810888 73.0911176,23.3810888 C73.4869877,23.3810888 73.846809,23.4470795 74.1705918,23.5790627 C74.4943746,23.7110461 74.7717245,23.8946201 75.0026488,24.1297903 C75.2335731,24.3649605 75.4125675,24.6445208 75.5396369,24.9684798 C75.6667063,25.2924388 75.73024,25.6463887 75.73024,26.03034 Z M74.8541979,26.03034 C74.8541979,25.7327777 74.8132678,25.4652156 74.7314057,25.2276457 C74.6495432,24.9900758 74.53225,24.7885044 74.3795223,24.6229253 C74.2267946,24.4573463 74.0416914,24.3301643 73.8242073,24.2413756 C73.6067228,24.1525868 73.3623621,24.1081931 73.0911176,24.1081931 C72.8223164,24.1081931 72.5791775,24.1525868 72.3616934,24.2413756 C72.1442089,24.3301643 71.9584948,24.4573463 71.804545,24.6229253 C71.6505956,24.7885044 71.5320807,24.9900758 71.4489965,25.2276457 C71.3659128,25.4652156 71.3243714,25.7327777 71.3243714,26.03034 C71.3243714,26.330302 71.3659128,26.5990639 71.4489965,26.8366339 C71.5320807,27.0742038 71.6505956,27.2751753 71.804545,27.4395545 C71.9584948,27.6039336 72.1442089,27.7299158 72.3616934,27.8175047 C72.5791775,27.9050936 72.8223164,27.9488874 73.0911176,27.9488874 C73.3623621,27.9488874 73.6067228,27.9050936 73.8242073,27.8175047 C74.0416914,27.7299158 74.2267946,27.6039336 74.3795223,27.4395545 C74.53225,27.2751753 74.6495432,27.0742038 74.7314057,26.8366339 C74.8132678,26.5990639 74.8541979,26.330302 74.8541979,26.03034 Z M82.6949247,24.1405888 L81.0491386,24.1405888 L81.0491386,28.6219988 L80.1950893,28.6219988 L80.1950893,24.1405888 L78.5456378,24.1405888 L78.5456378,23.4386812 L82.6949247,23.4386812 L82.6949247,24.1405888 Z M90.7812368,26.03034 C90.7812368,26.4142914 90.717703,26.7682413 90.5906336,27.0922002 C90.4635638,27.4161592 90.2845698,27.6951196 90.0536455,27.92909 C89.8227207,28.1630604 89.5453713,28.3460344 89.2215886,28.4780178 C88.8978058,28.610001 88.5379845,28.6759917 88.1421139,28.6759917 C87.7486876,28.6759917 87.390088,28.610001 87.0663052,28.4780178 C86.7425224,28.3460344 86.4645617,28.1630604 86.2324157,27.92909 C86.0002693,27.6951196 85.820664,27.4161592 85.6935946,27.0922002 C85.5665252,26.7682413 85.5029915,26.4142914 85.5029915,26.03034 C85.5029915,25.6463887 85.5665252,25.2924388 85.6935946,24.9684798 C85.820664,24.6445208 86.0002693,24.3649605 86.2324157,24.1297903 C86.4645617,23.8946201 86.7425224,23.7110461 87.0663052,23.5790627 C87.390088,23.4470795 87.7486876,23.3810888 88.1421139,23.3810888 C88.5379845,23.3810888 88.8978058,23.4470795 89.2215886,23.5790627 C89.5453713,23.7110461 89.8227207,23.8946201 90.0536455,24.1297903 C90.2845698,24.3649605 90.4635638,24.6445208 90.5906336,24.9684798 C90.717703,25.2924388 90.7812368,25.6463887 90.7812368,26.03034 Z M89.9051946,26.03034 C89.9051946,25.7327777 89.8642641,25.4652156 89.782402,25.2276457 C89.7005399,24.9900758 89.5832468,24.7885044 89.4305191,24.6229253 C89.2777913,24.4573463 89.0926881,24.3301643 88.8752036,24.2413756 C88.6577195,24.1525868 88.4133589,24.1081931 88.1421139,24.1081931 C87.8733132,24.1081931 87.6301742,24.1525868 87.4126902,24.2413756 C87.1952056,24.3301643 87.0094916,24.4573463 86.8555417,24.6229253 C86.7015923,24.7885044 86.583077,24.9900758 86.4999933,25.2276457 C86.4169096,25.4652156 86.3753682,25.7327777 86.3753682,26.03034 C86.3753682,26.330302 86.4169096,26.5990639 86.4999933,26.8366339 C86.583077,27.0742038 86.7015923,27.2751753 86.8555417,27.4395545 C87.0094916,27.6039336 87.1952056,27.7299158 87.4126902,27.8175047 C87.6301742,27.9050936 87.8733132,27.9488874 88.1421139,27.9488874 C88.4133589,27.9488874 88.6577195,27.9050936 88.8752036,27.8175047 C89.0926881,27.7299158 89.2777913,27.6039336 89.4305191,27.4395545 C89.5832468,27.2751753 89.7005399,27.0742038 89.782402,26.8366339 C89.8642641,26.5990639 89.9051946,26.330302 89.9051946,26.03034 Z M97.9841757,27.4665509 C98.0306047,27.4665509 98.0709244,27.4845484 98.1051354,27.5205438 L98.4460224,27.8840959 C98.2309816,28.1384637 97.967072,28.3346359 97.6542851,28.4726184 C97.3414988,28.610601 96.9676269,28.6795912 96.5326583,28.6795912 C96.1465624,28.6795912 95.7977375,28.6142005 95.4861728,28.483417 C95.1746081,28.3526336 94.908866,28.1702594 94.6889376,27.9362891 C94.4690097,27.7023187 94.2997901,27.4233582 94.1812733,27.0993993 C94.0627565,26.7754403 94.0034991,26.4190908 94.0034991,26.03034 C94.0034991,25.6415892 94.066422,25.2846398 94.1922697,24.959481 C94.3181174,24.6343222 94.4952789,24.3547618 94.7237594,24.1207914 C94.9522403,23.886821 95.2259243,23.7050468 95.5448199,23.5754632 C95.8637156,23.4458796 96.2149843,23.3810888 96.5986363,23.3810888 C96.979845,23.3810888 97.3164518,23.4416802 97.6084674,23.5628649 C97.9004826,23.6840495 98.1540072,23.8454267 98.3690479,24.0470011 L98.0868085,24.4393495 C98.067259,24.4657462 98.044045,24.4885429 98.0171645,24.5077405 C97.9902845,24.5269381 97.9536303,24.5365367 97.9072013,24.5365367 C97.8583285,24.5365367 97.8027365,24.5143399 97.7404235,24.4699454 C97.6781105,24.4255511 97.5986932,24.3763581 97.5021692,24.3223649 C97.4056453,24.2683717 97.2846866,24.2191787 97.1392899,24.1747843 C96.9938931,24.1303899 96.8124554,24.1081931 96.5949708,24.1081931 C96.3432753,24.1081931 96.1123544,24.151387 95.9022013,24.237776 C95.6920477,24.3241651 95.5112208,24.4501472 95.3597148,24.6157262 C95.2082087,24.7813053 95.0903047,24.9828768 95.0059993,25.2204466 C94.9216934,25.4580166 94.8795412,25.7279783 94.8795412,26.03034 C94.8795412,26.3351014 94.9235259,26.6068629 95.0114973,26.8456327 C95.0994686,27.0844024 95.2204268,27.2859739 95.3743766,27.4503531 C95.528326,27.6147322 95.7091534,27.7401145 95.9168627,27.8265035 C96.1245725,27.9128926 96.348163,27.9560864 96.5876399,27.9560864 C96.7342588,27.9560864 96.8656025,27.9482876 96.9816755,27.9326895 C97.097749,27.9170915 97.2046566,27.8918951 97.3024022,27.8570995 C97.4001483,27.8223039 97.4923945,27.7785101 97.5791437,27.7257168 C97.6658929,27.6729235 97.7520303,27.6081326 97.8375578,27.5313424 C97.8864306,27.4881479 97.9353029,27.4665509 97.9841757,27.4665509 Z M106.642298,26.03034 C106.642298,26.4142914 106.578764,26.7682413 106.451694,27.0922002 C106.324625,27.4161592 106.14563,27.6951196 105.914706,27.92909 C105.683782,28.1630604 105.406432,28.3460344 105.082649,28.4780178 C104.758867,28.610001 104.399045,28.6759917 104.003175,28.6759917 C103.609748,28.6759917 103.251149,28.610001 102.927366,28.4780178 C102.603583,28.3460344 102.325623,28.1630604 102.093476,27.92909 C101.86133,27.6951196 101.681725,27.4161592 101.554656,27.0922002 C101.427586,26.7682413 101.364052,26.4142914 101.364052,26.03034 C101.364052,25.6463887 101.427586,25.2924388 101.554656,24.9684798 C101.681725,24.6445208 101.86133,24.3649605 102.093476,24.1297903 C102.325623,23.8946201 102.603583,23.7110461 102.927366,23.5790627 C103.251149,23.4470795 103.609748,23.3810888 104.003175,23.3810888 C104.399045,23.3810888 104.758867,23.4470795 105.082649,23.5790627 C105.406432,23.7110461 105.683782,23.8946201 105.914706,24.1297903 C106.14563,24.3649605 106.324625,24.6445208 106.451694,24.9684798 C106.578764,25.2924388 106.642298,25.6463887 106.642298,26.03034 Z M105.766256,26.03034 C105.766256,25.7327777 105.725325,25.4652156 105.643463,25.2276457 C105.561601,24.9900758 105.444308,24.7885044 105.29158,24.6229253 C105.138852,24.4573463 104.953749,24.3301643 104.736264,24.2413756 C104.51878,24.1525868 104.274419,24.1081931 104.003175,24.1081931 C103.734374,24.1081931 103.491235,24.1525868 103.273751,24.2413756 C103.056267,24.3301643 102.870552,24.4573463 102.716603,24.6229253 C102.562653,24.7885044 102.444138,24.9900758 102.361054,25.2276457 C102.27797,25.4652156 102.236429,25.7327777 102.236429,26.03034 C102.236429,26.330302 102.27797,26.5990639 102.361054,26.8366339 C102.444138,27.0742038 102.562653,27.2751753 102.716603,27.4395545 C102.870552,27.6039336 103.056267,27.7299158 103.273751,27.8175047 C103.491235,27.9050936 103.734374,27.9488874 104.003175,27.9488874 C104.274419,27.9488874 104.51878,27.9050936 104.736264,27.8175047 C104.953749,27.7299158 105.138852,27.6039336 105.29158,27.4395545 C105.444308,27.2751753 105.561601,27.0742038 105.643463,26.8366339 C105.725325,26.5990639 105.766256,26.330302 105.766256,26.03034 Z M113.229441,27.9164917 L113.229441,28.6219988 L110.179788,28.6219988 L110.179788,23.4386812 L111.037503,23.4386812 L111.037503,27.9164917 L113.229441,27.9164917 Z" fill="#003BDE"></path>
            </g>
        </g>
    </g>
</svg>