<?xml version="1.0" encoding="UTF-8"?>
<svg width="349px" height="59px" viewBox="0 0 349 59" version="1.1" xmlns="http://www.w3.org/2000/svg" xmlns:xlink="http://www.w3.org/1999/xlink">
    <!-- Generator: Sketch 47.1 (45422) - http://www.bohemiancoding.com/sketch -->
    <title>Artboard</title>
    <desc>Created with Sketch.</desc>
    <defs>
        <linearGradient x1="0%" y1="0%" x2="100%" y2="0%" id="linearGradient-1">
            <stop stop-color="#FFFFFF" stop-opacity="0" offset="0%"></stop>
            <stop stop-color="#003BDE" offset="28.6177047%"></stop>
            <stop stop-color="#003BDE" offset="64.3333515%"></stop>
            <stop stop-color="#FFFFFF" stop-opacity="0" offset="100%"></stop>
        </linearGradient>
    </defs>
    <g stroke="none" stroke-width="1" fill="none" fill-rule="evenodd">
        <g>
            <g>
                <path d="M0,37.8200004 C77.5742608,36.2944028 135.754956,35.5316039 174.542087,35.5316039 C213.329217,35.5316039 271.481855,36.2944028 349,37.8200004 L349,38.4789762 C271.707418,35.4929921 213.540751,34 174.5,34 C135.459249,34 77.292582,35.4929921 0,38.4789762 L0,37.8200004 Z" fill="url(#linearGradient-1)"></path>
                <path d="M102.558889,10.7321243 C102.558889,12.2211438 102.313307,13.600105 101.822137,14.8690492 C101.330966,16.1379935 100.636322,17.2360118 99.7381813,18.1631371 C98.840041,19.0902624 97.7594822,19.8136903 96.4964725,20.3334424 C95.2334628,20.8531944 93.8301397,21.1130666 92.2864611,21.1130666 C90.7521382,21.1130666 89.3534929,20.8531944 88.0904831,20.3334424 C86.8274734,19.8136903 85.7445757,19.0902624 84.8417577,18.1631371 C83.9389396,17.2360118 83.2396169,16.1379935 82.7437687,14.8690492 C82.2479204,13.600105 82,12.2211438 82,10.7321243 C82,9.24310487 82.2479204,7.8641437 82.7437687,6.59519944 C83.2396169,5.32625518 83.9389396,4.22823687 84.8417577,3.30111154 C85.7445757,2.37398622 86.8274734,1.65055837 88.0904831,1.13080629 C89.3534929,0.611054218 90.7521382,0.351182079 92.2864611,0.351182079 C93.3155802,0.351182079 94.2838731,0.470582792 95.191369,0.709387799 C96.0988649,0.948192807 96.9315032,1.28532423 97.6893091,1.72079219 C98.4471149,2.15626014 99.1277266,2.68536918 99.7311646,3.30813518 C100.334603,3.93090118 100.846815,4.62623475 101.267819,5.39415673 C101.688822,6.16207872 102.009247,6.99554252 102.229105,7.89457313 C102.448962,8.79360375 102.558889,9.73944469 102.558889,10.7321243 Z M98.6997118,10.7321243 C98.6997118,9.61770096 98.550024,8.61801264 98.2506439,7.73302938 C97.9512638,6.84804611 97.5255892,6.09652398 96.9736071,5.47844043 C96.4216251,4.86035688 95.7503689,4.38743641 94.9598184,4.05966483 C94.1692678,3.73189325 93.2781577,3.56800992 92.2864611,3.56800992 C91.2947646,3.56800992 90.4036544,3.73189325 89.6131039,4.05966483 C88.8225534,4.38743641 88.1489583,4.86035688 87.5922984,5.47844043 C87.0356386,6.09652398 86.6076251,6.84804611 86.308245,7.73302938 C86.0088649,8.61801264 85.8591771,9.61770096 85.8591771,10.7321243 C85.8591771,11.8465477 86.0088649,12.846236 86.308245,13.7312193 C86.6076251,14.6162025 87.0356386,15.3653835 87.5922984,15.9787846 C88.1489583,16.5921857 88.8225534,17.062765 89.6131039,17.3905365 C90.4036544,17.7183081 91.2947646,17.8821915 92.2864611,17.8821915 C93.2781577,17.8821915 94.1692678,17.7183081 94.9598184,17.3905365 C95.7503689,17.062765 96.4216251,16.5921857 96.9736071,15.9787846 C97.5255892,15.3653835 97.9512638,14.6162025 98.2506439,13.7312193 C98.550024,12.846236 98.6997118,11.8465477 98.6997118,10.7321243 Z M108.565172,17.1517327 C108.958108,17.6293427 109.386122,17.9664742 109.849225,18.1631371 C110.312329,18.3598001 110.815186,18.4581301 111.357813,18.4581301 C111.881728,18.4581301 112.35418,18.3598001 112.775183,18.1631371 C113.196186,17.9664742 113.554034,17.6668018 113.848736,17.264111 C114.143438,16.8614202 114.370309,16.3533819 114.529355,15.7399808 C114.6884,15.1265797 114.767922,14.4031518 114.767922,13.5696755 C114.767922,12.7268343 114.700095,12.0127712 114.564438,11.4274648 C114.428781,10.8421585 114.234655,10.3668968 113.982053,10.0016656 C113.729451,9.63643442 113.423059,9.36953871 113.062867,9.20097047 C112.702676,9.03240223 112.293373,8.94811937 111.834947,8.94811937 C111.114564,8.94811937 110.50178,9.10029675 109.996576,9.40465607 C109.491372,9.7090154 109.014242,10.1374532 108.565172,10.6899825 L108.565172,17.1517327 Z M108.382738,8.44241718 C108.972143,7.77750912 109.64106,7.23903531 110.38951,6.82697961 C111.13796,6.41492391 112.017376,6.20889915 113.027784,6.20889915 C113.813657,6.20889915 114.53169,6.37278249 115.181906,6.70055406 C115.832122,7.02832564 116.393452,7.5035873 116.865911,8.12635331 C117.33837,8.74911931 117.703234,9.51702977 117.960514,10.4301077 C118.217794,11.3431857 118.346432,12.3896978 118.346432,13.5696755 C118.346432,14.6466393 118.201422,15.6439864 117.911397,16.5617468 C117.621373,17.4795073 117.207392,18.275512 116.669444,18.949785 C116.131495,19.6240579 115.481289,20.1508258 114.718805,20.5301043 C113.956321,20.9093829 113.102633,21.0990193 112.157715,21.0990193 C111.353131,21.0990193 110.665503,20.9749362 110.094809,20.7267663 C109.524116,20.4785964 109.014242,20.1344414 108.565172,19.694291 L108.565172,25.5941499 L105.098929,25.5941499 L105.098929,6.47579753 L107.217968,6.47579753 C107.667038,6.47579753 107.961736,6.68650467 108.102071,7.10792528 L108.382738,8.44241718 Z M135.368911,20.8883101 L131.902668,20.8883101 L131.902668,9.07454492 L125.222783,9.07454492 L125.222783,16.8848344 C125.222783,17.3343497 125.33271,17.6855282 125.552568,17.9383806 C125.772425,18.191233 126.074139,18.3176572 126.45772,18.3176572 C126.6729,18.3176572 126.852993,18.2919041 126.998005,18.2403972 C127.143017,18.1888902 127.269316,18.1350428 127.376906,18.0788534 C127.484496,18.022664 127.580389,17.9688166 127.66459,17.9173097 C127.748791,17.8658027 127.83299,17.8400496 127.917191,17.8400496 C128.020103,17.8400496 128.104302,17.8658027 128.169791,17.9173097 C128.235281,17.9688166 128.305447,18.0460759 128.380292,18.1490898 L129.418761,19.8347638 C128.913558,20.2561844 128.333517,20.5745863 127.678623,20.7899791 C127.02373,21.0053718 126.345457,21.1130666 125.643785,21.1130666 C124.390131,21.1130666 123.428854,20.7595468 122.759927,20.0524967 C122.090999,19.3454466 121.756541,18.3691702 121.756541,17.1236382 L121.756541,9.07454492 L120.283037,9.07454492 C120.095924,9.07454492 119.936881,9.01367397 119.805902,8.89193024 C119.674923,8.77018651 119.609435,8.58757365 119.609435,8.34408619 L119.609435,6.96745244 L121.924941,6.57412852 L122.654677,2.65493652 C122.701455,2.46763847 122.790332,2.32248466 122.921311,2.21947074 C123.052289,2.11645681 123.220688,2.06495062 123.426512,2.06495062 L125.222783,2.06495062 L125.222783,6.60222308 L135.368911,6.60222308 L135.368911,20.8883101 Z M135.972346,2.21947074 C135.972346,2.51914761 135.911535,2.80243165 135.789912,3.06933137 C135.668289,3.33623108 135.506907,3.56800894 135.305761,3.76467189 C135.104615,3.96133483 134.86605,4.11819459 134.590059,4.23525587 C134.314068,4.35231715 134.021709,4.41084691 133.712973,4.41084691 C133.413593,4.41084691 133.132928,4.35231715 132.870971,4.23525587 C132.609013,4.11819459 132.379804,3.96133483 132.183336,3.76467189 C131.986867,3.56800894 131.830163,3.33623108 131.713218,3.06933137 C131.596272,2.80243165 131.537801,2.51914761 131.537801,2.21947074 C131.537801,1.91042896 131.596272,1.62246254 131.713218,1.35556282 C131.830163,1.08866311 131.986867,0.854544065 132.183336,0.653198667 C132.379804,0.451853268 132.609013,0.292652318 132.870971,0.175591039 C133.132928,0.0585297612 133.413593,0 133.712973,0 C134.021709,0 134.314068,0.0585297612 134.590059,0.175591039 C134.86605,0.292652318 135.104615,0.451853268 135.305761,0.653198667 C135.506907,0.854544065 135.668289,1.08866311 135.789912,1.35556282 C135.911535,1.62246254 135.972346,1.91042896 135.972346,2.21947074 Z M138.90532,20.8883101 L138.90532,6.47579753 L141.02436,6.47579753 C141.47343,6.47579753 141.768127,6.68650467 141.908462,7.10792528 L142.132996,8.1755188 C142.385598,7.89457173 142.64989,7.63704078 142.925881,7.40291822 C143.201872,7.16879567 143.49657,6.96745329 143.809984,6.79888505 C144.123397,6.63031681 144.460195,6.49686895 144.820386,6.39853748 C145.180578,6.300206 145.575847,6.251041 146.006206,6.251041 C146.913702,6.251041 147.659802,6.496866 148.244529,6.98852337 C148.829256,7.48018074 149.266625,8.13337287 149.556649,8.94811937 C149.781184,8.47050935 150.061849,8.06080103 150.398652,7.71898209 C150.735454,7.37716316 151.104996,7.0985615 151.507288,6.88316875 C151.90958,6.66777599 152.337593,6.50857504 152.791341,6.40556112 C153.245089,6.30254719 153.701169,6.251041 154.159595,6.251041 C154.954823,6.251041 155.661163,6.37278291 156.278634,6.61627037 C156.896106,6.85975782 157.415335,7.21561877 157.836338,7.68386389 C158.257342,8.152109 158.577767,8.72335947 158.797624,9.39763243 C159.017481,10.0719054 159.127408,10.8444982 159.127408,11.7154342 L159.127408,20.8883101 L155.661166,20.8883101 L155.661166,11.7154342 C155.661166,10.7976737 155.460023,10.1070225 155.057731,9.64345989 C154.655439,9.17989722 154.066043,8.94811937 153.289526,8.94811937 C152.934012,8.94811937 152.604231,9.00899032 152.300173,9.13073405 C151.996115,9.25247778 151.729484,9.42806706 151.500271,9.65750717 C151.271058,9.88694727 151.090965,10.1749137 150.959986,10.5214151 C150.829008,10.8679165 150.763519,11.2659188 150.763519,11.7154342 L150.763519,20.8883101 L147.283243,20.8883101 L147.283243,11.7154342 C147.283243,10.7508492 147.089117,10.0484921 146.700858,9.60834168 C146.3126,9.16819127 145.744254,8.94811937 144.995804,8.94811937 C144.4906,8.94811937 144.020486,9.07220246 143.58545,9.32037237 C143.150413,9.56854228 142.745788,9.9080149 142.371563,10.3388004 L142.371563,20.8883101 L138.90532,20.8883101 Z M174.816718,6.47579753 L174.816718,20.8883101 L172.697678,20.8883101 C172.239253,20.8883101 171.949233,20.6776029 171.827609,20.2561823 L171.589042,19.1043051 C170.999638,19.7036588 170.349431,20.1882853 169.638404,20.5581989 C168.927376,20.9281125 168.09006,21.1130666 167.12643,21.1130666 C166.340557,21.1130666 165.645912,20.9796187 165.042474,20.712719 C164.439036,20.4458193 163.931501,20.0688876 163.519854,19.5819127 C163.108206,19.0949378 162.797136,18.5166638 162.586634,17.8470732 C162.376133,17.1774827 162.270884,16.4400077 162.270884,15.6346262 L162.270884,6.47579753 L165.737126,6.47579753 L165.737126,15.6346262 C165.737126,16.514927 165.940608,17.1962134 166.347578,17.6785059 C166.754548,18.1607983 167.364993,18.4019409 168.178933,18.4019409 C168.777693,18.4019409 169.339022,18.2684931 169.862937,18.0015934 C170.386853,17.7346936 170.882693,17.3671267 171.350475,16.8988816 L171.350475,6.47579753 L174.816718,6.47579753 Z M178.24086,20.8883101 L178.24086,6.47579753 L180.359899,6.47579753 C180.808969,6.47579753 181.103667,6.68650467 181.244002,7.10792528 L181.468535,8.1755188 C181.721137,7.89457173 181.98543,7.63704078 182.261421,7.40291822 C182.537412,7.16879567 182.83211,6.96745329 183.145523,6.79888505 C183.458937,6.63031681 183.795734,6.49686895 184.155926,6.39853748 C184.516118,6.300206 184.911387,6.251041 185.341746,6.251041 C186.249242,6.251041 186.995342,6.496866 187.580069,6.98852337 C188.164795,7.48018074 188.602164,8.13337287 188.892189,8.94811937 C189.116724,8.47050935 189.397389,8.06080103 189.734191,7.71898209 C190.070994,7.37716316 190.440536,7.0985615 190.842827,6.88316875 C191.245119,6.66777599 191.673133,6.50857504 192.126881,6.40556112 C192.580629,6.30254719 193.036709,6.251041 193.495135,6.251041 C194.290363,6.251041 194.996702,6.37278291 195.614174,6.61627037 C196.231645,6.85975782 196.750875,7.21561877 197.171878,7.68386389 C197.592881,8.152109 197.913307,8.72335947 198.133164,9.39763243 C198.353021,10.0719054 198.462948,10.8444982 198.462948,11.7154342 L198.462948,20.8883101 L194.996705,20.8883101 L194.996705,11.7154342 C194.996705,10.7976737 194.795562,10.1070225 194.39327,9.64345989 C193.990978,9.17989722 193.401583,8.94811937 192.625066,8.94811937 C192.269552,8.94811937 191.939771,9.00899032 191.635713,9.13073405 C191.331655,9.25247778 191.065024,9.42806706 190.835811,9.65750717 C190.606598,9.88694727 190.426505,10.1749137 190.295526,10.5214151 C190.164547,10.8679165 190.099059,11.2659188 190.099059,11.7154342 L190.099059,20.8883101 L186.618783,20.8883101 L186.618783,11.7154342 C186.618783,10.7508492 186.424656,10.0484921 186.036398,9.60834168 C185.648139,9.16819127 185.079793,8.94811937 184.331343,8.94811937 C183.826139,8.94811937 183.356026,9.07220246 182.920989,9.32037237 C182.485953,9.56854228 182.081328,9.9080149 181.707103,10.3388004 L181.707103,20.8883101 L178.24086,20.8883101 Z M212.87522,4.27037408 C212.762953,4.46703703 212.64367,4.60984964 212.517369,4.69881622 C212.391068,4.78778279 212.234364,4.83226541 212.047251,4.83226541 C211.850783,4.83226541 211.637946,4.7596885 211.408733,4.61453252 C211.17952,4.46937653 210.905872,4.30783439 210.587781,4.12990125 C210.26969,3.9519681 209.897809,3.79042596 209.472128,3.64526998 C209.046447,3.50011399 208.543589,3.42753709 207.96354,3.42753709 C207.439625,3.42753709 206.981206,3.49074923 206.58827,3.61717541 C206.195334,3.74360159 205.865553,3.91919088 205.598917,4.14394853 C205.332282,4.36870619 205.133478,4.63794309 205.002499,4.95166731 C204.87152,5.26539154 204.806032,5.60954653 204.806032,5.98414262 C204.806032,6.46175264 204.939348,6.85975502 205.205983,7.17816169 C205.472618,7.49656837 205.825788,7.76814646 206.265503,7.99290412 C206.705217,8.21766177 207.205736,8.41900415 207.767073,8.59693729 C208.328411,8.77487043 208.903773,8.96450686 209.493178,9.16585226 C210.082582,9.36719766 210.657945,9.6013167 211.219283,9.86821642 C211.78062,10.1351161 212.281139,10.4722476 212.720853,10.8796208 C213.160568,11.2869941 213.513737,11.7856676 213.780373,12.3756565 C214.047008,12.9656453 214.180324,13.6820496 214.180324,14.5248908 C214.180324,15.4426512 214.023619,16.3018681 213.710206,17.1025672 C213.396792,17.9032664 212.938374,18.6009411 212.334936,19.1956124 C211.731498,19.7902837 210.994753,20.2585218 210.12468,20.6003407 C209.254606,20.9421597 208.258247,21.1130666 207.135572,21.1130666 C206.490033,21.1130666 205.85386,21.0498544 205.227033,20.9234283 C204.600206,20.7970021 203.999116,20.6167304 203.423745,20.3826079 C202.848374,20.1484853 202.308094,19.8675424 201.80289,19.5397709 C201.297687,19.2119993 200.848623,18.8467736 200.455687,18.4440828 L201.564323,16.6319833 C201.657879,16.5008746 201.779501,16.3908387 201.929191,16.3018721 C202.078881,16.2129055 202.237924,16.1684229 202.406325,16.1684229 C202.640216,16.1684229 202.892814,16.2644117 203.164127,16.4563922 C203.435441,16.6483727 203.758205,16.861421 204.13243,17.0955436 C204.506655,17.3296662 204.944024,17.5427145 205.44455,17.734695 C205.945076,17.9266755 206.546166,18.0226643 207.247838,18.0226643 C208.323736,18.0226643 209.156374,17.7674745 209.745779,17.2570874 C210.335183,16.7467002 210.629881,16.0139076 210.629881,15.0586875 C210.629881,14.5248881 210.496565,14.0894267 210.22993,13.7522902 C209.963294,13.4151537 209.610125,13.1318697 209.17041,12.9024296 C208.730696,12.6729895 208.230177,12.4786707 207.66884,12.3194673 C207.107502,12.160264 206.536817,11.9870159 205.956768,11.7997179 C205.376719,11.6124198 204.806035,11.3876655 204.244697,11.1254483 C203.683359,10.863231 203.182841,10.5214172 202.743126,10.0999966 C202.303412,9.67857599 201.950242,9.15180814 201.683607,8.51967723 C201.416971,7.88754633 201.283656,7.10792991 201.283656,6.18080459 C201.283656,5.44097731 201.431005,4.71989065 201.725707,4.01752298 C202.020409,3.31515531 202.448423,2.69239865 203.00976,2.14923432 C203.571098,1.60606999 204.263404,1.17060857 205.086699,0.842836989 C205.909995,0.51506541 206.854899,0.351182079 207.92144,0.351182079 C209.118961,0.351182079 210.222908,0.538477315 211.233316,0.913073405 C212.243724,1.2876695 213.104429,1.81209616 213.815456,2.48636912 L212.87522,4.27037408 Z M220.228707,0.0140472832 L220.228707,20.8883101 L216.762464,20.8883101 L216.762464,0.0140472832 L220.228707,0.0140472832 Z M232.971008,12.0244744 C232.971008,11.5749591 232.907858,11.1512036 232.781558,10.7531953 C232.655257,10.3551869 232.465808,10.0063495 232.213206,9.70667266 C231.960604,9.40699579 231.640179,9.17053555 231.25192,8.99728486 C230.863661,8.82403417 230.412259,8.73741012 229.8977,8.73741012 C228.896648,8.73741012 228.108448,9.02303536 227.533077,9.59429439 C226.957706,10.1655534 226.590503,10.9756053 226.431457,12.0244744 L232.971008,12.0244744 Z M226.36129,14.1175196 C226.417424,14.8573468 226.548401,15.4964918 226.754225,16.0349737 C226.960048,16.5734556 227.231357,17.0182818 227.56816,17.3694656 C227.904963,17.7206495 228.30491,17.9828628 228.768013,18.1561135 C229.231117,18.3293642 229.74333,18.4159882 230.304667,18.4159882 C230.866005,18.4159882 231.350152,18.3504349 231.757121,18.2193263 C232.164091,18.0882176 232.5196,17.9430638 232.823658,17.7838605 C233.127716,17.6246571 233.394347,17.4795033 233.62356,17.3483947 C233.852773,17.2172861 234.074965,17.1517327 234.290145,17.1517327 C234.580169,17.1517327 234.795346,17.2594275 234.93568,17.4748202 L235.932049,18.7390757 C235.548469,19.188591 235.118116,19.5655227 234.640979,19.869882 C234.163842,20.1742413 233.665662,20.4177252 233.146425,20.6003407 C232.627188,20.7829563 232.098603,20.9117218 231.560654,20.986641 C231.022706,21.0615603 230.501137,21.0990193 229.995933,21.0990193 C228.994881,21.0990193 228.06401,20.9327948 227.203292,20.6003407 C226.342575,20.2678867 225.594136,19.7762367 224.957953,19.125376 C224.32177,18.4745153 223.821252,17.6691458 223.456382,16.7092433 C223.091513,15.7493408 222.909081,14.6372754 222.909081,13.3730136 C222.909081,12.3896988 223.068124,11.4649286 223.386215,10.5986751 C223.704307,9.73242168 224.160387,8.97855836 224.754469,8.33706255 C225.348551,7.69556675 226.073602,7.18752842 226.929642,6.81293233 C227.785682,6.43833624 228.751636,6.251041 229.827533,6.251041 C230.735029,6.251041 231.572345,6.39619481 232.339506,6.68650678 C233.106668,6.97681875 233.76623,7.40057422 234.318212,7.95778591 C234.870194,8.51499759 235.302885,9.1986252 235.616298,10.0086892 C235.929712,10.8187533 236.086416,11.7435235 236.086416,12.7830277 C236.086416,13.3074622 236.030284,13.660982 235.918016,13.8435975 C235.805748,14.0262131 235.590572,14.1175196 235.272481,14.1175196 L226.36129,14.1175196 Z M247.958649,12.0244744 C247.958649,11.5749591 247.895499,11.1512036 247.769198,10.7531953 C247.642897,10.3551869 247.453448,10.0063495 247.200846,9.70667266 C246.948245,9.40699579 246.627819,9.17053555 246.239561,8.99728486 C245.851302,8.82403417 245.3999,8.73741012 244.88534,8.73741012 C243.884288,8.73741012 243.096088,9.02303536 242.520717,9.59429439 C241.945346,10.1655534 241.578143,10.9756053 241.419098,12.0244744 L247.958649,12.0244744 Z M241.348931,14.1175196 C241.405064,14.8573468 241.536041,15.4964918 241.741865,16.0349737 C241.947689,16.5734556 242.218998,17.0182818 242.555801,17.3694656 C242.892603,17.7206495 243.29255,17.9828628 243.755654,18.1561135 C244.218757,18.3293642 244.73097,18.4159882 245.292308,18.4159882 C245.853646,18.4159882 246.337792,18.3504349 246.744762,18.2193263 C247.151732,18.0882176 247.50724,17.9430638 247.811298,17.7838605 C248.115356,17.6246571 248.381987,17.4795033 248.6112,17.3483947 C248.840413,17.2172861 249.062606,17.1517327 249.277785,17.1517327 C249.56781,17.1517327 249.782986,17.2594275 249.92332,17.4748202 L250.91969,18.7390757 C250.536109,19.188591 250.105757,19.5655227 249.62862,19.869882 C249.151483,20.1742413 248.653303,20.4177252 248.134066,20.6003407 C247.614828,20.7829563 247.086243,20.9117218 246.548295,20.986641 C246.010346,21.0615603 245.488778,21.0990193 244.983574,21.0990193 C243.982522,21.0990193 243.051651,20.9327948 242.190933,20.6003407 C241.330215,20.2678867 240.581776,19.7762367 239.945594,19.125376 C239.309411,18.4745153 238.808892,17.6691458 238.444023,16.7092433 C238.079153,15.7493408 237.896721,14.6372754 237.896721,13.3730136 C237.896721,12.3896988 238.055765,11.4649286 238.373856,10.5986751 C238.691947,9.73242168 239.148027,8.97855836 239.74211,8.33706255 C240.336192,7.69556675 241.061242,7.18752842 241.917282,6.81293233 C242.773322,6.43833624 243.739276,6.251041 244.815173,6.251041 C245.722669,6.251041 246.559985,6.39619481 247.327147,6.68650678 C248.094308,6.97681875 248.75387,7.40057422 249.305852,7.95778591 C249.857834,8.51499759 250.290525,9.1986252 250.603939,10.0086892 C250.917353,10.8187533 251.074057,11.7435235 251.074057,12.7830277 C251.074057,13.3074622 251.017924,13.660982 250.905656,13.8435975 C250.793389,14.0262131 250.578213,14.1175196 250.260121,14.1175196 L241.348931,14.1175196 Z M257.136473,17.1517327 C257.52941,17.6293427 257.957423,17.9664742 258.420527,18.1631371 C258.88363,18.3598001 259.386488,18.4581301 259.929114,18.4581301 C260.453029,18.4581301 260.925481,18.3598001 261.346485,18.1631371 C261.767488,17.9664742 262.125335,17.6668018 262.420038,17.264111 C262.71474,16.8614202 262.94161,16.3533819 263.100656,15.7399808 C263.259702,15.1265797 263.339223,14.4031518 263.339223,13.5696755 C263.339223,12.7268343 263.271396,12.0127712 263.13574,11.4274648 C263.000083,10.8421585 262.805957,10.3668968 262.553355,10.0016656 C262.300753,9.63643442 261.99436,9.36953871 261.634169,9.20097047 C261.273977,9.03240223 260.864675,8.94811937 260.406249,8.94811937 C259.685865,8.94811937 259.073081,9.10029675 258.567877,9.40465607 C258.062673,9.7090154 257.585543,10.1374532 257.136473,10.6899825 L257.136473,17.1517327 Z M256.954039,8.44241718 C257.543444,7.77750912 258.212361,7.23903531 258.960812,6.82697961 C259.709262,6.41492391 260.588678,6.20889915 261.599085,6.20889915 C262.384958,6.20889915 263.102992,6.37278249 263.753208,6.70055406 C264.403424,7.02832564 264.964753,7.5035873 265.437212,8.12635331 C265.909672,8.74911931 266.274536,9.51702977 266.531815,10.4301077 C266.789095,11.3431857 266.917733,12.3896978 266.917733,13.5696755 C266.917733,14.6466393 266.772723,15.6439864 266.482699,16.5617468 C266.192674,17.4795073 265.778694,18.275512 265.240745,18.949785 C264.702797,19.6240579 264.05259,20.1508258 263.290107,20.5301043 C262.527623,20.9093829 261.673935,21.0990193 260.729016,21.0990193 C259.924432,21.0990193 259.236804,20.9749362 258.666111,20.7267663 C258.095418,20.4785964 257.585543,20.1344414 257.136473,19.694291 L257.136473,25.5941499 L253.670231,25.5941499 L253.670231,6.47579753 L255.78927,6.47579753 C256.23834,6.47579753 256.533038,6.68650467 256.673372,7.10792528 L256.954039,8.44241718 Z" fill="#003BDE"></path>
                <path d="M119.371177,53.5422115 C119.762477,53.5422115 120.107367,53.4929479 120.405858,53.3944192 C120.704349,53.2958905 120.95267,53.1567208 121.150828,52.9769059 C121.348986,52.797091 121.498229,52.5790996 121.598562,52.3229249 C121.698896,52.0667503 121.749061,51.7810214 121.749061,51.4657296 C121.749061,51.1553642 121.70015,50.8770248 121.602325,50.630703 C121.5045,50.3843813 121.357765,50.175011 121.162115,50.0025857 C120.966466,49.8301605 120.719399,49.6983804 120.420908,49.6072413 C120.122417,49.5161023 119.77251,49.4705334 119.371177,49.4705334 L117.760838,49.4705334 L117.760838,53.5422115 L119.371177,53.5422115 Z M119.371177,48.1182338 C120.078526,48.1182338 120.691803,48.1995188 121.211027,48.3620911 C121.730252,48.5246635 122.159169,48.7525077 122.497794,49.0456306 C122.836418,49.3387534 123.088502,49.6909882 123.254051,50.1023456 C123.419601,50.5137029 123.502375,50.9681597 123.502375,51.4657296 C123.502375,51.9731524 123.414584,52.4374619 123.239001,52.8586721 C123.063418,53.2798822 122.802556,53.6419698 122.456407,53.9449455 C122.110257,54.2479212 121.680085,54.4843866 121.165878,54.6543486 C120.65167,54.8243106 120.053443,54.9092903 119.371177,54.9092903 L117.760838,54.9092903 L117.760838,58.7592799 L116,58.7592799 L116,48.1182338 L119.371177,48.1182338 Z M133.669265,53.2170684 C134.070598,53.2170684 134.421759,53.1690364 134.722758,53.0729709 C135.023758,52.9769054 135.274587,52.8426621 135.475253,52.6702369 C135.67592,52.4978116 135.826417,52.2921361 135.92675,52.053204 C136.027083,51.8142719 136.077249,51.54948 136.077249,51.2588203 C136.077249,50.677501 135.881603,50.2341286 135.490303,49.9286896 C135.099004,49.6232506 134.507047,49.4705334 133.714415,49.4705334 L132.284675,49.4705334 L132.284675,53.2170684 L133.669265,53.2170684 Z M138.771181,58.7592799 L137.198467,58.7592799 C136.887434,58.7592799 136.661688,58.6410472 136.521221,58.4045783 L133.992838,54.8206149 C133.907555,54.697454 133.814748,54.6087795 133.714415,54.5545888 C133.614082,54.500398 133.463585,54.473303 133.262918,54.473303 L132.284675,54.473303 L132.284675,58.7592799 L130.523837,58.7592799 L130.523837,48.1182338 L133.714415,48.1182338 C134.426781,48.1182338 135.040058,48.1896661 135.554265,48.3325327 C136.068473,48.4753993 136.49112,48.6786117 136.822219,48.9421759 C137.153319,49.2057402 137.397877,49.5222589 137.555902,49.8917415 C137.713927,50.2612241 137.792938,50.6725753 137.792938,51.1258073 C137.792938,51.4952899 137.736501,51.8401351 137.623626,52.1603534 C137.510752,52.4805717 137.347713,52.771227 137.134505,53.032328 C136.921297,53.2934291 136.65918,53.5200417 136.348147,53.7121726 C136.037115,53.9043036 135.683446,54.0545576 135.28713,54.1629392 C135.502846,54.2910265 135.688459,54.4708386 135.843976,54.7023811 L138.771181,58.7592799 Z M155.469728,53.4387569 C155.469728,54.2269864 155.339297,54.9536247 155.078431,55.6186934 C154.817565,56.2837621 154.4501,56.8564515 153.976026,57.3367789 C153.501952,57.8171063 152.932569,58.1927413 152.267862,58.4636953 C151.603155,58.7346492 150.864463,58.8701241 150.051765,58.8701241 C149.244083,58.8701241 148.507899,58.7346492 147.843192,58.4636953 C147.178485,58.1927413 146.607849,57.8171063 146.131266,57.3367789 C145.654683,56.8564515 145.285965,56.2837621 145.025098,55.6186934 C144.764232,54.9536247 144.633801,54.2269864 144.633801,53.4387569 C144.633801,52.6505273 144.764232,51.923889 145.025098,51.2588203 C145.285965,50.5937516 145.654683,50.0198306 146.131266,49.53704 C146.607849,49.0542494 147.178485,48.6773828 147.843192,48.4064288 C148.507899,48.1354749 149.244083,48 150.051765,48 C150.864463,48 151.603155,48.1354749 152.267862,48.4064288 C152.932569,48.6773828 153.501952,49.0542494 153.976026,49.53704 C154.4501,50.0198306 154.817565,50.5937516 155.078431,51.2588203 C155.339297,51.923889 155.469728,52.6505273 155.469728,53.4387569 Z M153.671265,53.4387569 C153.671265,52.8278789 153.587238,52.2785897 153.41918,51.7908726 C153.251121,51.3031556 153.010325,50.8893413 152.696784,50.5494173 C152.383243,50.2094933 152.003237,49.9483961 151.556755,49.7661181 C151.110272,49.58384 150.608614,49.4927023 150.051765,49.4927023 C149.499932,49.4927023 149.000782,49.58384 148.5543,49.7661181 C148.107817,49.9483961 147.726557,50.2094933 147.410507,50.5494173 C147.094458,50.8893413 146.851154,51.3031556 146.680587,51.7908726 C146.510021,52.2785897 146.424739,52.8278789 146.424739,53.4387569 C146.424739,54.0545612 146.510021,54.6063136 146.680587,55.0940307 C146.851154,55.5817477 147.094458,55.9943305 147.410507,56.3317912 C147.726557,56.669252 148.107817,56.927886 148.5543,57.1077008 C149.000782,57.2875157 149.499932,57.3774218 150.051765,57.3774218 C150.608614,57.3774218 151.110272,57.2875157 151.556755,57.1077008 C152.003237,56.927886 152.383243,56.669252 152.696784,56.3317912 C153.010325,55.9943305 153.251121,55.5817477 153.41918,55.0940307 C153.587238,54.6063136 153.671265,54.0545612 153.671265,53.4387569 Z M169.767816,49.5592088 L166.389114,49.5592088 L166.389114,58.7592799 L164.635801,58.7592799 L164.635801,49.5592088 L161.249574,49.5592088 L161.249574,48.1182338 L169.767816,48.1182338 L169.767816,49.5592088 Z M186.368539,53.4387569 C186.368539,54.2269864 186.238108,54.9536247 185.977242,55.6186934 C185.716375,56.2837621 185.348911,56.8564515 184.874837,57.3367789 C184.400762,57.8171063 183.83138,58.1927413 183.166673,58.4636953 C182.501966,58.7346492 181.763274,58.8701241 180.950575,58.8701241 C180.142894,58.8701241 179.40671,58.7346492 178.742003,58.4636953 C178.077296,58.1927413 177.506659,57.8171063 177.030077,57.3367789 C176.553494,56.8564515 176.184775,56.2837621 175.923909,55.6186934 C175.663043,54.9536247 175.532612,54.2269864 175.532612,53.4387569 C175.532612,52.6505273 175.663043,51.923889 175.923909,51.2588203 C176.184775,50.5937516 176.553494,50.0198306 177.030077,49.53704 C177.506659,49.0542494 178.077296,48.6773828 178.742003,48.4064288 C179.40671,48.1354749 180.142894,48 180.950575,48 C181.763274,48 182.501966,48.1354749 183.166673,48.4064288 C183.83138,48.6773828 184.400762,49.0542494 184.874837,49.53704 C185.348911,50.0198306 185.716375,50.5937516 185.977242,51.2588203 C186.238108,51.923889 186.368539,52.6505273 186.368539,53.4387569 Z M184.570076,53.4387569 C184.570076,52.8278789 184.486048,52.2785897 184.31799,51.7908726 C184.149932,51.3031556 183.909136,50.8893413 183.595595,50.5494173 C183.282054,50.2094933 182.902048,49.9483961 182.455565,49.7661181 C182.009083,49.58384 181.507425,49.4927023 180.950575,49.4927023 C180.398743,49.4927023 179.899593,49.58384 179.453111,49.7661181 C179.006628,49.9483961 178.625368,50.2094933 178.309318,50.5494173 C177.993269,50.8893413 177.749964,51.3031556 177.579398,51.7908726 C177.408832,52.2785897 177.32355,52.8278789 177.32355,53.4387569 C177.32355,54.0545612 177.408832,54.6063136 177.579398,55.0940307 C177.749964,55.5817477 177.993269,55.9943305 178.309318,56.3317912 C178.625368,56.669252 179.006628,56.927886 179.453111,57.1077008 C179.899593,57.2875157 180.398743,57.3774218 180.950575,57.3774218 C181.507425,57.3774218 182.009083,57.2875157 182.455565,57.1077008 C182.902048,56.927886 183.282054,56.669252 183.595595,56.3317912 C183.909136,55.9943305 184.149932,55.5817477 184.31799,55.0940307 C184.486048,54.6063136 184.570076,54.0545612 184.570076,53.4387569 Z M201.155749,56.3872134 C201.251065,56.3872134 201.333839,56.4241611 201.404072,56.4980576 L202.103893,57.2444087 C201.662427,57.7666108 201.120636,58.1693408 200.478503,58.4526108 C199.836371,58.7358808 199.068834,58.8775137 198.175869,58.8775137 C197.383237,58.8775137 196.66712,58.7432704 196.027496,58.4747797 C195.387872,58.206289 194.842319,57.8318855 194.390819,57.3515582 C193.93932,56.8712308 193.591922,56.2985413 193.348614,55.6334726 C193.105306,54.9684039 192.983654,54.2368393 192.983654,53.4387569 C192.983654,52.6406744 193.112831,51.9078782 193.371189,51.2403463 C193.629547,50.5728144 193.993249,49.9988933 194.462306,49.5185659 C194.931364,49.0382385 195.493221,48.6650667 196.147895,48.3990392 C196.802569,48.1330117 197.523703,48 198.311318,48 C199.093917,48 199.784951,48.1243906 200.384442,48.3731756 C200.983932,48.6219605 201.504403,48.9532583 201.945869,49.3670788 L201.366448,50.1725469 C201.326314,50.2267377 201.278657,50.2735381 201.223473,50.3129496 C201.16829,50.3523611 201.093041,50.3720665 200.997725,50.3720665 C200.897392,50.3720665 200.783265,50.3264977 200.65534,50.2353586 C200.527415,50.1442196 200.364376,50.0432292 200.166218,49.9323844 C199.96806,49.8215396 199.719739,49.7205492 199.421248,49.6294102 C199.122757,49.5382711 198.750276,49.4927023 198.303793,49.4927023 C197.787077,49.4927023 197.31301,49.5813768 196.881578,49.7587284 C196.450145,49.9360801 196.078918,50.194714 195.767885,50.534638 C195.456852,50.874562 195.214802,51.2883764 195.041728,51.7760934 C194.868653,52.2638105 194.782117,52.8180261 194.782117,53.4387569 C194.782117,54.0644141 194.872415,54.6223245 195.053015,55.1125047 C195.233615,55.602685 195.481935,56.0164993 195.797985,56.3539601 C196.114034,56.6914209 196.485262,56.9488232 196.911677,57.1261749 C197.338093,57.3035265 197.797111,57.392201 198.288743,57.392201 C198.589743,57.392201 198.859384,57.3761904 199.097675,57.3441685 C199.335967,57.3121467 199.555442,57.2604199 199.756108,57.1889866 C199.956775,57.1175533 200.146151,57.0276472 200.324242,56.9192657 C200.502333,56.8108841 200.679168,56.6778723 200.854751,56.5202264 C200.955084,56.4315506 201.055416,56.3872134 201.155749,56.3872134 Z M218.930364,53.4387569 C218.930364,54.2269864 218.799933,54.9536247 218.539066,55.6186934 C218.2782,56.2837621 217.910735,56.8564515 217.436661,57.3367789 C216.962587,57.8171063 216.393205,58.1927413 215.728498,58.4636953 C215.063791,58.7346492 214.325099,58.8701241 213.5124,58.8701241 C212.704718,58.8701241 211.968535,58.7346492 211.303827,58.4636953 C210.63912,58.1927413 210.068484,57.8171063 209.591901,57.3367789 C209.115319,56.8564515 208.7466,56.2837621 208.485734,55.6186934 C208.224868,54.9536247 208.094437,54.2269864 208.094437,53.4387569 C208.094437,52.6505273 208.224868,51.923889 208.485734,51.2588203 C208.7466,50.5937516 209.115319,50.0198306 209.591901,49.53704 C210.068484,49.0542494 210.63912,48.6773828 211.303827,48.4064288 C211.968535,48.1354749 212.704718,48 213.5124,48 C214.325099,48 215.063791,48.1354749 215.728498,48.4064288 C216.393205,48.6773828 216.962587,49.0542494 217.436661,49.53704 C217.910735,50.0198306 218.2782,50.5937516 218.539066,51.2588203 C218.799933,51.923889 218.930364,52.6505273 218.930364,53.4387569 Z M217.131901,53.4387569 C217.131901,52.8278789 217.047873,52.2785897 216.879815,51.7908726 C216.711757,51.3031556 216.470961,50.8893413 216.15742,50.5494173 C215.843879,50.2094933 215.463873,49.9483961 215.01739,49.7661181 C214.570907,49.58384 214.069249,49.4927023 213.5124,49.4927023 C212.960568,49.4927023 212.461418,49.58384 212.014935,49.7661181 C211.568453,49.9483961 211.187192,50.2094933 210.871143,50.5494173 C210.555093,50.8893413 210.311789,51.3031556 210.141223,51.7908726 C209.970656,52.2785897 209.885375,52.8278789 209.885375,53.4387569 C209.885375,54.0545612 209.970656,54.6063136 210.141223,55.0940307 C210.311789,55.5817477 210.555093,55.9943305 210.871143,56.3317912 C211.187192,56.669252 211.568453,56.927886 212.014935,57.1077008 C212.461418,57.2875157 212.960568,57.3774218 213.5124,57.3774218 C214.069249,57.3774218 214.570907,57.2875157 215.01739,57.1077008 C215.463873,56.927886 215.843879,56.669252 216.15742,56.3317912 C216.470961,55.9943305 216.711757,55.5817477 216.879815,55.0940307 C217.047873,54.6063136 217.131901,54.0545612 217.131901,53.4387569 Z M232.453382,57.3109153 L232.453382,58.7592799 L226.192624,58.7592799 L226.192624,48.1182338 L227.953462,48.1182338 L227.953462,57.3109153 L232.453382,57.3109153 Z" fill="#003BDE"></path>
            </g>
        </g>
    </g>
</svg>