<svg xmlns="http://www.w3.org/2000/svg" width="23" height="16" viewBox="0 0 23 16">
    <g fill="none" fill-rule="evenodd">
        <path fill="#051033" fill-rule="nonzero" d="M8.033 3.433a4.633 4.633 0 0 0-3.333 5 2.883 2.883 0 0 1 2.317 2.8v.9A2.767 2.767 0 0 1 4.25 15a2.967 2.967 0 0 1-2.883-3.333v-1.15c0-3.667.716-5.834 2.1-7.184a7.5 7.5 0 0 1 4.083-2.25 1.2 1.2 0 0 1 .483 2.334v.016zm12 0a4.633 4.633 0 0 0-3.333 5 2.883 2.883 0 0 1 2.3 2.8v.9A2.767 2.767 0 0 1 16.25 15a2.967 2.967 0 0 1-2.883-3.333v-1.15c0-3.667.716-5.817 2.1-7.2a7.517 7.517 0 0 1 4.083-2.234 1.217 1.217 0 0 1 1.317 1.267c-.03.498-.36.927-.834 1.083z"/>
        <path d="M8.033 3.433a4.633 4.633 0 0 0-3.333 5 2.883 2.883 0 0 1 2.317 2.8v.9A2.767 2.767 0 0 1 4.25 15a2.967 2.967 0 0 1-2.883-3.333v-1.15c0-3.667.716-5.834 2.1-7.184a7.5 7.5 0 0 1 4.083-2.25 1.2 1.2 0 0 1 .483 2.334v.016zm12 0a4.633 4.633 0 0 0-3.333 5 2.883 2.883 0 0 1 2.3 2.8v.9A2.767 2.767 0 0 1 16.25 15a2.967 2.967 0 0 1-2.883-3.333v-1.15c0-3.667.716-5.817 2.1-7.2a7.517 7.517 0 0 1 4.083-2.234 1.217 1.217 0 0 1 1.317 1.267c-.03.498-.36.927-.834 1.083z"/>
        <path fill="#051033" d="M20.183 3.817c-.133-.334 0-.55-.116-.85a.517.517 0 0 0-.117-.85.383.383 0 0 0-.333-.334c-.334 0-.884.567-1.3.65-.55.7-1.667 1.4-1.85 2.067a7.1 7.1 0 0 0-1.45 2.167 20.467 20.467 0 0 1-.6 3.2c0 .566 0 1.2.083 1.8-.007.44.078.877.25 1.283a1.4 1.4 0 0 0 1.833.767c.517.15.8-.134 1.317-.417a3.817 3.817 0 0 0 .133-1.983 1.467 1.467 0 0 0-.7-1.317 1.883 1.883 0 0 0-.9-.6l-.766-.25v-.717A6.533 6.533 0 0 1 16 5.95a5.617 5.617 0 0 1 1.333-2.067c.917-.533 2.067-1.183 2.65-.466-.013.41-.232.786-.583 1a5.4 5.4 0 0 0-2.067 2.766 4 4 0 0 1 .15 1.1l-.583-.616c.215.033.435.033.65 0 .433.483 1.483.883 1.667 1.9a4.3 4.3 0 0 1 .45 1.566c0 .45.116.667.183 1.334-.333.666-.333 1.383-.933 1.75a3 3 0 0 1-2.784 1.45c-.6.183-.9 0-1.766-.434-.867-.433-.984-1.033-1.467-1.366.183-.117-.217-.517-.233-.75a2.25 2.25 0 0 1 0-1.25c-.25-.317 0-.7 0-.967A3.567 3.567 0 0 1 12.75 9a9.067 9.067 0 0 1 .833-4 10.25 10.25 0 0 1 2.234-3.183C16.436 1.332 17.1.908 17.8.55c.325-.17.666-.31 1.017-.417a2.733 2.733 0 0 1 1.666 0c.649.11 1.216.5 1.55 1.067.182.304.29.647.317 1a1.85 1.85 0 0 1-.183 1.133c-.517.984-.467.234-.55 0-.45.567-1.2.817-1.434.484zM8.183 3.817c-.133-.334 0-.55-.116-.85a.517.517 0 0 0-.117-.85.383.383 0 0 0-.333-.334c-.334 0-.884.567-1.3.65-.55.7-1.667 1.4-1.85 2.067a7.1 7.1 0 0 0-1.45 2.167 20.367 20.367 0 0 1-.6 3.2c0 .566 0 1.2.083 1.8-.007.44.078.877.25 1.283a1.4 1.4 0 0 0 1.833.767c.517.15.8-.134 1.317-.417a3.817 3.817 0 0 0 .133-1.983A1.467 1.467 0 0 0 5.367 10a1.883 1.883 0 0 0-.9-.6l-.8-.25v-.717A6.55 6.55 0 0 1 4 5.95a5.617 5.617 0 0 1 1.367-2.067c.916-.55 2.066-1.183 2.65-.55-.014.41-.233.787-.584 1a5.4 5.4 0 0 0-2.15 2.85c.106.374.157.762.15 1.15L4.9 7.667c.215.033.435.033.65 0 .433.483 1.483.883 1.667 1.9a4.3 4.3 0 0 1 .45 1.566c0 .45.116.667.183 1.334-.333.666-.333 1.383-.933 1.75a3 3 0 0 1-2.784 1.45c-.6.183-.9 0-1.766-.434-.867-.433-.917-1-1.417-1.333.183-.117-.283-.567-.283-.75a2.25 2.25 0 0 1 0-1.25c-.25-.317 0-.7 0-.967a3.567 3.567 0 0 1 .266-1.9A9.067 9.067 0 0 1 1.583 5a10.233 10.233 0 0 1 2.234-3.183A12.283 12.283 0 0 1 5.8.55c.325-.17.666-.31 1.017-.417a2.733 2.733 0 0 1 1.666 0c.649.11 1.216.5 1.55 1.067.182.304.29.647.317 1a1.85 1.85 0 0 1-.183 1.133c-.517.984-.467.234-.55 0-.45.567-1.2.817-1.434.484z"/>
    </g>
</svg>
