<svg xmlns="http://www.w3.org/2000/svg" xmlns:xlink="http://www.w3.org/1999/xlink" width="519" height="190" viewBox="0 0 519 190">
    <defs>
        <path id="a" d="M0 0s95.548 6.498 220.66 3.249C345.773 0 519 0 519 0s-15.822 61.406-12.695 91.45C509.432 121.496 519 190 519 190s-125.307-3.521-242.82-3.521c-117.514 0-274.806 1.774-274.806 1.774s11.62-59.422 11.405-88.93C12.563 69.813 0 0 0 0z"/>
    </defs>
    <g fill="none" fill-rule="evenodd">
        <use fill="#FFF" xlink:href="#a"/>
        <path stroke="#FFF" stroke-width="22" d="M13.19 11.787a1513.955 1513.955 0 0 1 4.08 25.732c.882 5.906 1.698 11.64 2.434 17.145 2.536 18.966 3.999 34.183 4.075 44.578.07 9.655-1 22.482-2.974 37.833a759.609 759.609 0 0 1-2.858 19.981c-1.067 6.848-2.197 13.6-3.338 20.054l13.068-.134c20.734-.208 43.305-.416 66.942-.61 37.021-.304 73.159-.545 107.108-.7 26.96-.122 51.911-.187 74.453-.187 6.792 0 13.706.011 20.733.034 46.037.152 95.307.778 144.955 1.728a10889.049 10889.049 0 0 1 64.463 1.422l-.366-2.672a6398.956 6398.956 0 0 1-5.442-40.773c-2.343-18.074-4.123-32.682-5.159-42.629-1.08-10.381-.261-24.001 2.03-40.309 1.12-7.965 2.565-16.361 4.26-24.996a616.276 616.276 0 0 1 3.425-16.268l-4.292.008c-14.496.03-30.65.085-48.046.17-49.702.244-99.403.681-145.782 1.362-31.478.462-60.34 1.022-86.013 1.69-64.066 1.663-125.162.978-179.74-1.175-10.374-.41-19.744-.845-28.016-1.284z"/>
    </g>
</svg>
