<?xml version="1.0" encoding="UTF-8"?>
<svg width="288px" height="29px" viewBox="0 0 288 29" version="1.1" xmlns="http://www.w3.org/2000/svg" xmlns:xlink="http://www.w3.org/1999/xlink">
    <!-- Generator: Sketch 47.1 (45422) - http://www.bohemiancoding.com/sketch -->
    <title>US HEALTH WATCH Copy</title>
    <desc>Created with Sketch.</desc>
    <defs></defs>
    <g stroke="none" stroke-width="1" fill="none" fill-rule="evenodd">
        <g transform="translate(-186.000000, -478.000000)" fill="#000000">
            <path d="M196.944,506.38 C194.613322,506.38 192.757674,505.72134 191.377,504.404 C189.996326,503.08666 189.306,500.882682 189.306,497.792 L189.306,483.01 C189.306,481.895328 189.078002,481.186002 188.622,480.882 C188.165998,480.577998 187.583337,480.426 186.874,480.426 L186.456,480.426 L186.456,478.868 L195.614,478.868 L195.614,480.426 L195.234,480.426 C194.49933,480.426 193.910336,480.584332 193.467,480.901 C193.023664,481.217668 192.802,481.971327 192.802,483.162 L192.802,498.02 C192.802,500.249344 193.251662,501.826329 194.151,502.751 C195.050338,503.675671 196.221993,504.138 197.666,504.138 C199.287341,504.138 200.496996,503.561672 201.295,502.409 C202.093004,501.256328 202.492,499.818675 202.492,498.096 L202.492,483.01 C202.492,481.895328 202.276669,481.186002 201.846,480.882 C201.415331,480.577998 200.83267,480.426 200.098,480.426 L199.718,480.426 L199.718,478.868 L207.318,478.868 L207.318,480.426 L206.9,480.426 C206.190663,480.426 205.608002,480.584332 205.152,480.901 C204.695998,481.217668 204.468,481.971327 204.468,483.162 L204.468,498.172 C204.468,500.705346 203.834673,502.706659 202.568,504.176 C201.301327,505.645341 199.426679,506.38 196.944,506.38 Z M215.868,506.38 C213.562655,506.38 211.865339,505.905005 210.776,504.955 C209.686661,504.004995 209.142,502.757341 209.142,501.212 C209.142,500.401329 209.369998,499.761669 209.826,499.293 C210.282002,498.824331 210.87733,498.59 211.612,498.59 C211.713334,500.388676 212.156663,501.845328 212.942,502.96 C213.727337,504.074672 214.77866,504.632 216.096,504.632 C217.362673,504.632 218.337997,504.220337 219.022,503.397 C219.706003,502.573663 220.048,501.414674 220.048,499.92 C220.048,498.855995 219.864335,497.969337 219.497,497.26 C219.129665,496.550663 218.57867,495.90467 217.844,495.322 C217.10933,494.73933 216.184672,494.144003 215.07,493.536 C213.296658,492.522662 211.973004,491.39534 211.099,490.154 C210.224996,488.91266 209.788,487.253344 209.788,485.176 C209.788,483.833327 210.085664,482.661672 210.681,481.661 C211.276336,480.660328 212.080662,479.881336 213.094,479.324 C214.107338,478.766664 215.23466,478.488 216.476,478.488 C217.742673,478.488 218.812996,478.703331 219.687,479.134 C220.561004,479.564669 221.225998,480.10933 221.682,480.768 C222.138002,481.42667 222.366,482.097997 222.366,482.782 C222.366,483.592671 222.144336,484.181665 221.701,484.549 C221.257664,484.916335 220.605338,485.1 219.744,485.1 C219.744,483.833327 219.446336,482.712338 218.851,481.737 C218.255664,480.761662 217.350006,480.274 216.134,480.274 C215.019328,480.274 214.17067,480.679329 213.588,481.49 C213.00533,482.300671 212.714,483.389993 212.714,484.758 C212.714,485.670005 212.853332,486.45533 213.132,487.114 C213.410668,487.77267 213.891997,488.386997 214.576,488.957 C215.260003,489.527003 216.197327,490.128664 217.388,490.762 C219.237343,491.775338 220.636995,492.877327 221.587,494.068 C222.537005,495.258673 223.012,496.867323 223.012,498.894 C223.012,501.300679 222.347007,503.149994 221.017,504.442 C219.686993,505.734006 217.970677,506.38 215.868,506.38 Z M233.158,506 L233.158,504.442 L233.88,504.442 C234.513336,504.442 235.026331,504.271002 235.419,503.929 C235.811669,503.586998 236.008,502.871339 236.008,501.782 L236.008,483.01 C236.008,481.920661 235.792669,481.217668 235.362,480.901 C234.931331,480.584332 234.38667,480.426 233.728,480.426 L233.158,480.426 L233.158,478.868 L242.126,478.868 L242.126,480.426 L241.632,480.426 C240.97333,480.426 240.460335,480.584332 240.093,480.901 C239.725665,481.217668 239.542,481.933328 239.542,483.048 L239.542,490.876 L248.738,490.876 L248.738,483.086 C248.738,481.971328 248.548002,481.249335 248.168,480.92 C247.787998,480.590665 247.256003,480.426 246.572,480.426 L246.116,480.426 L246.116,478.868 L255.084,478.868 L255.084,480.426 L254.4,480.426 C253.74133,480.426 253.215669,480.590665 252.823,480.92 C252.430331,481.249335 252.234,481.971328 252.234,483.086 L252.234,501.896 C252.234,502.960005 252.436665,503.650332 252.842,503.967 C253.247335,504.283668 253.766663,504.442 254.4,504.442 L255.084,504.442 L255.084,506 L246.116,506 L246.116,504.442 L246.572,504.442 C247.256003,504.442 247.787998,504.271002 248.168,503.929 C248.548002,503.586998 248.738,502.858672 248.738,501.744 L248.738,492.738 L239.542,492.738 L239.542,501.782 C239.542,502.871339 239.725665,503.586998 240.093,503.929 C240.460335,504.271002 240.97333,504.442 241.632,504.442 L242.126,504.442 L242.126,506 L233.158,506 Z M257.212,506 L257.212,504.442 L257.858,504.442 C258.542003,504.442 259.080331,504.283668 259.473,503.967 C259.865669,503.650332 260.062,502.972672 260.062,501.934 L260.062,483.124 C260.062,481.958661 259.853002,481.217668 259.435,480.901 C259.016998,480.584332 258.491336,480.426 257.858,480.426 L257.212,480.426 L257.212,478.868 L272.792,478.868 L272.944,485.48 L271.196,485.48 L271.044,483.884 C270.993333,483.047996 270.771669,482.313336 270.379,481.68 C269.986331,481.046664 269.321338,480.73 268.384,480.73 L263.558,480.73 L263.558,490.876 L270.74,490.876 L270.74,492.7 L263.558,492.7 L263.558,504.138 L269.106,504.138 C270.068671,504.138 270.771664,503.821337 271.215,503.188 C271.658336,502.554664 271.930666,501.820004 272.032,500.984 L272.184,499.388 L273.932,499.388 L273.742,506 L257.212,506 Z M275.186,506 L275.186,504.442 L275.68,504.442 C276.237336,504.442 276.674332,504.252002 276.991,503.872 C277.307668,503.491998 277.643332,502.694006 277.998,501.478 L284.61,478.868 L287.422,478.868 L294.186,502.694 C294.388668,503.378003 294.648332,503.840332 294.965,504.081 C295.281668,504.321668 295.756664,504.442 296.39,504.442 L296.694,504.442 L296.694,506 L287.992,506 L287.992,504.442 L288.676,504.442 C289.866673,504.442 290.462,503.948005 290.462,502.96 C290.462,502.706665 290.417667,502.371002 290.329,501.953 C290.240333,501.534998 290.145334,501.136002 290.044,500.756 L289.018,496.88 L281.304,496.88 L280.354,500.49 C280.278,500.794002 280.189334,501.154998 280.088,501.573 C279.986666,501.991002 279.936,502.377332 279.936,502.732 C279.936,503.238669 280.081665,503.650332 280.373,503.967 C280.664335,504.283668 281.151997,504.442 281.836,504.442 L282.634,504.442 L282.634,506 L275.186,506 Z M281.912,495.018 L288.486,495.018 L286.586,487.76 C286.307332,486.619994 286.047668,485.600338 285.807,484.701 C285.566332,483.801662 285.382667,482.997337 285.256,482.288 C285.103999,482.997337 284.920334,483.788996 284.705,484.663 C284.489666,485.537004 284.255335,486.442662 284.002,487.38 L281.912,495.018 Z M297.758,506 L297.758,504.442 L298.48,504.442 C299.06267,504.442 299.562998,504.283668 299.981,503.967 C300.399002,503.650332 300.608,502.934672 300.608,501.82 L300.608,483.086 C300.608,481.971328 300.399002,481.249335 299.981,480.92 C299.562998,480.590665 299.02467,480.426 298.366,480.426 L297.758,480.426 L297.758,478.868 L306.954,478.868 L306.954,480.426 L306.308,480.426 C305.57333,480.426 305.022335,480.584332 304.655,480.901 C304.287665,481.217668 304.104,481.907995 304.104,482.972 L304.104,504.138 L309.956,504.138 C310.842671,504.138 311.482331,503.82767 311.875,503.207 C312.267669,502.58633 312.527333,501.756672 312.654,500.718 L312.996,497.868 L314.478,497.868 L314.288,506 L297.758,506 Z M317.746,506 L317.746,504.442 L318.316,504.442 C319.05067,504.442 319.671331,504.296335 320.178,504.005 C320.684669,503.713665 320.938,503.010672 320.938,501.896 L320.938,480.73 L318.164,480.73 C317.277329,480.73 316.663002,481.046664 316.321,481.68 C315.978998,482.313336 315.77,483.047996 315.694,483.884 L315.542,485.442 L313.87,485.442 L314.022,478.868 L331.388,478.868 L331.54,485.442 L329.906,485.442 L329.716,483.884 C329.64,483.047996 329.424668,482.313336 329.07,481.68 C328.715332,481.046664 328.094671,480.73 327.208,480.73 L324.434,480.73 L324.434,501.706 C324.434,502.896673 324.687331,503.650332 325.194,503.967 C325.700669,504.283668 326.308663,504.442 327.018,504.442 L327.588,504.442 L327.588,506 L317.746,506 Z M333.174,506 L333.174,504.442 L333.896,504.442 C334.529336,504.442 335.042331,504.271002 335.435,503.929 C335.827669,503.586998 336.024,502.871339 336.024,501.782 L336.024,483.01 C336.024,481.920661 335.808669,481.217668 335.378,480.901 C334.947331,480.584332 334.40267,480.426 333.744,480.426 L333.174,480.426 L333.174,478.868 L342.142,478.868 L342.142,480.426 L341.648,480.426 C340.98933,480.426 340.476335,480.584332 340.109,480.901 C339.741665,481.217668 339.558,481.933328 339.558,483.048 L339.558,490.876 L348.754,490.876 L348.754,483.086 C348.754,481.971328 348.564002,481.249335 348.184,480.92 C347.803998,480.590665 347.272003,480.426 346.588,480.426 L346.132,480.426 L346.132,478.868 L355.1,478.868 L355.1,480.426 L354.416,480.426 C353.75733,480.426 353.231669,480.590665 352.839,480.92 C352.446331,481.249335 352.25,481.971328 352.25,483.086 L352.25,501.896 C352.25,502.960005 352.452665,503.650332 352.858,503.967 C353.263335,504.283668 353.782664,504.442 354.416,504.442 L355.1,504.442 L355.1,506 L346.132,506 L346.132,504.442 L346.588,504.442 C347.272003,504.442 347.803998,504.271002 348.184,503.929 C348.564002,503.586998 348.754,502.858672 348.754,501.744 L348.754,492.738 L339.558,492.738 L339.558,501.782 C339.558,502.871339 339.741665,503.586998 340.109,503.929 C340.476335,504.271002 340.98933,504.442 341.648,504.442 L342.142,504.442 L342.142,506 L333.174,506 Z M371.744,506 L366.69,482.44 C366.512666,481.629329 366.259335,481.091001 365.93,480.825 C365.600665,480.558999 365.14467,480.426 364.562,480.426 L364.182,480.426 L364.182,478.868 L372.884,478.868 L372.884,480.426 L372.2,480.426 C370.983994,480.426 370.376,480.869329 370.376,481.756 C370.376,482.009335 370.407666,482.300665 370.471,482.63 C370.534334,482.959335 370.591333,483.275998 370.642,483.58 L373.112,496.12 C373.340001,497.285339 373.542666,498.361995 373.72,499.35 C373.897334,500.338005 374.049333,501.287995 374.176,502.2 C374.328001,501.186662 374.530665,500.091006 374.784,498.913 C375.037335,497.734994 375.315998,496.462007 375.62,495.094 L379.268,479.134 L382.004,479.134 L385.348,495.778 C385.601335,497.044673 385.835666,498.203661 386.051,499.255 C386.266334,500.306339 386.437333,501.313329 386.564,502.276 C386.690667,501.389329 386.836333,500.521671 387.001,499.673 C387.165667,498.824329 387.374665,497.804673 387.628,496.614 L390.25,484.264 C390.326,483.909332 390.402,483.478669 390.478,482.972 C390.554,482.465331 390.592,482.072668 390.592,481.794 C390.592,481.287331 390.427335,480.932668 390.098,480.73 C389.768665,480.527332 389.27467,480.426 388.616,480.426 L387.932,480.426 L387.932,478.868 L395.418,478.868 L395.418,480.426 L394.81,480.426 C394.22733,480.426 393.771335,480.609665 393.442,480.977 C393.112665,481.344335 392.808668,482.14866 392.53,483.39 L387.628,506 L384.246,506 L379.876,484.302 L375.126,506 L371.744,506 Z M393.746,506 L393.746,504.442 L394.24,504.442 C394.797336,504.442 395.234332,504.252002 395.551,503.872 C395.867668,503.491998 396.203332,502.694006 396.558,501.478 L403.17,478.868 L405.982,478.868 L412.746,502.694 C412.948668,503.378003 413.208332,503.840332 413.525,504.081 C413.841668,504.321668 414.316664,504.442 414.95,504.442 L415.254,504.442 L415.254,506 L406.552,506 L406.552,504.442 L407.236,504.442 C408.426673,504.442 409.022,503.948005 409.022,502.96 C409.022,502.706665 408.977667,502.371002 408.889,501.953 C408.800333,501.534998 408.705334,501.136002 408.604,500.756 L407.578,496.88 L399.864,496.88 L398.914,500.49 C398.838,500.794002 398.749334,501.154998 398.648,501.573 C398.546666,501.991002 398.496,502.377332 398.496,502.732 C398.496,503.238669 398.641665,503.650332 398.933,503.967 C399.224335,504.283668 399.711997,504.442 400.396,504.442 L401.194,504.442 L401.194,506 L393.746,506 Z M400.472,495.018 L407.046,495.018 L405.146,487.76 C404.867332,486.619994 404.607668,485.600338 404.367,484.701 C404.126332,483.801662 403.942667,482.997337 403.816,482.288 C403.663999,482.997337 403.480334,483.788996 403.265,484.663 C403.049666,485.537004 402.815335,486.442662 402.562,487.38 L400.472,495.018 Z M417.762,506 L417.762,504.442 L418.332,504.442 C419.06667,504.442 419.687331,504.296335 420.194,504.005 C420.700669,503.713665 420.954,503.010672 420.954,501.896 L420.954,480.73 L418.18,480.73 C417.293329,480.73 416.679002,481.046664 416.337,481.68 C415.994998,482.313336 415.786,483.047996 415.71,483.884 L415.558,485.442 L413.886,485.442 L414.038,478.868 L431.404,478.868 L431.556,485.442 L429.922,485.442 L429.732,483.884 C429.656,483.047996 429.440668,482.313336 429.086,481.68 C428.731332,481.046664 428.110671,480.73 427.224,480.73 L424.45,480.73 L424.45,501.706 C424.45,502.896673 424.703331,503.650332 425.21,503.967 C425.716669,504.283668 426.324663,504.442 427.034,504.442 L427.604,504.442 L427.604,506 L417.762,506 Z M442.424,506.38 C440.37199,506.38 438.64934,505.797339 437.256,504.632 C435.86266,503.466661 434.811337,501.83901 434.102,499.749 C433.392663,497.65899 433.038,495.208014 433.038,492.396 C433.038,489.609319 433.40533,487.17101 434.14,485.081 C434.87467,482.99099 435.963993,481.369672 437.408,480.217 C438.852007,479.064328 440.650656,478.488 442.804,478.488 C444.830677,478.488 446.401328,478.918662 447.516,479.78 C448.630672,480.641338 449.188,481.654661 449.188,482.82 C449.188,483.580004 448.934669,484.181664 448.428,484.625 C447.921331,485.068336 447.237338,485.29 446.376,485.29 C446.376,484.479329 446.255668,483.70667 446.015,482.972 C445.774332,482.23733 445.36267,481.635669 444.78,481.167 C444.19733,480.698331 443.424671,480.464 442.462,480.464 C440.460657,480.464 439.023004,481.527989 438.149,483.656 C437.274996,485.784011 436.838,488.697315 436.838,492.396 C436.838,496.120019 437.319329,499.02699 438.282,501.117 C439.244671,503.20701 440.815322,504.252 442.994,504.252 C444.514008,504.252 445.691996,503.90367 446.528,503.207 C447.364004,502.51033 448.060664,501.693338 448.618,500.756 C448.947335,501.009335 449.112,501.452663 449.112,502.086 C449.112,502.66867 448.884002,503.28933 448.428,503.948 C447.971998,504.60667 447.256338,505.176664 446.281,505.658 C445.305662,506.139336 444.020008,506.38 442.424,506.38 Z M451.354,506 L451.354,504.442 L452.076,504.442 C452.709336,504.442 453.222331,504.271002 453.615,503.929 C454.007669,503.586998 454.204,502.871339 454.204,501.782 L454.204,483.01 C454.204,481.920661 453.988669,481.217668 453.558,480.901 C453.127331,480.584332 452.58267,480.426 451.924,480.426 L451.354,480.426 L451.354,478.868 L460.322,478.868 L460.322,480.426 L459.828,480.426 C459.16933,480.426 458.656335,480.584332 458.289,480.901 C457.921665,481.217668 457.738,481.933328 457.738,483.048 L457.738,490.876 L466.934,490.876 L466.934,483.086 C466.934,481.971328 466.744002,481.249335 466.364,480.92 C465.983998,480.590665 465.452003,480.426 464.768,480.426 L464.312,480.426 L464.312,478.868 L473.28,478.868 L473.28,480.426 L472.596,480.426 C471.93733,480.426 471.411669,480.590665 471.019,480.92 C470.626331,481.249335 470.43,481.971328 470.43,483.086 L470.43,501.896 C470.43,502.960005 470.632665,503.650332 471.038,503.967 C471.443335,504.283668 471.962663,504.442 472.596,504.442 L473.28,504.442 L473.28,506 L464.312,506 L464.312,504.442 L464.768,504.442 C465.452003,504.442 465.983998,504.271002 466.364,503.929 C466.744002,503.586998 466.934,502.858672 466.934,501.744 L466.934,492.738 L457.738,492.738 L457.738,501.782 C457.738,502.871339 457.921665,503.586998 458.289,503.929 C458.656335,504.271002 459.16933,504.442 459.828,504.442 L460.322,504.442 L460.322,506 L451.354,506 Z"></path>
        </g>
    </g>
</svg>