<?xml version="1.0" encoding="UTF-8"?>
<svg width="131px" height="31px" viewBox="0 0 131 31" version="1.1" xmlns="http://www.w3.org/2000/svg" xmlns:xlink="http://www.w3.org/1999/xlink">
    <!-- Generator: Sketch 47.1 (45422) - http://www.bohemiancoding.com/sketch -->
    <title>Artboard</title>
    <desc>Created with Sketch.</desc>
    <defs></defs>
    <g stroke="none" stroke-width="1" fill="none" fill-rule="evenodd">
        <g fill-rule="nonzero">
            <g>
                <path d="M125.731892,3.10279539 C121.95027,0.127980576 114.779459,0.28205465 114.779459,0.28205465 L102.459459,0.28205465 C101.020541,0.28205465 100.521081,0.376869465 100.616216,0.993165761 C100.772135,1.27754445 101.064517,1.46134907 101.389189,1.47909169 C102.230266,1.58057176 102.887771,2.25064345 102.970811,3.09094354 C102.970811,4.1102028 103.125405,7.3102028 103.125405,8.42427687 L103.125405,17.5264991 C103.125405,18.7116843 103.125405,20.7739065 103.125405,21.9946472 L103.125405,27.6479806 C103.125388,28.8804847 104.12443,29.8814594 105.361081,29.8879806 L112.71027,29.8879806 C115.837256,29.8601384 118.932671,29.2616177 121.843243,28.1220546 C127.401198,25.8135708 130.986374,20.3623571 130.892973,14.3620546 C130.987574,10.020507 129.086774,5.87377978 125.731892,3.10279539 Z M113.292973,27.292425 L113.007568,27.292425 C111.295135,27.292425 109.523243,27.292425 108.595676,26.3798324 C108.080009,25.7889469 107.82684,25.0148928 107.894054,24.2346472 L107.894054,10.6168695 C107.894054,7.80798058 107.822703,6.49242502 107.894054,3.33983243 C109.588035,3.10274271 111.296984,2.9878761 113.007568,2.99612872 C116.254054,2.99612872 119.643243,3.43464724 122.521081,6.55168428 C124.500902,8.85355253 125.529548,11.818956 125.398919,14.8479806 C125.387027,22.4687213 120.642162,27.292425 113.292973,27.292425 Z M100.568649,28.7739065 C99.7602179,28.4464189 99.1676169,27.7403564 98.987027,26.8894621 C98.987027,26.3561287 98.4281081,2.60501761 98.4281081,2.60501761 C98.4281081,1.41983243 98.4281081,0.483536131 98.1308108,0.365017613 C97.2918057,0.249405666 96.4440208,0.209737572 95.5978378,0.246499094 C94.902,0.142201345 94.1910723,0.211425927 93.5286486,0.447980576 C93.1005334,1.15358755 92.7534831,1.90498586 92.4940541,2.68798058 L90.3178378,7.51168428 L88.1891892,11.5650176 L84.8832432,17.9531658 C84.7667045,18.4383944 84.3314321,18.780618 83.8308108,18.780618 C83.3301895,18.780618 82.8949171,18.4383944 82.7783784,17.9531658 L79.3535135,11.6598324 L77.212973,7.73686946 L74.8345946,2.64057317 C74.5689058,1.86775346 74.2304614,1.12171443 73.8237838,0.41242502 C73.0814528,0.206266136 72.3059899,0.145887079 71.5405405,0.234647242 L68.6151351,0.234647242 C67.1762162,0.234647242 66.5221622,0.234647242 66.6172973,0.850943539 C66.7714593,1.13696057 67.0648708,1.32141241 67.3902703,1.33686946 C68.1286022,1.66575136 68.5972097,2.40365834 68.5794595,3.20946206 C68.5794595,3.74279539 68.5794595,25.3842769 68.4605405,26.332425 C68.4605405,26.4864991 68.4605405,26.652425 68.3772973,26.8183509 C68.302329,27.7356347 67.66921,28.5125967 66.7837838,28.7739065 C66.4583843,28.7893636 66.1649728,28.9738154 66.0108108,29.2598324 C65.9156757,29.8642769 66.5816216,29.8879806 68.0205405,29.8879806 L72.7772973,29.8879806 C74.2162162,29.8879806 74.8821622,29.8879806 74.7989189,29.2598324 C74.6447569,28.9738154 74.3513454,28.7893636 74.0259459,28.7739065 C73.172831,28.5103208 72.5539103,27.7728993 72.4443243,26.8894621 L72.4443243,26.8894621 C72.3367303,26.3491916 72.2612833,25.8030534 72.2183784,25.2539065 C72.2183784,24.0687213 72.147027,22.0064991 72.1589189,20.7857584 L72.1589189,20.3709435 C72.1589189,19.1857584 72.1589189,17.1235361 72.2302703,15.9027954 L72.3491892,11.055388 C72.3491892,9.8702028 72.8843243,9.70427687 73.467027,10.7827954 L76.6778378,16.7087213 C77.2605405,17.7872398 80.3405405,23.5946472 80.8875676,24.6850176 C80.9734932,25.1319181 81.2361223,25.5256113 81.6163542,25.7775028 C81.9965862,26.0293942 82.4624784,26.1183229 82.9091892,26.0242769 C84.5264865,26.0242769 84.5264865,25.5976102 85.1924324,24.175388 C85.68,23.132425 92.5654054,9.63316576 92.5654054,9.63316576 C93.1243243,8.54279539 93.6118919,8.64946206 93.6475676,9.8702028 C93.6475676,9.8702028 93.7308108,26.3205732 93.6475676,27.0672398 L93.6475676,27.3161287 C93.4456057,28.0213668 92.8924855,28.5726247 92.1848649,28.7739065 C91.8601924,28.7916491 91.5678104,28.9754537 91.4118919,29.2598324 C91.3167568,29.8642769 91.9827027,29.8879806 93.4216216,29.8879806 L99.3675676,29.8879806 C100.818378,29.8879806 101.472432,29.8879806 101.389189,29.2598324 C101.219343,28.9664019 100.908444,28.7822868 100.568649,28.7739065 Z" fill="#231F20"></path>
                <path d="M35.8648649,3.25686946 C36.0885164,2.51866042 36.5374357,1.86826211 37.1491892,1.39612872 C37.5843904,1.36171233 37.9833572,1.14129066 38.2432432,0.791684279 C38.3502703,0.353165761 37.9578378,0.234647242 36.3881081,0.234647242 L31.6313514,0.234647242 C30.1924324,0.234647242 29.5264865,0.234647242 29.6216216,0.862795391 C29.7775401,1.14717408 30.0699221,1.3309787 30.3945946,1.34872132 C31.7621622,1.72798058 32.6778378,2.42723983 32.2497297,3.84946206 C31.8216216,5.27168428 25.8756757,22.7057584 25.8756757,22.7057584 C25.6497297,23.3339065 25.067027,23.5116843 24.8886486,22.575388 L21.8086486,7.90279539 C21.547027,6.71761021 21.2616216,5.15316576 21.1545946,4.47761021 C20.9985682,3.88465957 20.4491296,3.4801346 19.8345946,3.50575835 C19.2827127,3.49070352 18.774107,3.80228012 18.5383784,4.29983243 C18.1459459,5.11761021 17.3491892,6.6702028 16.8021622,7.79612872 L8.96540541,22.8005732 C8.64432432,23.3576102 8.24,23.1916843 8.18054054,22.5279806 L7.20540541,7.32205465 C7.20540541,6.13686946 7.08648649,3.76649909 7.09837838,3.38723983 C7.10353744,2.4245895 7.76545135,1.5889882 8.70378378,1.36057317 C9.04444574,1.33413616 9.34864694,1.13796283 9.51243243,0.839091687 C9.60756757,0.234647242 8.90594595,0.246499094 7.46702703,0.246499094 L1.52108108,0.246499094 C0.56972973,0.270202798 0.117837838,0.376869465 0.189189189,0.874647242 C0.345107651,1.15902594 0.63748967,1.34283055 0.962162162,1.36057317 C1.57574486,1.5266839 2.07947103,1.96323184 2.32972973,2.54575835 C2.42010766,2.75483028 2.49949454,2.96845317 2.56756757,3.18575835 L2.56756757,3.30427687 L2.56756757,3.38723983 C2.56528754,3.42671333 2.56528754,3.46628486 2.56756757,3.50575835 C2.84466334,4.85571052 3.03925565,6.22118616 3.15027027,7.59464724 L4.44648649,26.1783509 C4.41618116,27.4514256 4.55615062,28.7228519 4.8627027,29.9590917 C5.23135135,30.7294621 6.96756757,30.6820546 7.6572973,29.6509435 C7.84756757,29.3546472 17.6345946,11.0435361 17.6345946,11.0435361 C18.2054054,9.95316576 18.8237838,10.0479806 19.1210811,11.2568695 L22.1891892,26.3442769 C22.3779952,27.4673724 22.6442111,28.5761703 22.9859459,29.6627954 C23.4021622,30.7531658 25.4951351,30.5635361 26.0540541,29.4968695 C26.6199825,28.4111854 27.1164684,27.2909259 27.5405405,26.1427954 C27.5405405,26.1427954 35.5318919,4.21686946 35.8648649,3.25686946 Z M61.6583784,10.3679806 C57.8410811,10.3679806 54.3567568,13.8405732 52.0616216,16.4716843 C52.183681,15.7144113 52.3706723,14.9689645 52.6205405,14.2435361 L56.1881081,2.39168428 C56.384813,1.88883933 56.3097087,1.32065142 55.9890483,0.88573319 C55.6683878,0.450814963 55.1467541,0.209635093 54.6064865,0.246499094 L51.5978378,0.246499094 C50.1589189,0.246499094 49.492973,0.246499094 49.5762162,0.874647242 C49.7321347,1.15902594 50.0245167,1.34283055 50.3491892,1.36057317 C51.7762162,1.76353613 52.2518919,3.35168428 51.8713514,5.08205465 C51.8713514,4.93983243 48.3037838,19.1620546 48.3037838,19.1620546 C47.8585281,20.5648555 47.0886312,21.8436966 46.0562162,22.895388 C46.0562162,22.895388 41.7394595,28.1457584 37.387027,28.1457584 C36.4683483,28.237028 35.5555092,27.9237433 34.8879957,27.2880954 C34.2204823,26.6524475 33.8649211,25.7578822 33.9145946,24.8390917 C33.8993589,23.7748528 34.0111344,22.7125827 34.2475676,21.6746472 C38.7902703,21.2479806 46.9243243,19.1620546 46.9243243,13.3783509 C46.9243243,11.0079806 44.6767568,10.3679806 42.7621622,10.3679806 C36.6021622,10.3679806 30.5254054,17.8583509 30.5254054,24.5902028 C30.5254054,27.4227954 31.8454054,30.3027954 35.7578378,30.3027954 C43.107027,30.3027954 47.1027027,23.1916843 47.3286486,22.9190917 C47.1398294,23.8612184 47.0205906,24.8158776 46.9718919,25.775388 C46.9718919,28.8687213 49.2313514,30.3027954 52.0259459,30.3027954 C54.2361927,30.2208119 56.3839389,29.5495988 58.2454054,28.3590917 C59.8462862,27.3988055 61.2900683,26.1997048 62.5264865,24.8035361 C64.887615,22.3453794 66.2989706,19.1332847 66.5102703,15.7368695 C66.4983784,12.5842769 65.0951351,10.415388 61.6940541,10.415388 L61.6583784,10.3679806 Z M41.8108108,11.8020546 C42.2982227,11.7710893 42.7744238,11.9565322 43.1116529,12.3086303 C43.4488821,12.6607285 43.6126133,13.1434337 43.5589189,13.6272398 C43.5589189,18.2494621 38.4216216,20.2761287 34.5091892,20.5368695 C35.1394595,17.7279806 38.5048649,11.8020546 41.8108108,11.8020546 Z M61.1708108,21.852425 C60.2520912,23.7170479 59.04858,25.4282761 57.6032432,26.9250176 C56.359155,28.3039342 54.6302758,29.1527313 52.7751351,29.295388 C50.8248649,29.295388 50.1827027,27.4346472 50.1827027,25.7398324 C50.1827027,20.9990917 55.3675676,12.1813139 60.6356757,12.1813139 C62.5859459,12.1813139 63.1805405,13.532425 63.1805405,15.1442769 C62.9940139,17.4940464 62.2960242,19.7750973 61.1351351,21.8287213 L61.1708108,21.852425 Z" fill="#0080C5"></path>
            </g>
        </g>
    </g>
</svg>